<svg width="1908" height="32" viewBox="0 0 1908 32" fill="none" xmlns="http://www.w3.org/2000/svg">
<path d="M1 0V6.93016" stroke="#2BFFE8"/>
<path d="M77 0V6.93016" stroke="#2BFFE8"/>
<path d="M40.3907 26.8902H38.9347V17.8182H36.2467V16.8262C37.9107 16.7782 38.7587 16.5382 39.3987 15.2902H40.3907V26.8902Z" fill="#2BFFE8"/>
<path d="M152 0V6.93016" stroke="#2BFFE8"/>
<path d="M230 0V6.93016" stroke="#2BFFE8"/>
<path d="M192.391 26.8902H190.935V17.8182H188.247V16.8262C189.911 16.7782 190.759 16.5382 191.399 15.2902H192.391V26.8902Z" fill="#2BFFE8"/>
<path d="M306 0V6.93016" stroke="#2BFFE8"/>
<path d="M382 0V6.93016" stroke="#2BFFE8"/>
<path d="M345.391 26.8902H343.935V17.8182H341.247V16.8262C342.911 16.7782 343.759 16.5382 344.399 15.2902H345.391V26.8902Z" fill="#2BFFE8"/>
<path d="M459 0V6.93016" stroke="#2BFFE8"/>
<path d="M535 0V6.93016" stroke="#2BFFE8"/>
<path d="M498.391 26.8902H496.935V17.8182H494.247V16.8262C495.911 16.7782 496.759 16.5382 497.399 15.2902H498.391V26.8902Z" fill="#2BFFE8"/>
<path d="M613 0V6.93016" stroke="#2BFFE8"/>
<path d="M687 0V6.93016" stroke="#2BFFE8"/>
<path d="M651.391 26.8902H649.935V17.8182H647.247V16.8262C648.911 16.7782 649.759 16.5382 650.399 15.2902H651.391V26.8902Z" fill="#2BFFE8"/>
<path d="M764 0V6.93016" stroke="#2BFFE8"/>
<path d="M840 0V6.93016" stroke="#2BFFE8"/>
<path d="M803.391 26.8902H801.935V17.8182H799.247V16.8262C800.911 16.7782 801.759 16.5382 802.399 15.2902H803.391V26.8902Z" fill="#2BFFE8"/>
<path d="M916 0V6.93016" stroke="#2BFFE8"/>
<path d="M992 0V6.93016" stroke="#2BFFE8"/>
<path d="M955.391 26.8902H953.935V17.8182H951.247V16.8262C952.911 16.7782 953.759 16.5382 954.399 15.2902H955.391V26.8902Z" fill="#2BFFE8"/>
<path d="M1067 0V6.93016" stroke="#2BFFE8"/>
<path d="M1145 0V6.93016" stroke="#2BFFE8"/>
<path d="M1107.39 26.8902H1105.93V17.8182H1103.25V16.8262C1104.91 16.7782 1105.76 16.5382 1106.4 15.2902H1107.39V26.8902Z" fill="#2BFFE8"/>
<path d="M1221 0V6.93016" stroke="#2BFFE8"/>
<path d="M1297 0V6.93016" stroke="#2BFFE8"/>
<path d="M1260.39 26.8902H1258.93V17.8182H1256.25V16.8262C1257.91 16.7782 1258.76 16.5382 1259.4 15.2902H1260.39V26.8902Z" fill="#2BFFE8"/>
<path d="M1374 0V6.93016" stroke="#2BFFE8"/>
<path d="M1450 0V6.93016" stroke="#2BFFE8"/>
<path d="M1413.39 26.8902H1411.93V17.8182H1409.25V16.8262C1410.91 16.7782 1411.76 16.5382 1412.4 15.2902H1413.39V26.8902Z" fill="#2BFFE8"/>
<path d="M1526 0V6.93016" stroke="#2BFFE8"/>
<path d="M1602 0V6.93016" stroke="#2BFFE8"/>
<path d="M1565.39 26.8902H1563.93V17.8182H1561.25V16.8262C1562.91 16.7782 1563.76 16.5382 1564.4 15.2902H1565.39V26.8902Z" fill="#2BFFE8"/>
<path d="M1679 0V6.93016" stroke="#2BFFE8"/>
<path d="M1755 0V6.93016" stroke="#2BFFE8"/>
<path d="M1718.39 26.8902H1716.93V17.8182H1714.25V16.8262C1715.91 16.7782 1716.76 16.5382 1717.4 15.2902H1718.39V26.8902Z" fill="#2BFFE8"/>
<path d="M1831 0V6.93016" stroke="#2BFFE8"/>
<path d="M1907 0V6.93016" stroke="#2BFFE8"/>
<path d="M1870.39 26.8902H1868.93V17.8182H1866.25V16.8262C1867.91 16.7782 1868.76 16.5382 1869.4 15.2902H1870.39V26.8902Z" fill="#2BFFE8"/>
</svg>
