<svg width="441" height="9" viewBox="0 0 441 9" fill="none" xmlns="http://www.w3.org/2000/svg">
<rect width="6.08108" height="6.27782" rx="2.02703" transform="matrix(-1 1.89503e-09 -4.03304e-06 -1 292.081 7.56445)" stroke="#2BFFE8" stroke-width="1.01351"/>
<rect width="6.08108" height="6.27782" rx="2.02703" transform="matrix(-1 1.89503e-09 -4.03304e-06 -1 339.081 7.56445)" stroke="#2BFFE8" stroke-width="1.01351"/>
<rect width="6.08108" height="6.27782" rx="2.02703" transform="matrix(-1 1.89503e-09 -4.03304e-06 -1 386.081 7.56445)" stroke="#2BFFE8" stroke-width="1.01351"/>
<rect width="6.08108" height="6.27782" rx="2.02703" transform="matrix(-1 1.89503e-09 -4.03304e-06 -1 58.0811 7.56445)" stroke="#2BFFE8" stroke-width="1.01351"/>
<rect width="6.08108" height="6.27782" rx="2.02703" transform="matrix(-1 1.89503e-09 -4.03304e-06 -1 105.081 7.56445)" stroke="#2BFFE8" stroke-width="1.01351"/>
<rect width="6.08108" height="6.27782" rx="2.02703" transform="matrix(-1 1.89503e-09 -4.03304e-06 -1 151.081 7.56445)" stroke="#2BFFE8" stroke-width="1.01351"/>
<rect width="6.08108" height="6.27782" rx="2.02703" transform="matrix(-1 1.89503e-09 -4.03304e-06 -1 198.081 7.56445)" stroke="#2BFFE8" stroke-width="1.01351"/>
<rect width="6.08108" height="6.27782" rx="2.02703" transform="matrix(-1 1.89503e-09 -4.03304e-06 -1 245.081 7.56445)" stroke="#2BFFE8" stroke-width="1.01351"/>
<rect width="5.99999" height="6.27782" rx="2.02703" transform="matrix(-1 1.40947e-09 -5.42242e-06 -1 19 7.56006)" fill="#2BFFE8"/>
<rect width="5.99999" height="6.27782" rx="2.02703" transform="matrix(-1 1.40947e-09 -5.42242e-06 -1 19 7.56006)" stroke="#2BFFE8" stroke-width="1.01351"/>
<rect width="5.99999" height="6.27782" rx="2.02703" transform="matrix(-1 1.40947e-09 -5.42242e-06 -1 425 7.56006)" fill="#2BFFE8"/>
<rect width="5.99999" height="6.27782" rx="2.02703" transform="matrix(-1 1.40947e-09 -5.42242e-06 -1 425 7.56006)" stroke="#2BFFE8" stroke-width="1.01351"/>
</svg>
