<svg width="423" height="32" viewBox="0 0 423 32" fill="none" xmlns="http://www.w3.org/2000/svg">
<path d="M1 24.7905V31.7206" stroke="#2BFFE8"/>
<path d="M48 24.7905V31.7206" stroke="#2BFFE8"/>
<path d="M25.4271 14H24.4565V7.952H22.6645V7.29067C23.7738 7.25867 24.3391 7.09867 24.7658 6.26667H25.4271V14Z" fill="#2BFFE8"/>
<path d="M95 24.7905V31.7206" stroke="#2BFFE8"/>
<path d="M142 24.7905V31.7206" stroke="#2BFFE8"/>
<path d="M119.427 14H118.456V7.952H116.664V7.29067C117.774 7.25867 118.339 7.09867 118.766 6.26667H119.427V14Z" fill="#2BFFE8"/>
<path d="M188 24.7905V31.7206" stroke="#2BFFE8"/>
<path d="M235 24.7905V31.7206" stroke="#2BFFE8"/>
<path d="M212.427 14H211.456V7.952H209.664V7.29067C210.774 7.25867 211.339 7.09867 211.766 6.26667H212.427V14Z" fill="#2BFFE8"/>
<path d="M282 24.7905V31.7206" stroke="#2BFFE8"/>
<path d="M329 24.7905V31.7206" stroke="#2BFFE8"/>
<path d="M306.427 14H305.456V7.952H303.664V7.29067C304.774 7.25867 305.339 7.09867 305.766 6.26667H306.427V14Z" fill="#2BFFE8"/>
<path d="M375 24.7905V31.7206" stroke="#2BFFE8"/>
<path d="M422 24.7905V31.7206" stroke="#2BFFE8"/>
<path d="M399.427 14H398.456V7.952H396.664V7.29067C397.774 7.25867 398.339 7.09867 398.766 6.26667H399.427V14Z" fill="#2BFFE8"/>
</svg>
