<svg width="423" height="925" viewBox="0 0 423 925" fill="none" xmlns="http://www.w3.org/2000/svg">
<path opacity="0.4" d="M236.163 216.522L236.148 216.246L236.163 216.522ZM187.057 216.522L187.041 216.798L187.057 216.522ZM419.531 125.208L419.259 125.155L419.531 125.208ZM419.849 107.75L419.576 107.793L419.849 107.75ZM187.212 0.72323H5V1.27677H187.212V0.72323ZM3.66027 107.693C7.48238 83.5539 28.7397 61.7284 61.4399 45.237C94.1275 28.752 138.189 17.63 187.492 14.869L187.461 14.3163C138.1 17.0806 93.9604 28.2163 61.1906 44.7428C28.4333 61.263 6.97748 83.2031 3.11354 107.606L3.66027 107.693ZM0.72323 5V107.484H1.27677V5H0.72323ZM5 0.72323C2.638 0.72323 0.72323 2.63801 0.72323 5H1.27677C1.27677 2.94372 2.94372 1.27677 5 1.27677V0.72323ZM0.72323 125.541V227H1.27677V125.541H0.72323ZM0.72323 227C0.72323 229.362 2.63799 231.277 4.99999 231.277V230.723C2.94371 230.723 1.27677 229.056 1.27677 227H0.72323ZM4.99999 231.277H186.772V230.723H4.99999V231.277ZM187.072 216.246C138.486 213.476 95.0121 202.586 62.5316 186.448C30.0391 170.304 8.605 148.94 3.9798 125.253L3.43652 125.359C8.1111 149.299 29.7361 170.772 62.2853 186.944C94.8465 203.122 138.397 214.026 187.041 216.798L187.072 216.246ZM236.179 216.798C284.857 214.024 328.434 203.107 361.002 186.91C393.559 170.72 415.172 149.223 419.803 125.26L419.259 125.155C414.677 148.865 393.256 170.252 360.756 186.414C328.268 202.571 284.768 213.475 236.148 216.246L236.179 216.798ZM418 230.723H236.448V231.277H418V230.723ZM421.723 227C421.723 229.056 420.056 230.723 418 230.723V231.277C420.362 231.277 422.277 229.362 422.277 227H421.723ZM421.723 125.422V227H422.277V125.422H421.723ZM421.723 5V107.602H422.277V5H421.723ZM418 1.27677C420.056 1.27677 421.723 2.94372 421.723 5H422.277C422.277 2.638 420.362 0.72323 418 0.72323V1.27677ZM236.008 1.27677H418V0.72323H236.008V1.27677ZM420.123 107.708C416.305 83.2811 394.862 61.3165 362.098 44.7773C329.321 28.2318 285.154 17.0826 235.759 14.3163L235.728 14.869C285.065 17.632 329.154 28.7674 361.848 45.2714C394.555 61.7817 415.799 83.6314 419.576 107.793L420.123 107.708ZM228.958 7.774C228.958 11.5583 231.957 14.6577 235.728 14.869L235.759 14.3163C232.274 14.1211 229.511 11.2579 229.511 7.774H228.958ZM236.008 0.72323C232.114 0.72323 228.958 3.87997 228.958 7.774H229.511C229.511 4.18568 232.42 1.27677 236.008 1.27677V0.72323ZM421.723 107.602C421.723 108.043 421.365 108.401 420.924 108.401V108.955C421.671 108.955 422.277 108.349 422.277 107.602H421.723ZM422.277 125.422C422.277 124.585 421.598 123.907 420.762 123.907V124.46C421.293 124.46 421.723 124.891 421.723 125.422H422.277ZM236.148 216.246C232.141 216.474 228.958 219.766 228.958 223.786H229.511C229.511 220.067 232.459 217.01 236.179 216.798L236.148 216.246ZM194.263 223.786C194.263 219.766 191.079 216.474 187.072 216.246L187.041 216.798C190.761 217.01 193.709 220.067 193.709 223.786H194.263ZM186.772 231.277C190.909 231.277 194.263 227.923 194.263 223.786H193.709C193.709 227.618 190.603 230.723 186.772 230.723V231.277ZM1.27677 125.541C1.27677 124.944 1.76082 124.46 2.35792 124.46V123.907C1.45511 123.907 0.72323 124.639 0.72323 125.541H1.27677ZM2.19385 108.401C1.68736 108.401 1.27677 107.991 1.27677 107.484H0.72323C0.72323 108.296 1.38165 108.955 2.19385 108.955V108.401ZM228.958 223.786C228.958 227.923 232.311 231.277 236.448 231.277V230.723C232.617 230.723 229.511 227.618 229.511 223.786H228.958ZM3.11354 107.606C3.04105 108.064 2.65101 108.401 2.19385 108.401V108.955C2.92964 108.955 3.54619 108.413 3.66027 107.693L3.11354 107.606ZM419.803 125.26C419.893 124.796 420.294 124.46 420.762 124.46V123.907C420.023 123.907 419.398 124.436 419.259 125.155L419.803 125.26ZM193.709 7.774C193.709 11.2579 190.946 14.1211 187.461 14.3163L187.492 14.869C191.264 14.6577 194.263 11.5583 194.263 7.774H193.709ZM3.9798 125.253C3.82837 124.478 3.15443 123.907 2.35792 123.907V124.46C2.88327 124.46 3.33462 124.838 3.43652 125.359L3.9798 125.253ZM419.576 107.793C419.679 108.456 420.247 108.955 420.924 108.955V108.401C420.525 108.401 420.185 108.107 420.123 107.708L419.576 107.793ZM187.212 1.27677C190.8 1.27677 193.709 4.18568 193.709 7.774H194.263C194.263 3.87997 191.106 0.72323 187.212 0.72323V1.27677Z" fill="#2BFFE8"/>
<path opacity="0.4" d="M420.183 586.16L420.46 586.164L420.183 586.16ZM420.156 568.83L420.433 568.826L420.156 568.83ZM234.556 243.393L234.508 243.666L234.556 243.393ZM2.59538 586.05L2.31791 586.053L2.59538 586.05ZM2.62215 568.94L2.3447 568.935L2.62215 568.94ZM5 231.277H187.857V230.723H5V231.277ZM1.2775 235C1.2775 232.944 2.94412 231.277 5 231.277V230.723C2.6376 230.723 0.722504 232.638 0.722504 235H1.2775ZM1.2775 568.932V235H0.722504V568.932H1.2775ZM188.631 243.04C137.14 252.025 91.2875 291.138 57.9549 349.161C24.6199 407.189 3.78674 484.159 2.3447 568.935L2.89961 568.945C4.34028 484.249 25.1542 407.373 58.4362 349.438C91.7207 291.498 137.455 252.534 188.727 243.586L188.631 243.04ZM2.31791 586.053C3.5847 677.386 27.3562 759.771 65.0511 819.331C102.744 878.887 154.385 915.658 211.39 915.658V915.103C154.644 915.103 103.154 878.498 65.5201 819.034C27.8885 759.574 4.13846 677.293 2.87285 586.046L2.31791 586.053ZM211.39 915.658C268.383 915.658 320.015 878.902 357.706 819.367C395.399 759.828 419.176 677.47 420.46 586.164L419.905 586.156C418.622 677.377 394.866 759.631 357.237 819.07C319.605 878.513 268.125 915.103 211.39 915.103V915.658ZM421.723 586.166V920H422.277V586.166H421.723ZM421.723 920C421.723 922.056 420.056 923.723 418 923.723V924.278C420.362 924.278 422.277 922.362 422.277 920H421.723ZM418 923.723H4.99999V924.278H418V923.723ZM4.99999 923.723C2.94411 923.723 1.2775 922.056 1.2775 920H0.722504C0.722504 922.362 2.63759 924.278 4.99999 924.278V923.723ZM1.2775 920V586.055H0.722504V920H1.2775ZM420.433 568.826C418.977 484.2 398.198 407.358 364.951 349.381C331.706 291.409 285.975 252.268 234.605 243.12L234.508 243.666C285.66 252.776 331.273 291.768 364.469 349.657C397.664 407.542 418.423 484.29 419.878 568.835L420.433 568.826ZM235.405 231.277H418V230.723H235.405V231.277ZM418 231.277C420.056 231.277 421.723 232.944 421.723 235H422.277C422.277 232.638 420.362 230.723 418 230.723V231.277ZM421.723 235V568.821H422.277V235H421.723ZM229.512 237.171C229.512 233.916 232.151 231.277 235.405 231.277V230.723C231.844 230.723 228.957 233.61 228.957 237.171H229.512ZM1.2775 586.055C1.2775 585.768 1.51026 585.535 1.79741 585.535V584.98C1.20376 584.98 0.722504 585.461 0.722504 586.055H1.2775ZM421.092 585.535C421.44 585.535 421.723 585.818 421.723 586.166H422.277C422.277 585.511 421.747 584.98 421.092 584.98V585.535ZM420.46 586.164C420.465 585.816 420.749 585.535 421.092 585.535V584.98C420.44 584.98 419.914 585.509 419.905 586.156L420.46 586.164ZM421.078 569.465C420.728 569.465 420.439 569.18 420.433 568.826L419.878 568.835C419.889 569.488 420.421 570.02 421.078 570.02V569.465ZM0.722504 568.932C0.722504 569.533 1.20975 570.02 1.8108 570.02V569.465C1.51626 569.465 1.2775 569.226 1.2775 568.932H0.722504ZM234.605 243.12C231.693 242.601 229.512 240.115 229.512 237.171H228.957C228.957 240.398 231.345 243.103 234.508 243.666L234.605 243.12ZM2.87285 586.046C2.86472 585.46 2.38798 584.98 1.79741 584.98V585.535C2.07989 585.535 2.31393 585.766 2.31791 586.053L2.87285 586.046ZM193.708 237.129C193.708 240.06 191.532 242.533 188.631 243.04L188.727 243.586C191.879 243.036 194.263 240.344 194.263 237.129H193.708ZM421.078 570.02C421.741 570.02 422.277 569.483 422.277 568.821H421.723C421.723 569.177 421.434 569.465 421.078 569.465V570.02ZM1.8108 570.02C2.40726 570.02 2.88954 569.537 2.89961 568.945L2.3447 568.935C2.3397 569.229 2.10009 569.465 1.8108 569.465V570.02ZM194.263 237.129C194.263 233.591 191.395 230.723 187.857 230.723V231.277C191.089 231.277 193.708 233.897 193.708 237.129H194.263Z" fill="#2BFFE8"/>
</svg>
