<svg width="423" height="32" viewBox="0 0 423 32" fill="none" xmlns="http://www.w3.org/2000/svg">
<path d="M1 0V6.93016" stroke="#2BFFE8"/>
<path d="M48 0V6.93016" stroke="#2BFFE8"/>
<path d="M25.4271 24.8902H24.4565V18.8422H22.6645V18.1809C23.7738 18.1489 24.3391 17.9889 24.7658 17.1569H25.4271V24.8902Z" fill="#2BFFE8"/>
<path d="M95 0V6.93016" stroke="#2BFFE8"/>
<path d="M142 0V6.93016" stroke="#2BFFE8"/>
<path d="M119.427 24.8902H118.456V18.8422H116.664V18.1809C117.774 18.1489 118.339 17.9889 118.766 17.1569H119.427V24.8902Z" fill="#2BFFE8"/>
<path d="M189 0V6.93016" stroke="#2BFFE8"/>
<path d="M235 0V6.93016" stroke="#2BFFE8"/>
<path d="M212.927 24.8902H211.956V18.8422H210.164V18.1809C211.274 18.1489 211.839 17.9889 212.266 17.1569H212.927V24.8902Z" fill="#2BFFE8"/>
<path d="M282 0V6.93016" stroke="#2BFFE8"/>
<path d="M329 0V6.93016" stroke="#2BFFE8"/>
<path d="M306.427 24.8902H305.456V18.8422H303.664V18.1809C304.774 18.1489 305.339 17.9889 305.766 17.1569H306.427V24.8902Z" fill="#2BFFE8"/>
<path d="M376 0V6.93016" stroke="#2BFFE8"/>
<path d="M422 0V6.93016" stroke="#2BFFE8"/>
<path d="M399.927 24.8902H398.956V18.8422H397.164V18.1809C398.274 18.1489 398.839 17.9889 399.266 17.1569H399.927V24.8902Z" fill="#2BFFE8"/>
</svg>
