<svg width="1908" height="29" viewBox="0 0 1908 29" fill="none" xmlns="http://www.w3.org/2000/svg">
<path d="M1 6.93018V2.04742e-05" stroke="#2BFFE8"/>
<path d="M77 6.93018V2.04742e-05" stroke="#2BFFE8"/>
<path d="M40.3907 23.9204H38.9347V14.8484H36.2467V13.8564C37.9107 13.8084 38.7587 13.5684 39.3987 12.3204H40.3907V23.9204Z" fill="#2BFFE8"/>
<path d="M154 6.93018V2.04742e-05" stroke="#2BFFE8"/>
<path d="M230 6.93018V2.04742e-05" stroke="#2BFFE8"/>
<path d="M193.391 23.9204H191.935V14.8484H189.247V13.8564C190.911 13.8084 191.759 13.5684 192.399 12.3204H193.391V23.9204Z" fill="#2BFFE8"/>
<path d="M306 6.93018V2.04742e-05" stroke="#2BFFE8"/>
<path d="M382 6.93018V2.04742e-05" stroke="#2BFFE8"/>
<path d="M345.391 23.9204H343.935V14.8484H341.247V13.8564C342.911 13.8084 343.759 13.5684 344.399 12.3204H345.391V23.9204Z" fill="#2BFFE8"/>
<path d="M459 6.93018V2.04742e-05" stroke="#2BFFE8"/>
<path d="M535 6.93018V2.04742e-05" stroke="#2BFFE8"/>
<path d="M498.391 23.9204H496.935V14.8484H494.247V13.8564C495.911 13.8084 496.759 13.5684 497.399 12.3204H498.391V23.9204Z" fill="#2BFFE8"/>
<path d="M611 6.93018V2.04742e-05" stroke="#2BFFE8"/>
<path d="M687 6.93018V2.04742e-05" stroke="#2BFFE8"/>
<path d="M650.391 23.9204H648.935V14.8484H646.247V13.8564C647.911 13.8084 648.759 13.5684 649.399 12.3204H650.391V23.9204Z" fill="#2BFFE8"/>
<path d="M763 6.93018V2.04742e-05" stroke="#2BFFE8"/>
<path d="M840 6.93018V2.04742e-05" stroke="#2BFFE8"/>
<path d="M802.891 23.9204H801.435V14.8484H798.747V13.8564C800.411 13.8084 801.259 13.5684 801.899 12.3204H802.891V23.9204Z" fill="#2BFFE8"/>
<path d="M916 6.93018V2.04742e-05" stroke="#2BFFE8"/>
<path d="M992 6.93018V2.04742e-05" stroke="#2BFFE8"/>
<path d="M955.391 23.9204H953.935V14.8484H951.247V13.8564C952.911 13.8084 953.759 13.5684 954.399 12.3204H955.391V23.9204Z" fill="#2BFFE8"/>
<path d="M1068 6.93018V2.04742e-05" stroke="#2BFFE8"/>
<path d="M1145 6.93018V2.04742e-05" stroke="#2BFFE8"/>
<path d="M1107.89 23.9204H1106.43V14.8484H1103.75V13.8564C1105.41 13.8084 1106.26 13.5684 1106.9 12.3204H1107.89V23.9204Z" fill="#2BFFE8"/>
<path d="M1221 6.93018V2.04742e-05" stroke="#2BFFE8"/>
<path d="M1297 6.93018V2.04742e-05" stroke="#2BFFE8"/>
<path d="M1260.39 23.9204H1258.93V14.8484H1256.25V13.8564C1257.91 13.8084 1258.76 13.5684 1259.4 12.3204H1260.39V23.9204Z" fill="#2BFFE8"/>
<path d="M1374 6.93018V2.04742e-05" stroke="#2BFFE8"/>
<path d="M1450 6.93018V2.04742e-05" stroke="#2BFFE8"/>
<path d="M1413.39 23.9204H1411.93V14.8484H1409.25V13.8564C1410.91 13.8084 1411.76 13.5684 1412.4 12.3204H1413.39V23.9204Z" fill="#2BFFE8"/>
<path d="M1526 6.93018V2.04742e-05" stroke="#2BFFE8"/>
<path d="M1602 6.93018V2.04742e-05" stroke="#2BFFE8"/>
<path d="M1565.39 23.9204H1563.93V14.8484H1561.25V13.8564C1562.91 13.8084 1563.76 13.5684 1564.4 12.3204H1565.39V23.9204Z" fill="#2BFFE8"/>
<path d="M1831 6.93018V2.04742e-05" stroke="#2BFFE8"/>
<path d="M1907 6.93018V2.04742e-05" stroke="#2BFFE8"/>
<path d="M1870.39 23.9204H1868.93V14.8484H1866.25V13.8564C1867.91 13.8084 1868.76 13.5684 1869.4 12.3204H1870.39V23.9204Z" fill="#2BFFE8"/>
<path d="M1679 6.93018V2.04742e-05" stroke="#2BFFE8"/>
<path d="M1755 6.93018V2.04742e-05" stroke="#2BFFE8"/>
<path d="M1718.39 23.9204H1716.93V14.8484H1714.25V13.8564C1715.91 13.8084 1716.76 13.5684 1717.4 12.3204H1718.39V23.9204Z" fill="#2BFFE8"/>
</svg>
