<svg width="1908" height="32" viewBox="0 0 1908 32" fill="none" xmlns="http://www.w3.org/2000/svg">
<path d="M1 32.0001V25.0699" stroke="#2BFFE8"/>
<path d="M77 32.0001V25.0699" stroke="#2BFFE8"/>
<path d="M40.3907 16.3194H38.9347V7.2474H36.2467V6.2554C37.9107 6.2074 38.7587 5.9674 39.3987 4.7194H40.3907V16.3194Z" fill="#2BFFE8"/>
<path d="M152 32.0001V25.0699" stroke="#2BFFE8"/>
<path d="M230 32.0001V25.0699" stroke="#2BFFE8"/>
<path d="M192.391 16.3194H190.935V7.2474H188.247V6.2554C189.911 6.2074 190.759 5.9674 191.399 4.7194H192.391V16.3194Z" fill="#2BFFE8"/>
<path d="M306 32.0001V25.0699" stroke="#2BFFE8"/>
<path d="M382 32.0001V25.0699" stroke="#2BFFE8"/>
<path d="M345.391 16.3194H343.935V7.2474H341.247V6.2554C342.911 6.2074 343.759 5.9674 344.399 4.7194H345.391V16.3194Z" fill="#2BFFE8"/>
<path d="M459 32.0001V25.0699" stroke="#2BFFE8"/>
<path d="M535 32.0001V25.0699" stroke="#2BFFE8"/>
<path d="M498.391 16.3194H496.935V7.2474H494.247V6.2554C495.911 6.2074 496.759 5.9674 497.399 4.7194H498.391V16.3194Z" fill="#2BFFE8"/>
<path d="M613 32.0001V25.0699" stroke="#2BFFE8"/>
<path d="M687 32.0001V25.0699" stroke="#2BFFE8"/>
<path d="M651.391 16.3194H649.935V7.2474H647.247V6.2554C648.911 6.2074 649.759 5.9674 650.399 4.7194H651.391V16.3194Z" fill="#2BFFE8"/>
<path d="M764 32.0001V25.0699" stroke="#2BFFE8"/>
<path d="M840 32.0001V25.0699" stroke="#2BFFE8"/>
<path d="M803.391 16.3194H801.935V7.2474H799.247V6.2554C800.911 6.2074 801.759 5.9674 802.399 4.7194H803.391V16.3194Z" fill="#2BFFE8"/>
<path d="M916 32.0001V25.0699" stroke="#2BFFE8"/>
<path d="M992 32.0001V25.0699" stroke="#2BFFE8"/>
<path d="M955.391 16.3194H953.935V7.2474H951.247V6.2554C952.911 6.2074 953.759 5.9674 954.399 4.7194H955.391V16.3194Z" fill="#2BFFE8"/>
<path d="M1067 32.0001V25.0699" stroke="#2BFFE8"/>
<path d="M1145 32.0001V25.0699" stroke="#2BFFE8"/>
<path d="M1107.39 16.3194H1105.93V7.2474H1103.25V6.2554C1104.91 6.2074 1105.76 5.9674 1106.4 4.7194H1107.39V16.3194Z" fill="#2BFFE8"/>
<path d="M1221 32.0001V25.0699" stroke="#2BFFE8"/>
<path d="M1297 32.0001V25.0699" stroke="#2BFFE8"/>
<path d="M1260.39 16.3194H1258.93V7.2474H1256.25V6.2554C1257.91 6.2074 1258.76 5.9674 1259.4 4.7194H1260.39V16.3194Z" fill="#2BFFE8"/>
<path d="M1374 32.0001V25.0699" stroke="#2BFFE8"/>
<path d="M1450 32.0001V25.0699" stroke="#2BFFE8"/>
<path d="M1413.39 16.3194H1411.93V7.2474H1409.25V6.2554C1410.91 6.2074 1411.76 5.9674 1412.4 4.7194H1413.39V16.3194Z" fill="#2BFFE8"/>
<path d="M1526 32.0001V25.0699" stroke="#2BFFE8"/>
<path d="M1602 32.0001V25.0699" stroke="#2BFFE8"/>
<path d="M1565.39 16.3194H1563.93V7.2474H1561.25V6.2554C1562.91 6.2074 1563.76 5.9674 1564.4 4.7194H1565.39V16.3194Z" fill="#2BFFE8"/>
<path d="M1679 32.0001V25.0699" stroke="#2BFFE8"/>
<path d="M1755 32.0001V25.0699" stroke="#2BFFE8"/>
<path d="M1718.39 16.3194H1716.93V7.2474H1714.25V6.2554C1715.91 6.2074 1716.76 5.9674 1717.4 4.7194H1718.39V16.3194Z" fill="#2BFFE8"/>
<path d="M1831 32.0001V25.0699" stroke="#2BFFE8"/>
<path d="M1907 32.0001V25.0699" stroke="#2BFFE8"/>
<path d="M1870.39 16.3194H1868.93V7.2474H1866.25V6.2554C1867.91 6.2074 1868.76 5.9674 1869.4 4.7194H1870.39V16.3194Z" fill="#2BFFE8"/>
</svg>
