<svg width="1913" height="1072" viewBox="0 0 1913 1072" fill="none" xmlns="http://www.w3.org/2000/svg">
<path opacity="0.4" d="M1045.48 250.19L1045.47 249.913L1045.48 250.19ZM1897.57 145.706L1897.78 145.887L1897.57 145.706ZM17.6532 145.969L17.861 145.786L17.6532 145.969ZM1899.12 122.249L1899.35 122.086L1899.12 122.249ZM869.981 0.0725949H15.9686V0.626136H869.981V0.0725949ZM16.317 122.112C21.534 115.142 31.7064 108.316 46.4474 101.705C61.1796 95.099 80.4398 88.7227 103.792 82.6332C150.496 70.4543 213.539 59.4297 289.398 49.9999C441.113 31.1407 644.062 18.664 870.023 16.0838L870.017 15.5303C644.041 18.1107 441.071 30.5881 289.329 49.4506C213.459 58.8818 150.39 69.91 103.652 82.0975C80.2843 88.1912 60.9917 94.5766 46.2209 101.2C31.459 107.82 21.1782 114.693 15.8739 121.781L16.317 122.112ZM3.72323 12.3179V118.689H4.27677V12.3179H3.72323ZM15.9686 0.0725949C9.20567 0.0725949 3.72323 5.55502 3.72323 12.3179H4.27677C4.27677 5.86073 9.51138 0.626136 15.9686 0.626136V0.0725949ZM3.72323 150.369V254.682H4.27677V150.369H3.72323ZM3.72323 254.682C3.72323 261.445 9.20574 266.928 15.9687 266.928V266.374C9.51144 266.374 4.27677 261.139 4.27677 254.682H3.72323ZM15.9687 266.928H869.48V266.374H15.9687V266.928ZM869.525 249.913C646.249 247.349 445.468 235.121 294.422 216.623C218.898 207.373 155.815 196.556 108.573 184.598C84.9523 178.618 65.298 172.355 50.032 165.862C34.7587 159.366 23.9069 152.652 17.861 145.786L17.4455 146.152C23.5752 153.113 34.5208 159.867 49.8153 166.372C65.1171 172.88 84.8012 179.151 108.438 185.134C155.711 197.101 218.82 207.921 294.355 217.172C445.426 235.674 646.228 247.902 869.519 250.467L869.525 249.913ZM1045.48 250.467C1269.12 247.898 1470.21 235.635 1621.36 217.084C1696.94 207.809 1760.03 196.96 1807.23 184.964C1830.83 178.966 1850.46 172.679 1865.69 166.155C1880.91 159.635 1891.77 152.865 1897.78 145.887L1897.36 145.526C1891.43 152.406 1880.67 159.135 1865.47 165.646C1850.28 172.155 1830.68 178.433 1807.1 184.427C1759.93 196.416 1696.86 207.261 1621.29 216.535C1470.17 235.083 1269.1 247.345 1045.47 249.913L1045.48 250.467ZM1898.03 266.374H1045.52V266.928H1898.03V266.374ZM1909.72 254.682C1909.72 261.139 1904.49 266.374 1898.03 266.374V266.928C1904.79 266.928 1910.28 261.445 1910.28 254.682H1909.72ZM1909.72 149.718V254.682H1910.28V149.718H1909.72ZM1909.72 12.318V119.313H1910.28V12.318H1909.72ZM1898.03 0.626136C1904.49 0.626136 1909.72 5.86075 1909.72 12.318H1910.28C1910.28 5.55503 1904.79 0.0725949 1898.03 0.0725949V0.626136ZM1045.02 0.626136H1898.03V0.0725949H1045.02V0.626136ZM1899.35 122.086C1894.18 114.979 1884 108.087 1869.33 101.45C1854.65 94.8079 1835.42 88.4049 1812.1 82.2941C1765.45 70.0722 1702.4 59.0115 1626.48 49.552C1474.65 30.6328 1271.36 18.1153 1044.98 15.5303L1044.97 16.0838C1271.34 18.6686 1474.61 31.1854 1626.41 50.1013C1702.32 59.5594 1765.34 70.6164 1811.96 82.8295C1835.26 88.9362 1854.46 95.33 1869.1 101.954C1883.76 108.582 1893.82 115.425 1898.9 122.411L1899.35 122.086ZM1037.01 8.07625C1037.01 12.4661 1040.59 16.0337 1044.97 16.0838L1044.98 15.5303C1040.89 15.4837 1037.57 12.1586 1037.57 8.07625H1037.01ZM1045.02 0.0725949C1040.6 0.0725949 1037.01 3.65595 1037.01 8.07625H1037.57C1037.57 3.96166 1040.9 0.626136 1045.02 0.626136V0.0725949ZM1909.72 119.313C1909.72 122.313 1907.29 124.745 1904.29 124.745V125.299C1907.6 125.299 1910.28 122.619 1910.28 119.313H1909.72ZM1910.28 149.718C1910.28 145.841 1907.13 142.698 1903.26 142.698V143.252C1906.83 143.252 1909.72 146.147 1909.72 149.718H1910.28ZM1045.47 249.913C1040.81 249.967 1037.01 253.758 1037.01 258.423H1037.57C1037.57 254.065 1041.12 250.517 1045.48 250.467L1045.47 249.913ZM877.985 258.423C877.985 253.758 874.186 249.967 869.525 249.913L869.519 250.467C873.88 250.517 877.431 254.065 877.431 258.423H877.985ZM869.48 266.928C874.177 266.928 877.985 263.12 877.985 258.423H877.431C877.431 262.814 873.871 266.374 869.48 266.374V266.928ZM4.27677 150.369C4.27677 146.438 7.46324 143.252 11.394 143.252V142.698C7.15753 142.698 3.72323 146.133 3.72323 150.369H4.27677ZM10.3331 124.745C6.98828 124.745 4.27677 122.034 4.27677 118.689H3.72323C3.72323 122.34 6.68256 125.299 10.3331 125.299V124.745ZM1037.01 258.423C1037.01 263.12 1040.82 266.928 1045.52 266.928V266.374C1041.13 266.374 1037.57 262.814 1037.57 258.423H1037.01ZM15.8739 121.781C14.5196 123.59 12.5615 124.745 10.3331 124.745V125.299C12.7664 125.299 14.878 124.035 16.317 122.112L15.8739 121.781ZM1897.78 145.887C1899.2 144.241 1901.11 143.252 1903.26 143.252V142.698C1900.92 142.698 1898.87 143.775 1897.36 145.526L1897.78 145.887ZM877.431 8.07626C877.431 12.1586 874.103 15.4837 870.017 15.5303L870.023 16.0838C874.408 16.0338 877.985 12.4661 877.985 8.07626H877.431ZM17.861 145.786C16.1925 143.891 13.9446 142.698 11.394 142.698V143.252C13.7605 143.252 15.8644 144.356 17.4455 146.152L17.861 145.786ZM1898.9 122.411C1900.18 124.171 1902.09 125.299 1904.29 125.299V124.745C1902.29 124.745 1900.54 123.724 1899.35 122.086L1898.9 122.411ZM869.981 0.626136C874.096 0.626136 877.431 3.96167 877.431 8.07626H877.985C877.985 3.65595 874.401 0.0725949 869.981 0.0725949V0.626136Z" fill="#2BFFE8"/>
<path opacity="0.4" d="M1903.56 681.994L1903.29 681.974L1903.56 681.994ZM1903.4 655.983L1903.68 655.959L1903.4 655.983ZM13 267.277H870.217V266.723H13V267.277ZM1.2775 279C1.2775 272.526 6.52584 267.277 13 267.277V266.723C6.21933 266.723 0.722504 272.219 0.722504 279H1.2775ZM1.2775 656.237V279H0.722504V656.237H1.2775ZM870.402 280.295C634.012 289.019 422.592 333.529 268.22 400.604C191.035 434.141 128.1 473.325 83.4363 516.508C38.7728 559.691 12.3677 606.887 8.2807 656.443L8.83382 656.489C12.9064 607.107 39.2219 560.029 83.8221 516.907C128.423 473.785 191.295 434.633 268.442 401.113C422.735 334.072 634.083 289.572 870.423 280.849L870.402 280.295ZM8.12587 681.527C11.8222 734.275 40.8021 784.383 90.1892 829.863C139.576 875.343 209.388 916.213 294.795 950.494C465.61 1019.06 698.856 1061.28 956 1061.28V1060.72C698.91 1060.72 465.737 1018.51 295.002 949.979C209.634 915.714 139.887 874.875 90.5652 829.455C41.2432 784.034 12.3628 734.05 8.67951 681.488L8.12587 681.527ZM956 1061.28C1212.95 1061.28 1446.03 1019.12 1616.81 950.653C1702.2 916.419 1772.02 875.602 1821.47 830.178C1870.91 784.754 1899.99 734.706 1903.84 682.014L1903.29 681.974C1899.45 734.479 1870.47 784.405 1821.09 829.77C1771.71 875.134 1701.95 915.919 1616.6 950.137C1445.9 1018.57 1212.89 1060.72 956 1060.72V1061.28ZM1911.72 682.197V1059H1912.28V682.197H1911.72ZM1911.72 1059C1911.72 1065.47 1906.47 1070.72 1900 1070.72V1071.28C1906.78 1071.28 1912.28 1065.78 1912.28 1059H1911.72ZM1900 1070.72H13V1071.28H1900V1070.72ZM13 1070.72C6.52579 1070.72 1.2775 1065.47 1.2775 1059H0.722504C0.722504 1065.78 6.21928 1071.28 13 1071.28V1070.72ZM1.2775 1059V681.685H0.722504V1059H1.2775ZM1903.68 655.959C1899.46 606.53 1873.03 559.455 1828.43 516.377C1783.83 473.299 1721.04 434.204 1644.07 400.728C1490.11 333.776 1279.34 289.28 1043.63 280.371L1043.61 280.925C1279.27 289.833 1489.97 334.319 1643.84 401.237C1720.78 434.696 1783.51 473.759 1828.04 516.776C1872.58 559.793 1898.92 606.751 1903.13 656.007L1903.68 655.959ZM1043.82 267.277H1900V266.723H1043.82V267.277ZM1900 267.277C1906.47 267.277 1911.72 272.526 1911.72 279H1912.28C1912.28 272.219 1906.78 266.723 1900 266.723V267.277ZM1911.72 279V655.722H1912.28V279H1911.72ZM1037.28 273.821C1037.28 270.207 1040.21 267.277 1043.82 267.277V266.723C1039.9 266.723 1036.72 269.9 1036.72 273.821H1037.28ZM1.2775 681.685C1.2775 679.803 2.80296 678.277 4.68471 678.277V677.723C2.49644 677.723 0.722504 679.496 0.722504 681.685H1.2775ZM1907.8 678.277C1909.97 678.277 1911.72 680.032 1911.72 682.197H1912.28C1912.28 679.726 1910.27 677.723 1907.8 677.723V678.277ZM1903.84 682.014C1903.99 679.922 1905.71 678.277 1907.8 678.277V677.723C1905.41 677.723 1903.46 679.601 1903.29 681.974L1903.84 682.014ZM1907.72 659.723C1905.61 659.723 1903.86 658.074 1903.68 655.959L1903.13 656.007C1903.33 658.399 1905.31 660.277 1907.72 660.277V659.723ZM0.722504 656.237C0.722504 658.468 2.53151 660.277 4.76304 660.277V659.723C2.83803 659.723 1.2775 658.162 1.2775 656.237H0.722504ZM1043.63 280.371C1040.1 280.237 1037.28 277.343 1037.28 273.821H1036.72C1036.72 277.646 1039.79 280.781 1043.61 280.925L1043.63 280.371ZM8.67951 681.488C8.53222 679.386 6.79992 677.723 4.68471 677.723V678.277C6.50028 678.277 7.99838 679.707 8.12587 681.527L8.67951 681.488ZM876.723 273.783C876.723 277.287 873.909 280.165 870.402 280.295L870.423 280.849C874.223 280.709 877.277 277.59 877.277 273.783H876.723ZM1907.72 660.277C1910.24 660.277 1912.28 658.238 1912.28 655.722H1911.72C1911.72 657.931 1909.93 659.723 1907.72 659.723V660.277ZM4.76304 660.277C6.90087 660.277 8.65875 658.612 8.83382 656.489L8.2807 656.443C8.12872 658.286 6.60418 659.723 4.76304 659.723V660.277ZM877.277 273.783C877.277 269.883 874.117 266.723 870.217 266.723V267.277C873.81 267.277 876.723 270.19 876.723 273.783H877.277Z" fill="#2BFFE8"/>
</svg>
