<svg width="1908" height="32" viewBox="0 0 1908 32" fill="none" xmlns="http://www.w3.org/2000/svg">
<path d="M1 32V25.0698" stroke="#2BFFE8"/>
<path d="M77 32V25.0698" stroke="#2BFFE8"/>
<path d="M40.3907 16.3193H38.9347V7.24734H36.2467V6.25534C37.9107 6.20734 38.7587 5.96734 39.3987 4.71934H40.3907V16.3193Z" fill="#2BFFE8"/>
<path d="M152 32V25.0698" stroke="#2BFFE8"/>
<path d="M230 32V25.0698" stroke="#2BFFE8"/>
<path d="M192.391 16.3193H190.935V7.24734H188.247V6.25534C189.911 6.20734 190.759 5.96734 191.399 4.71934H192.391V16.3193Z" fill="#2BFFE8"/>
<path d="M306 32V25.0698" stroke="#2BFFE8"/>
<path d="M382 32V25.0698" stroke="#2BFFE8"/>
<path d="M345.391 16.3193H343.935V7.24734H341.247V6.25534C342.911 6.20734 343.759 5.96734 344.399 4.71934H345.391V16.3193Z" fill="#2BFFE8"/>
<path d="M459 32V25.0698" stroke="#2BFFE8"/>
<path d="M535 32V25.0698" stroke="#2BFFE8"/>
<path d="M498.391 16.3193H496.935V7.24734H494.247V6.25534C495.911 6.20734 496.759 5.96734 497.399 4.71934H498.391V16.3193Z" fill="#2BFFE8"/>
<path d="M613 32V25.0698" stroke="#2BFFE8"/>
<path d="M687 32V25.0698" stroke="#2BFFE8"/>
<path d="M651.391 16.3193H649.935V7.24734H647.247V6.25534C648.911 6.20734 649.759 5.96734 650.399 4.71934H651.391V16.3193Z" fill="#2BFFE8"/>
<path d="M764 32V25.0698" stroke="#2BFFE8"/>
<path d="M840 32V25.0698" stroke="#2BFFE8"/>
<path d="M803.391 16.3193H801.935V7.24734H799.247V6.25534C800.911 6.20734 801.759 5.96734 802.399 4.71934H803.391V16.3193Z" fill="#2BFFE8"/>
<path d="M916 32V25.0698" stroke="#2BFFE8"/>
<path d="M992 32V25.0698" stroke="#2BFFE8"/>
<path d="M955.391 16.3193H953.935V7.24734H951.247V6.25534C952.911 6.20734 953.759 5.96734 954.399 4.71934H955.391V16.3193Z" fill="#2BFFE8"/>
<path d="M1067 32V25.0698" stroke="#2BFFE8"/>
<path d="M1145 32V25.0698" stroke="#2BFFE8"/>
<path d="M1107.39 16.3193H1105.93V7.24734H1103.25V6.25534C1104.91 6.20734 1105.76 5.96734 1106.4 4.71934H1107.39V16.3193Z" fill="#2BFFE8"/>
<path d="M1221 32V25.0698" stroke="#2BFFE8"/>
<path d="M1297 32V25.0698" stroke="#2BFFE8"/>
<path d="M1260.39 16.3193H1258.93V7.24734H1256.25V6.25534C1257.91 6.20734 1258.76 5.96734 1259.4 4.71934H1260.39V16.3193Z" fill="#2BFFE8"/>
<path d="M1374 32V25.0698" stroke="#2BFFE8"/>
<path d="M1450 32V25.0698" stroke="#2BFFE8"/>
<path d="M1413.39 16.3193H1411.93V7.24734H1409.25V6.25534C1410.91 6.20734 1411.76 5.96734 1412.4 4.71934H1413.39V16.3193Z" fill="#2BFFE8"/>
<path d="M1526 32V25.0698" stroke="#2BFFE8"/>
<path d="M1602 32V25.0698" stroke="#2BFFE8"/>
<path d="M1565.39 16.3193H1563.93V7.24734H1561.25V6.25534C1562.91 6.20734 1563.76 5.96734 1564.4 4.71934H1565.39V16.3193Z" fill="#2BFFE8"/>
<path d="M1679 32V25.0698" stroke="#2BFFE8"/>
<path d="M1755 32V25.0698" stroke="#2BFFE8"/>
<path d="M1718.39 16.3193H1716.93V7.24734H1714.25V6.25534C1715.91 6.20734 1716.76 5.96734 1717.4 4.71934H1718.39V16.3193Z" fill="#2BFFE8"/>
<path d="M1831 32V25.0698" stroke="#2BFFE8"/>
<path d="M1907 32V25.0698" stroke="#2BFFE8"/>
<path d="M1870.39 16.3193H1868.93V7.24734H1866.25V6.25534C1867.91 6.20734 1868.76 5.96734 1869.4 4.71934H1870.39V16.3193Z" fill="#2BFFE8"/>
</svg>
