<svg width="473" height="969" viewBox="0 0 473 969" fill="none" xmlns="http://www.w3.org/2000/svg">
<g opacity="0.4">
<line x1="21.5" y1="22.8853" x2="30.3799" y2="22.8853" stroke="#2BFFE8" stroke-width="0.554993"/>
<line x1="25.8607" y1="18.5" x2="25.8607" y2="27.3799" stroke="#2BFFE8" stroke-width="0.554993"/>
<line x1="21.5" y1="80.5804" x2="30.3799" y2="80.5804" stroke="#2BFFE8" stroke-width="0.554993"/>
<line x1="25.8607" y1="76.1951" x2="25.8607" y2="85.075" stroke="#2BFFE8" stroke-width="0.554993"/>
<line x1="21.5" y1="138.275" x2="30.3799" y2="138.275" stroke="#2BFFE8" stroke-width="0.554993"/>
<line x1="25.8607" y1="133.89" x2="25.8607" y2="142.77" stroke="#2BFFE8" stroke-width="0.554993"/>
<line x1="21.5" y1="195.97" x2="30.3799" y2="195.97" stroke="#2BFFE8" stroke-width="0.554993"/>
<line x1="25.8607" y1="191.585" x2="25.8607" y2="200.465" stroke="#2BFFE8" stroke-width="0.554993"/>
<line x1="21.5" y1="253.665" x2="30.3799" y2="253.665" stroke="#2BFFE8" stroke-width="0.554993"/>
<line x1="25.8607" y1="249.28" x2="25.8607" y2="258.16" stroke="#2BFFE8" stroke-width="0.554993"/>
<line x1="21.5" y1="311.36" x2="30.3799" y2="311.36" stroke="#2BFFE8" stroke-width="0.554993"/>
<line x1="25.8607" y1="306.975" x2="25.8607" y2="315.855" stroke="#2BFFE8" stroke-width="0.554993"/>
<line x1="21.5" y1="369.055" x2="30.3799" y2="369.055" stroke="#2BFFE8" stroke-width="0.554993"/>
<line x1="25.8607" y1="364.67" x2="25.8607" y2="373.55" stroke="#2BFFE8" stroke-width="0.554993"/>
<line x1="21.5" y1="426.75" x2="30.3799" y2="426.75" stroke="#2BFFE8" stroke-width="0.554993"/>
<line x1="25.8607" y1="422.365" x2="25.8607" y2="431.245" stroke="#2BFFE8" stroke-width="0.554993"/>
<line x1="21.5" y1="484.445" x2="30.3799" y2="484.445" stroke="#2BFFE8" stroke-width="0.554993"/>
<line x1="25.8607" y1="480.06" x2="25.8607" y2="488.94" stroke="#2BFFE8" stroke-width="0.554993"/>
<line x1="21.5" y1="542.14" x2="30.3799" y2="542.141" stroke="#2BFFE8" stroke-width="0.554993"/>
<line x1="25.8607" y1="537.755" x2="25.8607" y2="546.635" stroke="#2BFFE8" stroke-width="0.554993"/>
<line x1="21.5" y1="599.836" x2="30.3799" y2="599.836" stroke="#2BFFE8" stroke-width="0.554993"/>
<line x1="25.8607" y1="595.45" x2="25.8607" y2="604.33" stroke="#2BFFE8" stroke-width="0.554993"/>
<line x1="21.5" y1="657.531" x2="30.3799" y2="657.531" stroke="#2BFFE8" stroke-width="0.554993"/>
<line x1="25.8607" y1="653.145" x2="25.8607" y2="662.025" stroke="#2BFFE8" stroke-width="0.554993"/>
<line x1="21.5" y1="715.225" x2="30.3799" y2="715.225" stroke="#2BFFE8" stroke-width="0.554993"/>
<line x1="25.8607" y1="710.84" x2="25.8607" y2="719.72" stroke="#2BFFE8" stroke-width="0.554993"/>
<line x1="21.5" y1="772.921" x2="30.3799" y2="772.921" stroke="#2BFFE8" stroke-width="0.554993"/>
<line x1="25.8607" y1="768.535" x2="25.8607" y2="777.415" stroke="#2BFFE8" stroke-width="0.554993"/>
<line x1="21.5" y1="830.616" x2="30.3799" y2="830.616" stroke="#2BFFE8" stroke-width="0.554993"/>
<line x1="25.8607" y1="826.23" x2="25.8607" y2="835.11" stroke="#2BFFE8" stroke-width="0.554993"/>
<line x1="21.5" y1="888.311" x2="30.3799" y2="888.311" stroke="#2BFFE8" stroke-width="0.554993"/>
<line x1="25.8607" y1="883.925" x2="25.8607" y2="892.805" stroke="#2BFFE8" stroke-width="0.554993"/>
<line x1="21.5" y1="946.006" x2="30.3799" y2="946.006" stroke="#2BFFE8" stroke-width="0.554993"/>
<line x1="25.8607" y1="941.62" x2="25.8607" y2="950.5" stroke="#2BFFE8" stroke-width="0.554993"/>
<line x1="68.2778" y1="22.8853" x2="77.1577" y2="22.8853" stroke="#2BFFE8" stroke-width="0.554993"/>
<line x1="72.6385" y1="18.5" x2="72.6385" y2="27.3799" stroke="#2BFFE8" stroke-width="0.554993"/>
<line x1="68.2778" y1="80.5804" x2="77.1577" y2="80.5804" stroke="#2BFFE8" stroke-width="0.554993"/>
<line x1="72.6385" y1="76.1951" x2="72.6385" y2="85.075" stroke="#2BFFE8" stroke-width="0.554993"/>
<line x1="68.2778" y1="138.275" x2="77.1577" y2="138.275" stroke="#2BFFE8" stroke-width="0.554993"/>
<line x1="72.6385" y1="133.89" x2="72.6385" y2="142.77" stroke="#2BFFE8" stroke-width="0.554993"/>
<line x1="68.2778" y1="195.97" x2="77.1577" y2="195.97" stroke="#2BFFE8" stroke-width="0.554993"/>
<line x1="72.6385" y1="191.585" x2="72.6385" y2="200.465" stroke="#2BFFE8" stroke-width="0.554993"/>
<line x1="68.2778" y1="253.665" x2="77.1577" y2="253.665" stroke="#2BFFE8" stroke-width="0.554993"/>
<line x1="72.6385" y1="249.28" x2="72.6385" y2="258.16" stroke="#2BFFE8" stroke-width="0.554993"/>
<line x1="68.2778" y1="311.36" x2="77.1577" y2="311.36" stroke="#2BFFE8" stroke-width="0.554993"/>
<line x1="72.6385" y1="306.975" x2="72.6385" y2="315.855" stroke="#2BFFE8" stroke-width="0.554993"/>
<line x1="68.2778" y1="369.055" x2="77.1577" y2="369.055" stroke="#2BFFE8" stroke-width="0.554993"/>
<line x1="72.6385" y1="364.67" x2="72.6385" y2="373.55" stroke="#2BFFE8" stroke-width="0.554993"/>
<line x1="68.2778" y1="426.75" x2="77.1577" y2="426.75" stroke="#2BFFE8" stroke-width="0.554993"/>
<line x1="72.6385" y1="422.365" x2="72.6385" y2="431.245" stroke="#2BFFE8" stroke-width="0.554993"/>
<line x1="68.2778" y1="484.445" x2="77.1577" y2="484.445" stroke="#2BFFE8" stroke-width="0.554993"/>
<line x1="72.6385" y1="480.06" x2="72.6385" y2="488.94" stroke="#2BFFE8" stroke-width="0.554993"/>
<line x1="68.2778" y1="542.14" x2="77.1577" y2="542.141" stroke="#2BFFE8" stroke-width="0.554993"/>
<line x1="72.6385" y1="537.755" x2="72.6385" y2="546.635" stroke="#2BFFE8" stroke-width="0.554993"/>
<line x1="68.2778" y1="599.836" x2="77.1577" y2="599.836" stroke="#2BFFE8" stroke-width="0.554993"/>
<line x1="72.6385" y1="595.45" x2="72.6385" y2="604.33" stroke="#2BFFE8" stroke-width="0.554993"/>
<line x1="68.2778" y1="657.531" x2="77.1577" y2="657.531" stroke="#2BFFE8" stroke-width="0.554993"/>
<line x1="72.6385" y1="653.145" x2="72.6385" y2="662.025" stroke="#2BFFE8" stroke-width="0.554993"/>
<line x1="68.2778" y1="715.225" x2="77.1577" y2="715.225" stroke="#2BFFE8" stroke-width="0.554993"/>
<line x1="72.6385" y1="710.84" x2="72.6385" y2="719.72" stroke="#2BFFE8" stroke-width="0.554993"/>
<line x1="68.2778" y1="772.921" x2="77.1577" y2="772.921" stroke="#2BFFE8" stroke-width="0.554993"/>
<line x1="72.6385" y1="768.535" x2="72.6385" y2="777.415" stroke="#2BFFE8" stroke-width="0.554993"/>
<line x1="68.2778" y1="830.616" x2="77.1577" y2="830.616" stroke="#2BFFE8" stroke-width="0.554993"/>
<line x1="72.6385" y1="826.23" x2="72.6385" y2="835.11" stroke="#2BFFE8" stroke-width="0.554993"/>
<line x1="68.2778" y1="888.311" x2="77.1577" y2="888.311" stroke="#2BFFE8" stroke-width="0.554993"/>
<line x1="72.6385" y1="883.925" x2="72.6385" y2="892.805" stroke="#2BFFE8" stroke-width="0.554993"/>
<line x1="68.2778" y1="946.006" x2="77.1577" y2="946.006" stroke="#2BFFE8" stroke-width="0.554993"/>
<line x1="72.6385" y1="941.62" x2="72.6385" y2="950.5" stroke="#2BFFE8" stroke-width="0.554993"/>
<line x1="115.056" y1="22.8853" x2="123.935" y2="22.8853" stroke="#2BFFE8" stroke-width="0.554993"/>
<line x1="119.416" y1="18.5" x2="119.416" y2="27.3799" stroke="#2BFFE8" stroke-width="0.554993"/>
<line x1="115.056" y1="80.5804" x2="123.935" y2="80.5804" stroke="#2BFFE8" stroke-width="0.554993"/>
<line x1="119.416" y1="76.1951" x2="119.416" y2="85.075" stroke="#2BFFE8" stroke-width="0.554993"/>
<line x1="115.056" y1="138.275" x2="123.935" y2="138.275" stroke="#2BFFE8" stroke-width="0.554993"/>
<line x1="119.416" y1="133.89" x2="119.416" y2="142.77" stroke="#2BFFE8" stroke-width="0.554993"/>
<line x1="115.056" y1="195.97" x2="123.935" y2="195.97" stroke="#2BFFE8" stroke-width="0.554993"/>
<line x1="119.416" y1="191.585" x2="119.416" y2="200.465" stroke="#2BFFE8" stroke-width="0.554993"/>
<line x1="115.056" y1="253.665" x2="123.935" y2="253.665" stroke="#2BFFE8" stroke-width="0.554993"/>
<line x1="119.416" y1="249.28" x2="119.416" y2="258.16" stroke="#2BFFE8" stroke-width="0.554993"/>
<line x1="115.056" y1="311.36" x2="123.935" y2="311.36" stroke="#2BFFE8" stroke-width="0.554993"/>
<line x1="119.416" y1="306.975" x2="119.416" y2="315.855" stroke="#2BFFE8" stroke-width="0.554993"/>
<line x1="115.056" y1="369.055" x2="123.935" y2="369.055" stroke="#2BFFE8" stroke-width="0.554993"/>
<line x1="119.416" y1="364.67" x2="119.416" y2="373.55" stroke="#2BFFE8" stroke-width="0.554993"/>
<line x1="115.056" y1="426.75" x2="123.935" y2="426.75" stroke="#2BFFE8" stroke-width="0.554993"/>
<line x1="119.416" y1="422.365" x2="119.416" y2="431.245" stroke="#2BFFE8" stroke-width="0.554993"/>
<line x1="115.056" y1="484.445" x2="123.935" y2="484.445" stroke="#2BFFE8" stroke-width="0.554993"/>
<line x1="119.416" y1="480.06" x2="119.416" y2="488.94" stroke="#2BFFE8" stroke-width="0.554993"/>
<line x1="115.056" y1="542.14" x2="123.935" y2="542.141" stroke="#2BFFE8" stroke-width="0.554993"/>
<line x1="119.416" y1="537.755" x2="119.416" y2="546.635" stroke="#2BFFE8" stroke-width="0.554993"/>
<line x1="115.056" y1="599.836" x2="123.935" y2="599.836" stroke="#2BFFE8" stroke-width="0.554993"/>
<line x1="119.416" y1="595.45" x2="119.416" y2="604.33" stroke="#2BFFE8" stroke-width="0.554993"/>
<line x1="115.056" y1="657.531" x2="123.935" y2="657.531" stroke="#2BFFE8" stroke-width="0.554993"/>
<line x1="119.416" y1="653.145" x2="119.416" y2="662.025" stroke="#2BFFE8" stroke-width="0.554993"/>
<line x1="115.056" y1="715.225" x2="123.935" y2="715.225" stroke="#2BFFE8" stroke-width="0.554993"/>
<line x1="119.416" y1="710.84" x2="119.416" y2="719.72" stroke="#2BFFE8" stroke-width="0.554993"/>
<line x1="115.056" y1="772.921" x2="123.935" y2="772.921" stroke="#2BFFE8" stroke-width="0.554993"/>
<line x1="119.416" y1="768.535" x2="119.416" y2="777.415" stroke="#2BFFE8" stroke-width="0.554993"/>
<line x1="115.056" y1="830.616" x2="123.935" y2="830.616" stroke="#2BFFE8" stroke-width="0.554993"/>
<line x1="119.416" y1="826.23" x2="119.416" y2="835.11" stroke="#2BFFE8" stroke-width="0.554993"/>
<line x1="115.056" y1="888.311" x2="123.935" y2="888.311" stroke="#2BFFE8" stroke-width="0.554993"/>
<line x1="119.416" y1="883.925" x2="119.416" y2="892.805" stroke="#2BFFE8" stroke-width="0.554993"/>
<line x1="115.056" y1="946.006" x2="123.935" y2="946.006" stroke="#2BFFE8" stroke-width="0.554993"/>
<line x1="119.416" y1="941.62" x2="119.416" y2="950.5" stroke="#2BFFE8" stroke-width="0.554993"/>
<line x1="161.833" y1="22.8853" x2="170.713" y2="22.8853" stroke="#2BFFE8" stroke-width="0.554993"/>
<line x1="166.194" y1="18.5" x2="166.194" y2="27.3799" stroke="#2BFFE8" stroke-width="0.554993"/>
<line x1="161.833" y1="80.5804" x2="170.713" y2="80.5804" stroke="#2BFFE8" stroke-width="0.554993"/>
<line x1="166.194" y1="76.1951" x2="166.194" y2="85.075" stroke="#2BFFE8" stroke-width="0.554993"/>
<line x1="161.833" y1="138.275" x2="170.713" y2="138.275" stroke="#2BFFE8" stroke-width="0.554993"/>
<line x1="166.194" y1="133.89" x2="166.194" y2="142.77" stroke="#2BFFE8" stroke-width="0.554993"/>
<line x1="161.833" y1="195.97" x2="170.713" y2="195.97" stroke="#2BFFE8" stroke-width="0.554993"/>
<line x1="166.194" y1="191.585" x2="166.194" y2="200.465" stroke="#2BFFE8" stroke-width="0.554993"/>
<line x1="161.833" y1="253.665" x2="170.713" y2="253.665" stroke="#2BFFE8" stroke-width="0.554993"/>
<line x1="166.194" y1="249.28" x2="166.194" y2="258.16" stroke="#2BFFE8" stroke-width="0.554993"/>
<line x1="161.833" y1="311.36" x2="170.713" y2="311.36" stroke="#2BFFE8" stroke-width="0.554993"/>
<line x1="166.194" y1="306.975" x2="166.194" y2="315.855" stroke="#2BFFE8" stroke-width="0.554993"/>
<line x1="161.833" y1="369.055" x2="170.713" y2="369.055" stroke="#2BFFE8" stroke-width="0.554993"/>
<line x1="166.194" y1="364.67" x2="166.194" y2="373.55" stroke="#2BFFE8" stroke-width="0.554993"/>
<line x1="161.833" y1="426.75" x2="170.713" y2="426.75" stroke="#2BFFE8" stroke-width="0.554993"/>
<line x1="166.194" y1="422.365" x2="166.194" y2="431.245" stroke="#2BFFE8" stroke-width="0.554993"/>
<line x1="161.833" y1="484.445" x2="170.713" y2="484.445" stroke="#2BFFE8" stroke-width="0.554993"/>
<line x1="166.194" y1="480.06" x2="166.194" y2="488.94" stroke="#2BFFE8" stroke-width="0.554993"/>
<line x1="161.833" y1="542.14" x2="170.713" y2="542.141" stroke="#2BFFE8" stroke-width="0.554993"/>
<line x1="166.194" y1="537.755" x2="166.194" y2="546.635" stroke="#2BFFE8" stroke-width="0.554993"/>
<line x1="161.833" y1="599.836" x2="170.713" y2="599.836" stroke="#2BFFE8" stroke-width="0.554993"/>
<line x1="166.194" y1="595.45" x2="166.194" y2="604.33" stroke="#2BFFE8" stroke-width="0.554993"/>
<line x1="161.833" y1="657.531" x2="170.713" y2="657.531" stroke="#2BFFE8" stroke-width="0.554993"/>
<line x1="166.194" y1="653.145" x2="166.194" y2="662.025" stroke="#2BFFE8" stroke-width="0.554993"/>
<line x1="161.833" y1="715.225" x2="170.713" y2="715.225" stroke="#2BFFE8" stroke-width="0.554993"/>
<line x1="166.194" y1="710.84" x2="166.194" y2="719.72" stroke="#2BFFE8" stroke-width="0.554993"/>
<line x1="161.833" y1="772.921" x2="170.713" y2="772.921" stroke="#2BFFE8" stroke-width="0.554993"/>
<line x1="166.194" y1="768.535" x2="166.194" y2="777.415" stroke="#2BFFE8" stroke-width="0.554993"/>
<line x1="161.833" y1="830.616" x2="170.713" y2="830.616" stroke="#2BFFE8" stroke-width="0.554993"/>
<line x1="166.194" y1="826.23" x2="166.194" y2="835.11" stroke="#2BFFE8" stroke-width="0.554993"/>
<line x1="161.833" y1="888.311" x2="170.713" y2="888.311" stroke="#2BFFE8" stroke-width="0.554993"/>
<line x1="166.194" y1="883.925" x2="166.194" y2="892.805" stroke="#2BFFE8" stroke-width="0.554993"/>
<line x1="161.833" y1="946.006" x2="170.713" y2="946.006" stroke="#2BFFE8" stroke-width="0.554993"/>
<line x1="166.194" y1="941.62" x2="166.194" y2="950.5" stroke="#2BFFE8" stroke-width="0.554993"/>
<line x1="208.611" y1="22.8853" x2="217.491" y2="22.8853" stroke="#2BFFE8" stroke-width="0.554993"/>
<line x1="212.972" y1="18.5" x2="212.972" y2="27.3799" stroke="#2BFFE8" stroke-width="0.554993"/>
<line x1="208.611" y1="80.5804" x2="217.491" y2="80.5804" stroke="#2BFFE8" stroke-width="0.554993"/>
<line x1="212.972" y1="76.1951" x2="212.972" y2="85.075" stroke="#2BFFE8" stroke-width="0.554993"/>
<line x1="208.611" y1="138.275" x2="217.491" y2="138.275" stroke="#2BFFE8" stroke-width="0.554993"/>
<line x1="212.972" y1="133.89" x2="212.972" y2="142.77" stroke="#2BFFE8" stroke-width="0.554993"/>
<line x1="208.611" y1="195.97" x2="217.491" y2="195.97" stroke="#2BFFE8" stroke-width="0.554993"/>
<line x1="212.972" y1="191.585" x2="212.972" y2="200.465" stroke="#2BFFE8" stroke-width="0.554993"/>
<line x1="208.611" y1="253.665" x2="217.491" y2="253.665" stroke="#2BFFE8" stroke-width="0.554993"/>
<line x1="212.972" y1="249.28" x2="212.972" y2="258.16" stroke="#2BFFE8" stroke-width="0.554993"/>
<line x1="208.611" y1="311.36" x2="217.491" y2="311.36" stroke="#2BFFE8" stroke-width="0.554993"/>
<line x1="212.972" y1="306.975" x2="212.972" y2="315.855" stroke="#2BFFE8" stroke-width="0.554993"/>
<line x1="208.611" y1="369.055" x2="217.491" y2="369.055" stroke="#2BFFE8" stroke-width="0.554993"/>
<line x1="212.972" y1="364.67" x2="212.972" y2="373.55" stroke="#2BFFE8" stroke-width="0.554993"/>
<line x1="208.611" y1="426.75" x2="217.491" y2="426.75" stroke="#2BFFE8" stroke-width="0.554993"/>
<line x1="212.972" y1="422.365" x2="212.972" y2="431.245" stroke="#2BFFE8" stroke-width="0.554993"/>
<line x1="208.611" y1="484.445" x2="217.491" y2="484.445" stroke="#2BFFE8" stroke-width="0.554993"/>
<line x1="212.972" y1="480.06" x2="212.972" y2="488.94" stroke="#2BFFE8" stroke-width="0.554993"/>
<line x1="208.611" y1="542.14" x2="217.491" y2="542.141" stroke="#2BFFE8" stroke-width="0.554993"/>
<line x1="212.972" y1="537.755" x2="212.972" y2="546.635" stroke="#2BFFE8" stroke-width="0.554993"/>
<line x1="208.611" y1="599.836" x2="217.491" y2="599.836" stroke="#2BFFE8" stroke-width="0.554993"/>
<line x1="212.972" y1="595.45" x2="212.972" y2="604.33" stroke="#2BFFE8" stroke-width="0.554993"/>
<line x1="208.611" y1="657.531" x2="217.491" y2="657.531" stroke="#2BFFE8" stroke-width="0.554993"/>
<line x1="212.972" y1="653.145" x2="212.972" y2="662.025" stroke="#2BFFE8" stroke-width="0.554993"/>
<line x1="208.611" y1="715.225" x2="217.491" y2="715.225" stroke="#2BFFE8" stroke-width="0.554993"/>
<line x1="212.972" y1="710.84" x2="212.972" y2="719.72" stroke="#2BFFE8" stroke-width="0.554993"/>
<line x1="208.611" y1="772.921" x2="217.491" y2="772.921" stroke="#2BFFE8" stroke-width="0.554993"/>
<line x1="212.972" y1="768.535" x2="212.972" y2="777.415" stroke="#2BFFE8" stroke-width="0.554993"/>
<line x1="208.611" y1="830.616" x2="217.491" y2="830.616" stroke="#2BFFE8" stroke-width="0.554993"/>
<line x1="212.972" y1="826.23" x2="212.972" y2="835.11" stroke="#2BFFE8" stroke-width="0.554993"/>
<line x1="208.611" y1="888.311" x2="217.491" y2="888.311" stroke="#2BFFE8" stroke-width="0.554993"/>
<line x1="212.972" y1="883.925" x2="212.972" y2="892.805" stroke="#2BFFE8" stroke-width="0.554993"/>
<line x1="208.611" y1="946.006" x2="217.491" y2="946.006" stroke="#2BFFE8" stroke-width="0.554993"/>
<line x1="212.972" y1="941.62" x2="212.972" y2="950.5" stroke="#2BFFE8" stroke-width="0.554993"/>
<line x1="255.389" y1="22.8853" x2="264.269" y2="22.8853" stroke="#2BFFE8" stroke-width="0.554993"/>
<line x1="259.75" y1="18.5" x2="259.75" y2="27.3799" stroke="#2BFFE8" stroke-width="0.554993"/>
<line x1="255.389" y1="80.5804" x2="264.269" y2="80.5804" stroke="#2BFFE8" stroke-width="0.554993"/>
<line x1="259.75" y1="76.1951" x2="259.75" y2="85.075" stroke="#2BFFE8" stroke-width="0.554993"/>
<line x1="255.389" y1="138.275" x2="264.269" y2="138.275" stroke="#2BFFE8" stroke-width="0.554993"/>
<line x1="259.75" y1="133.89" x2="259.75" y2="142.77" stroke="#2BFFE8" stroke-width="0.554993"/>
<line x1="255.389" y1="195.97" x2="264.269" y2="195.97" stroke="#2BFFE8" stroke-width="0.554993"/>
<line x1="259.75" y1="191.585" x2="259.75" y2="200.465" stroke="#2BFFE8" stroke-width="0.554993"/>
<line x1="255.389" y1="253.665" x2="264.269" y2="253.665" stroke="#2BFFE8" stroke-width="0.554993"/>
<line x1="259.75" y1="249.28" x2="259.75" y2="258.16" stroke="#2BFFE8" stroke-width="0.554993"/>
<line x1="255.389" y1="311.36" x2="264.269" y2="311.36" stroke="#2BFFE8" stroke-width="0.554993"/>
<line x1="259.75" y1="306.975" x2="259.75" y2="315.855" stroke="#2BFFE8" stroke-width="0.554993"/>
<line x1="255.389" y1="369.055" x2="264.269" y2="369.055" stroke="#2BFFE8" stroke-width="0.554993"/>
<line x1="259.75" y1="364.67" x2="259.75" y2="373.55" stroke="#2BFFE8" stroke-width="0.554993"/>
<line x1="255.389" y1="426.75" x2="264.269" y2="426.75" stroke="#2BFFE8" stroke-width="0.554993"/>
<line x1="259.75" y1="422.365" x2="259.75" y2="431.245" stroke="#2BFFE8" stroke-width="0.554993"/>
<line x1="255.389" y1="484.445" x2="264.269" y2="484.445" stroke="#2BFFE8" stroke-width="0.554993"/>
<line x1="259.75" y1="480.06" x2="259.75" y2="488.94" stroke="#2BFFE8" stroke-width="0.554993"/>
<line x1="255.389" y1="542.14" x2="264.269" y2="542.141" stroke="#2BFFE8" stroke-width="0.554993"/>
<line x1="259.75" y1="537.755" x2="259.75" y2="546.635" stroke="#2BFFE8" stroke-width="0.554993"/>
<line x1="255.389" y1="599.836" x2="264.269" y2="599.836" stroke="#2BFFE8" stroke-width="0.554993"/>
<line x1="259.75" y1="595.45" x2="259.75" y2="604.33" stroke="#2BFFE8" stroke-width="0.554993"/>
<line x1="255.389" y1="657.531" x2="264.269" y2="657.531" stroke="#2BFFE8" stroke-width="0.554993"/>
<line x1="259.75" y1="653.145" x2="259.75" y2="662.025" stroke="#2BFFE8" stroke-width="0.554993"/>
<line x1="255.389" y1="715.225" x2="264.269" y2="715.225" stroke="#2BFFE8" stroke-width="0.554993"/>
<line x1="259.75" y1="710.84" x2="259.75" y2="719.72" stroke="#2BFFE8" stroke-width="0.554993"/>
<line x1="255.389" y1="772.921" x2="264.269" y2="772.921" stroke="#2BFFE8" stroke-width="0.554993"/>
<line x1="259.75" y1="768.535" x2="259.75" y2="777.415" stroke="#2BFFE8" stroke-width="0.554993"/>
<line x1="255.389" y1="830.616" x2="264.269" y2="830.616" stroke="#2BFFE8" stroke-width="0.554993"/>
<line x1="259.75" y1="826.23" x2="259.75" y2="835.11" stroke="#2BFFE8" stroke-width="0.554993"/>
<line x1="255.389" y1="888.311" x2="264.269" y2="888.311" stroke="#2BFFE8" stroke-width="0.554993"/>
<line x1="259.75" y1="883.925" x2="259.75" y2="892.805" stroke="#2BFFE8" stroke-width="0.554993"/>
<line x1="255.389" y1="946.006" x2="264.269" y2="946.006" stroke="#2BFFE8" stroke-width="0.554993"/>
<line x1="259.75" y1="941.62" x2="259.75" y2="950.5" stroke="#2BFFE8" stroke-width="0.554993"/>
<line x1="302.167" y1="22.8853" x2="311.047" y2="22.8853" stroke="#2BFFE8" stroke-width="0.554993"/>
<line x1="306.527" y1="18.5" x2="306.527" y2="27.3799" stroke="#2BFFE8" stroke-width="0.554993"/>
<line x1="302.167" y1="80.5804" x2="311.047" y2="80.5804" stroke="#2BFFE8" stroke-width="0.554993"/>
<line x1="306.527" y1="76.1951" x2="306.527" y2="85.075" stroke="#2BFFE8" stroke-width="0.554993"/>
<line x1="302.167" y1="138.275" x2="311.047" y2="138.275" stroke="#2BFFE8" stroke-width="0.554993"/>
<line x1="306.527" y1="133.89" x2="306.527" y2="142.77" stroke="#2BFFE8" stroke-width="0.554993"/>
<line x1="302.167" y1="195.97" x2="311.047" y2="195.97" stroke="#2BFFE8" stroke-width="0.554993"/>
<line x1="306.527" y1="191.585" x2="306.527" y2="200.465" stroke="#2BFFE8" stroke-width="0.554993"/>
<line x1="302.167" y1="253.665" x2="311.047" y2="253.665" stroke="#2BFFE8" stroke-width="0.554993"/>
<line x1="306.527" y1="249.28" x2="306.527" y2="258.16" stroke="#2BFFE8" stroke-width="0.554993"/>
<line x1="302.167" y1="311.36" x2="311.047" y2="311.36" stroke="#2BFFE8" stroke-width="0.554993"/>
<line x1="306.527" y1="306.975" x2="306.527" y2="315.855" stroke="#2BFFE8" stroke-width="0.554993"/>
<line x1="302.167" y1="369.055" x2="311.047" y2="369.055" stroke="#2BFFE8" stroke-width="0.554993"/>
<line x1="306.527" y1="364.67" x2="306.527" y2="373.55" stroke="#2BFFE8" stroke-width="0.554993"/>
<line x1="302.167" y1="426.75" x2="311.047" y2="426.75" stroke="#2BFFE8" stroke-width="0.554993"/>
<line x1="306.527" y1="422.365" x2="306.527" y2="431.245" stroke="#2BFFE8" stroke-width="0.554993"/>
<line x1="302.167" y1="484.445" x2="311.047" y2="484.445" stroke="#2BFFE8" stroke-width="0.554993"/>
<line x1="306.527" y1="480.06" x2="306.527" y2="488.94" stroke="#2BFFE8" stroke-width="0.554993"/>
<line x1="302.167" y1="542.14" x2="311.047" y2="542.141" stroke="#2BFFE8" stroke-width="0.554993"/>
<line x1="306.527" y1="537.755" x2="306.527" y2="546.635" stroke="#2BFFE8" stroke-width="0.554993"/>
<line x1="302.167" y1="599.836" x2="311.047" y2="599.836" stroke="#2BFFE8" stroke-width="0.554993"/>
<line x1="306.527" y1="595.45" x2="306.527" y2="604.33" stroke="#2BFFE8" stroke-width="0.554993"/>
<line x1="302.167" y1="657.531" x2="311.047" y2="657.531" stroke="#2BFFE8" stroke-width="0.554993"/>
<line x1="306.527" y1="653.145" x2="306.527" y2="662.025" stroke="#2BFFE8" stroke-width="0.554993"/>
<line x1="302.167" y1="715.225" x2="311.047" y2="715.225" stroke="#2BFFE8" stroke-width="0.554993"/>
<line x1="306.527" y1="710.84" x2="306.527" y2="719.72" stroke="#2BFFE8" stroke-width="0.554993"/>
<line x1="302.167" y1="772.921" x2="311.047" y2="772.921" stroke="#2BFFE8" stroke-width="0.554993"/>
<line x1="306.527" y1="768.535" x2="306.527" y2="777.415" stroke="#2BFFE8" stroke-width="0.554993"/>
<line x1="302.167" y1="830.616" x2="311.047" y2="830.616" stroke="#2BFFE8" stroke-width="0.554993"/>
<line x1="306.527" y1="826.23" x2="306.527" y2="835.11" stroke="#2BFFE8" stroke-width="0.554993"/>
<line x1="302.167" y1="888.311" x2="311.047" y2="888.311" stroke="#2BFFE8" stroke-width="0.554993"/>
<line x1="306.527" y1="883.925" x2="306.527" y2="892.805" stroke="#2BFFE8" stroke-width="0.554993"/>
<line x1="302.167" y1="946.006" x2="311.047" y2="946.006" stroke="#2BFFE8" stroke-width="0.554993"/>
<line x1="306.527" y1="941.62" x2="306.527" y2="950.5" stroke="#2BFFE8" stroke-width="0.554993"/>
<line x1="348.944" y1="22.8853" x2="357.824" y2="22.8853" stroke="#2BFFE8" stroke-width="0.554993"/>
<line x1="353.305" y1="18.5" x2="353.305" y2="27.3799" stroke="#2BFFE8" stroke-width="0.554993"/>
<line x1="348.944" y1="80.5804" x2="357.824" y2="80.5804" stroke="#2BFFE8" stroke-width="0.554993"/>
<line x1="353.305" y1="76.1951" x2="353.305" y2="85.075" stroke="#2BFFE8" stroke-width="0.554993"/>
<line x1="348.944" y1="138.275" x2="357.824" y2="138.275" stroke="#2BFFE8" stroke-width="0.554993"/>
<line x1="353.305" y1="133.89" x2="353.305" y2="142.77" stroke="#2BFFE8" stroke-width="0.554993"/>
<line x1="348.944" y1="195.97" x2="357.824" y2="195.97" stroke="#2BFFE8" stroke-width="0.554993"/>
<line x1="353.305" y1="191.585" x2="353.305" y2="200.465" stroke="#2BFFE8" stroke-width="0.554993"/>
<line x1="348.944" y1="253.665" x2="357.824" y2="253.665" stroke="#2BFFE8" stroke-width="0.554993"/>
<line x1="353.305" y1="249.28" x2="353.305" y2="258.16" stroke="#2BFFE8" stroke-width="0.554993"/>
<line x1="348.944" y1="311.36" x2="357.824" y2="311.36" stroke="#2BFFE8" stroke-width="0.554993"/>
<line x1="353.305" y1="306.975" x2="353.305" y2="315.855" stroke="#2BFFE8" stroke-width="0.554993"/>
<line x1="348.944" y1="369.055" x2="357.824" y2="369.055" stroke="#2BFFE8" stroke-width="0.554993"/>
<line x1="353.305" y1="364.67" x2="353.305" y2="373.55" stroke="#2BFFE8" stroke-width="0.554993"/>
<line x1="348.944" y1="426.75" x2="357.824" y2="426.75" stroke="#2BFFE8" stroke-width="0.554993"/>
<line x1="353.305" y1="422.365" x2="353.305" y2="431.245" stroke="#2BFFE8" stroke-width="0.554993"/>
<line x1="348.944" y1="484.445" x2="357.824" y2="484.445" stroke="#2BFFE8" stroke-width="0.554993"/>
<line x1="353.305" y1="480.06" x2="353.305" y2="488.94" stroke="#2BFFE8" stroke-width="0.554993"/>
<line x1="348.944" y1="542.14" x2="357.824" y2="542.141" stroke="#2BFFE8" stroke-width="0.554993"/>
<line x1="353.305" y1="537.755" x2="353.305" y2="546.635" stroke="#2BFFE8" stroke-width="0.554993"/>
<line x1="348.944" y1="599.836" x2="357.824" y2="599.836" stroke="#2BFFE8" stroke-width="0.554993"/>
<line x1="353.305" y1="595.45" x2="353.305" y2="604.33" stroke="#2BFFE8" stroke-width="0.554993"/>
<line x1="348.944" y1="657.531" x2="357.824" y2="657.531" stroke="#2BFFE8" stroke-width="0.554993"/>
<line x1="353.305" y1="653.145" x2="353.305" y2="662.025" stroke="#2BFFE8" stroke-width="0.554993"/>
<line x1="348.944" y1="715.225" x2="357.824" y2="715.225" stroke="#2BFFE8" stroke-width="0.554993"/>
<line x1="353.305" y1="710.84" x2="353.305" y2="719.72" stroke="#2BFFE8" stroke-width="0.554993"/>
<line x1="348.944" y1="772.921" x2="357.824" y2="772.921" stroke="#2BFFE8" stroke-width="0.554993"/>
<line x1="353.305" y1="768.535" x2="353.305" y2="777.415" stroke="#2BFFE8" stroke-width="0.554993"/>
<line x1="348.944" y1="830.616" x2="357.824" y2="830.616" stroke="#2BFFE8" stroke-width="0.554993"/>
<line x1="353.305" y1="826.23" x2="353.305" y2="835.11" stroke="#2BFFE8" stroke-width="0.554993"/>
<line x1="348.944" y1="888.311" x2="357.824" y2="888.311" stroke="#2BFFE8" stroke-width="0.554993"/>
<line x1="353.305" y1="883.925" x2="353.305" y2="892.805" stroke="#2BFFE8" stroke-width="0.554993"/>
<line x1="348.944" y1="946.006" x2="357.824" y2="946.006" stroke="#2BFFE8" stroke-width="0.554993"/>
<line x1="353.305" y1="941.62" x2="353.305" y2="950.5" stroke="#2BFFE8" stroke-width="0.554993"/>
<line x1="395.722" y1="22.8853" x2="404.602" y2="22.8853" stroke="#2BFFE8" stroke-width="0.554993"/>
<line x1="400.083" y1="18.5" x2="400.083" y2="27.3799" stroke="#2BFFE8" stroke-width="0.554993"/>
<line x1="395.722" y1="80.5804" x2="404.602" y2="80.5804" stroke="#2BFFE8" stroke-width="0.554993"/>
<line x1="400.083" y1="76.1951" x2="400.083" y2="85.075" stroke="#2BFFE8" stroke-width="0.554993"/>
<line x1="395.722" y1="138.275" x2="404.602" y2="138.275" stroke="#2BFFE8" stroke-width="0.554993"/>
<line x1="400.083" y1="133.89" x2="400.083" y2="142.77" stroke="#2BFFE8" stroke-width="0.554993"/>
<line x1="395.722" y1="195.97" x2="404.602" y2="195.97" stroke="#2BFFE8" stroke-width="0.554993"/>
<line x1="400.083" y1="191.585" x2="400.083" y2="200.465" stroke="#2BFFE8" stroke-width="0.554993"/>
<line x1="395.722" y1="253.665" x2="404.602" y2="253.665" stroke="#2BFFE8" stroke-width="0.554993"/>
<line x1="400.083" y1="249.28" x2="400.083" y2="258.16" stroke="#2BFFE8" stroke-width="0.554993"/>
<line x1="395.722" y1="311.36" x2="404.602" y2="311.36" stroke="#2BFFE8" stroke-width="0.554993"/>
<line x1="400.083" y1="306.975" x2="400.083" y2="315.855" stroke="#2BFFE8" stroke-width="0.554993"/>
<line x1="395.722" y1="369.055" x2="404.602" y2="369.055" stroke="#2BFFE8" stroke-width="0.554993"/>
<line x1="400.083" y1="364.67" x2="400.083" y2="373.55" stroke="#2BFFE8" stroke-width="0.554993"/>
<line x1="395.722" y1="426.75" x2="404.602" y2="426.75" stroke="#2BFFE8" stroke-width="0.554993"/>
<line x1="400.083" y1="422.365" x2="400.083" y2="431.245" stroke="#2BFFE8" stroke-width="0.554993"/>
<line x1="395.722" y1="484.445" x2="404.602" y2="484.445" stroke="#2BFFE8" stroke-width="0.554993"/>
<line x1="400.083" y1="480.06" x2="400.083" y2="488.94" stroke="#2BFFE8" stroke-width="0.554993"/>
<line x1="395.722" y1="542.14" x2="404.602" y2="542.141" stroke="#2BFFE8" stroke-width="0.554993"/>
<line x1="400.083" y1="537.755" x2="400.083" y2="546.635" stroke="#2BFFE8" stroke-width="0.554993"/>
<line x1="395.722" y1="599.836" x2="404.602" y2="599.836" stroke="#2BFFE8" stroke-width="0.554993"/>
<line x1="400.083" y1="595.45" x2="400.083" y2="604.33" stroke="#2BFFE8" stroke-width="0.554993"/>
<line x1="395.722" y1="657.531" x2="404.602" y2="657.531" stroke="#2BFFE8" stroke-width="0.554993"/>
<line x1="400.083" y1="653.145" x2="400.083" y2="662.025" stroke="#2BFFE8" stroke-width="0.554993"/>
<line x1="395.722" y1="715.225" x2="404.602" y2="715.225" stroke="#2BFFE8" stroke-width="0.554993"/>
<line x1="400.083" y1="710.84" x2="400.083" y2="719.72" stroke="#2BFFE8" stroke-width="0.554993"/>
<line x1="395.722" y1="772.921" x2="404.602" y2="772.921" stroke="#2BFFE8" stroke-width="0.554993"/>
<line x1="400.083" y1="768.535" x2="400.083" y2="777.415" stroke="#2BFFE8" stroke-width="0.554993"/>
<line x1="395.722" y1="830.616" x2="404.602" y2="830.616" stroke="#2BFFE8" stroke-width="0.554993"/>
<line x1="400.083" y1="826.23" x2="400.083" y2="835.11" stroke="#2BFFE8" stroke-width="0.554993"/>
<line x1="395.722" y1="888.311" x2="404.602" y2="888.311" stroke="#2BFFE8" stroke-width="0.554993"/>
<line x1="400.083" y1="883.925" x2="400.083" y2="892.805" stroke="#2BFFE8" stroke-width="0.554993"/>
<line x1="395.722" y1="946.006" x2="404.602" y2="946.006" stroke="#2BFFE8" stroke-width="0.554993"/>
<line x1="400.083" y1="941.62" x2="400.083" y2="950.5" stroke="#2BFFE8" stroke-width="0.554993"/>
<line x1="442.5" y1="22.8853" x2="451.38" y2="22.8853" stroke="#2BFFE8" stroke-width="0.554993"/>
<line x1="446.861" y1="18.5" x2="446.861" y2="27.3799" stroke="#2BFFE8" stroke-width="0.554993"/>
<line x1="442.5" y1="80.5804" x2="451.38" y2="80.5804" stroke="#2BFFE8" stroke-width="0.554993"/>
<line x1="446.861" y1="76.1951" x2="446.861" y2="85.075" stroke="#2BFFE8" stroke-width="0.554993"/>
<line x1="442.5" y1="138.275" x2="451.38" y2="138.275" stroke="#2BFFE8" stroke-width="0.554993"/>
<line x1="446.861" y1="133.89" x2="446.861" y2="142.77" stroke="#2BFFE8" stroke-width="0.554993"/>
<line x1="442.5" y1="195.97" x2="451.38" y2="195.97" stroke="#2BFFE8" stroke-width="0.554993"/>
<line x1="446.861" y1="191.585" x2="446.861" y2="200.465" stroke="#2BFFE8" stroke-width="0.554993"/>
<line x1="442.5" y1="253.665" x2="451.38" y2="253.665" stroke="#2BFFE8" stroke-width="0.554993"/>
<line x1="446.861" y1="249.28" x2="446.861" y2="258.16" stroke="#2BFFE8" stroke-width="0.554993"/>
<line x1="442.5" y1="311.36" x2="451.38" y2="311.36" stroke="#2BFFE8" stroke-width="0.554993"/>
<line x1="446.861" y1="306.975" x2="446.861" y2="315.855" stroke="#2BFFE8" stroke-width="0.554993"/>
<line x1="442.5" y1="369.055" x2="451.38" y2="369.055" stroke="#2BFFE8" stroke-width="0.554993"/>
<line x1="446.861" y1="364.67" x2="446.861" y2="373.55" stroke="#2BFFE8" stroke-width="0.554993"/>
<line x1="442.5" y1="426.75" x2="451.38" y2="426.75" stroke="#2BFFE8" stroke-width="0.554993"/>
<line x1="446.861" y1="422.365" x2="446.861" y2="431.245" stroke="#2BFFE8" stroke-width="0.554993"/>
<line x1="442.5" y1="484.445" x2="451.38" y2="484.445" stroke="#2BFFE8" stroke-width="0.554993"/>
<line x1="446.861" y1="480.06" x2="446.861" y2="488.94" stroke="#2BFFE8" stroke-width="0.554993"/>
<line x1="442.5" y1="542.14" x2="451.38" y2="542.141" stroke="#2BFFE8" stroke-width="0.554993"/>
<line x1="446.861" y1="537.755" x2="446.861" y2="546.635" stroke="#2BFFE8" stroke-width="0.554993"/>
<line x1="442.5" y1="599.836" x2="451.38" y2="599.836" stroke="#2BFFE8" stroke-width="0.554993"/>
<line x1="446.861" y1="595.45" x2="446.861" y2="604.33" stroke="#2BFFE8" stroke-width="0.554993"/>
<line x1="442.5" y1="657.531" x2="451.38" y2="657.531" stroke="#2BFFE8" stroke-width="0.554993"/>
<line x1="446.861" y1="653.145" x2="446.861" y2="662.025" stroke="#2BFFE8" stroke-width="0.554993"/>
<line x1="442.5" y1="715.225" x2="451.38" y2="715.225" stroke="#2BFFE8" stroke-width="0.554993"/>
<line x1="446.861" y1="710.84" x2="446.861" y2="719.72" stroke="#2BFFE8" stroke-width="0.554993"/>
<line x1="442.5" y1="772.921" x2="451.38" y2="772.921" stroke="#2BFFE8" stroke-width="0.554993"/>
<line x1="446.861" y1="768.535" x2="446.861" y2="777.415" stroke="#2BFFE8" stroke-width="0.554993"/>
<line x1="442.5" y1="830.616" x2="451.38" y2="830.616" stroke="#2BFFE8" stroke-width="0.554993"/>
<line x1="446.861" y1="826.23" x2="446.861" y2="835.11" stroke="#2BFFE8" stroke-width="0.554993"/>
<line x1="442.5" y1="888.311" x2="451.38" y2="888.311" stroke="#2BFFE8" stroke-width="0.554993"/>
<line x1="446.861" y1="883.925" x2="446.861" y2="892.805" stroke="#2BFFE8" stroke-width="0.554993"/>
<line x1="442.5" y1="946.006" x2="451.38" y2="946.006" stroke="#2BFFE8" stroke-width="0.554993"/>
<line x1="446.861" y1="941.62" x2="446.861" y2="950.5" stroke="#2BFFE8" stroke-width="0.554993"/>
</g>
</svg>
