<svg width="423" height="32" fill="none" xmlns="http://www.w3.org/2000/svg"><path d="M1 0v6.93M48 0v6.93" stroke="#2BFFE8"/><path d="M25.427 24.89h-.97v-6.048h-1.793v-.661c1.11-.032 1.675-.192 2.102-1.024h.661v7.733Z" fill="#2BFFE8"/><path d="M95 0v6.93M142 0v6.93" stroke="#2BFFE8"/><path d="M119.427 24.89h-.971v-6.048h-1.792v-.661c1.11-.032 1.675-.192 2.102-1.024h.661v7.733Z" fill="#2BFFE8"/><path d="M189 0v6.93M235 0v6.93" stroke="#2BFFE8"/><path d="M212.927 24.89h-.971v-6.048h-1.792v-.661c1.11-.032 1.675-.192 2.102-1.024h.661v7.733Z" fill="#2BFFE8"/><path d="M282 0v6.93M329 0v6.93" stroke="#2BFFE8"/><path d="M306.427 24.89h-.971v-6.048h-1.792v-.661c1.11-.032 1.675-.192 2.102-1.024h.661v7.733Z" fill="#2BFFE8"/><path d="M376 0v6.93M422 0v6.93" stroke="#2BFFE8"/><path d="M399.927 24.89h-.971v-6.048h-1.792v-.661c1.11-.032 1.675-.192 2.102-1.024h.661v7.733Z" fill="#2BFFE8"/></svg>