<svg width="423" height="32" fill="none" xmlns="http://www.w3.org/2000/svg"><path d="M1 24.79v6.93m47-6.93v6.93" stroke="#2BFFE8"/><path d="M25.427 14h-.97V7.952h-1.793v-.661c1.11-.032 1.675-.192 2.102-1.024h.661V14Z" fill="#2BFFE8"/><path d="M95 24.79v6.93m47-6.93v6.93" stroke="#2BFFE8"/><path d="M119.427 14h-.971V7.952h-1.792v-.661c1.11-.032 1.675-.192 2.102-1.024h.661V14Z" fill="#2BFFE8"/><path d="M188 24.79v6.93m47-6.93v6.93" stroke="#2BFFE8"/><path d="M212.427 14h-.971V7.952h-1.792v-.661c1.11-.032 1.675-.192 2.102-1.024h.661V14Z" fill="#2BFFE8"/><path d="M282 24.79v6.93m47-6.93v6.93" stroke="#2BFFE8"/><path d="M306.427 14h-.971V7.952h-1.792v-.661c1.11-.032 1.675-.192 2.102-1.024h.661V14Z" fill="#2BFFE8"/><path d="M375 24.79v6.93m47-6.93v6.93" stroke="#2BFFE8"/><path d="M399.427 14h-.971V7.952h-1.792v-.661c1.11-.032 1.675-.192 2.102-1.024h.661V14Z" fill="#2BFFE8"/></svg>