<svg width="1908" height="32" fill="none" xmlns="http://www.w3.org/2000/svg"><path d="M1 0v6.93M77 0v6.93" stroke="#2BFFE8"/><path d="M40.39 26.89h-1.455v-9.072h-2.688v-.992c1.664-.048 2.512-.288 3.152-1.536h.992v11.6Z" fill="#2BFFE8"/><path d="M152 0v6.93M230 0v6.93" stroke="#2BFFE8"/><path d="M192.391 26.89h-1.456v-9.072h-2.688v-.992c1.664-.048 2.512-.288 3.152-1.536h.992v11.6Z" fill="#2BFFE8"/><path d="M306 0v6.93M382 0v6.93" stroke="#2BFFE8"/><path d="M345.391 26.89h-1.456v-9.072h-2.688v-.992c1.664-.048 2.512-.288 3.152-1.536h.992v11.6Z" fill="#2BFFE8"/><path d="M459 0v6.93M535 0v6.93" stroke="#2BFFE8"/><path d="M498.391 26.89h-1.456v-9.072h-2.688v-.992c1.664-.048 2.512-.288 3.152-1.536h.992v11.6Z" fill="#2BFFE8"/><path d="M613 0v6.93M687 0v6.93" stroke="#2BFFE8"/><path d="M651.391 26.89h-1.456v-9.072h-2.688v-.992c1.664-.048 2.512-.288 3.152-1.536h.992v11.6Z" fill="#2BFFE8"/><path d="M764 0v6.93M840 0v6.93" stroke="#2BFFE8"/><path d="M803.391 26.89h-1.456v-9.072h-2.688v-.992c1.664-.048 2.512-.288 3.152-1.536h.992v11.6Z" fill="#2BFFE8"/><path d="M916 0v6.93M992 0v6.93" stroke="#2BFFE8"/><path d="M955.391 26.89h-1.456v-9.072h-2.688v-.992c1.664-.048 2.512-.288 3.152-1.536h.992v11.6Z" fill="#2BFFE8"/><path d="M1067 0v6.93M1145 0v6.93" stroke="#2BFFE8"/><path d="M1107.39 26.89h-1.46v-9.072h-2.68v-.992c1.66-.048 2.51-.288 3.15-1.536h.99v11.6Z" fill="#2BFFE8"/><path d="M1221 0v6.93M1297 0v6.93" stroke="#2BFFE8"/><path d="M1260.39 26.89h-1.46v-9.072h-2.68v-.992c1.66-.048 2.51-.288 3.15-1.536h.99v11.6Z" fill="#2BFFE8"/><path d="M1374 0v6.93M1450 0v6.93" stroke="#2BFFE8"/><path d="M1413.39 26.89h-1.46v-9.072h-2.68v-.992c1.66-.048 2.51-.288 3.15-1.536h.99v11.6Z" fill="#2BFFE8"/><path d="M1526 0v6.93M1602 0v6.93" stroke="#2BFFE8"/><path d="M1565.39 26.89h-1.46v-9.072h-2.68v-.992c1.66-.048 2.51-.288 3.15-1.536h.99v11.6Z" fill="#2BFFE8"/><path d="M1679 0v6.93M1755 0v6.93" stroke="#2BFFE8"/><path d="M1718.39 26.89h-1.46v-9.072h-2.68v-.992c1.66-.048 2.51-.288 3.15-1.536h.99v11.6Z" fill="#2BFFE8"/><path d="M1831 0v6.93M1907 0v6.93" stroke="#2BFFE8"/><path d="M1870.39 26.89h-1.46v-9.072h-2.68v-.992c1.66-.048 2.51-.288 3.15-1.536h.99v11.6Z" fill="#2BFFE8"/></svg>