<svg width="441" height="9" fill="none" xmlns="http://www.w3.org/2000/svg"><rect width="6.081" height="6.278" rx="2.027" transform="rotate(180 146.04 3.782)" stroke="#2BFFE8" stroke-width="1.014"/><rect width="6.081" height="6.278" rx="2.027" transform="rotate(180 169.54 3.782)" stroke="#2BFFE8" stroke-width="1.014"/><rect width="6.081" height="6.278" rx="2.027" transform="rotate(180 193.04 3.782)" stroke="#2BFFE8" stroke-width="1.014"/><rect width="6.081" height="6.278" rx="2.027" transform="rotate(180 29.04 3.782)" stroke="#2BFFE8" stroke-width="1.014"/><rect width="6.081" height="6.278" rx="2.027" transform="rotate(180 52.54 3.782)" stroke="#2BFFE8" stroke-width="1.014"/><rect width="6.081" height="6.278" rx="2.027" transform="rotate(180 75.54 3.782)" stroke="#2BFFE8" stroke-width="1.014"/><rect width="6.081" height="6.278" rx="2.027" transform="rotate(180 99.04 3.782)" stroke="#2BFFE8" stroke-width="1.014"/><rect width="6.081" height="6.278" rx="2.027" transform="rotate(180 122.54 3.782)" stroke="#2BFFE8" stroke-width="1.014"/><rect width="6" height="6.278" rx="2.027" transform="rotate(180 9.5 3.78)" fill="#2BFFE8"/><rect width="6" height="6.278" rx="2.027" transform="rotate(180 9.5 3.78)" stroke="#2BFFE8" stroke-width="1.014"/><rect width="6" height="6.278" rx="2.027" transform="rotate(180 212.5 3.78)" fill="#2BFFE8"/><rect width="6" height="6.278" rx="2.027" transform="rotate(180 212.5 3.78)" stroke="#2BFFE8" stroke-width="1.014"/></svg>