<svg width="1913" height="1072" fill="none" xmlns="http://www.w3.org/2000/svg"><path opacity=".4" d="m1045.48 250.19-.01-.277.01.277Zm852.09-104.484.21.181-.21-.181Zm-1879.917.263.208-.183-.208.183Zm1881.467-23.72.23-.163-.23.163ZM869.981.073H15.969v.553H869.98V.073ZM16.317 122.112c5.217-6.97 15.39-13.796 30.13-20.407 14.733-6.606 33.993-12.982 57.345-19.072C150.496 70.454 213.539 59.43 289.398 50c151.715-18.86 354.664-31.336 580.625-33.916l-.006-.554c-225.976 2.58-428.946 15.058-580.688 33.92-75.87 9.432-138.939 20.46-185.677 32.647-23.368 6.094-42.66 12.48-57.431 19.103-14.762 6.62-25.043 13.493-30.347 20.581l.443.331ZM3.723 12.318v106.371h.554V12.318h-.554ZM15.97.073C9.206.073 3.723 5.555 3.723 12.318h.554C4.277 5.86 9.51.626 15.969.626V.073ZM3.723 150.369v104.313h.554V150.369h-.554Zm0 104.313c0 6.763 5.483 12.246 12.246 12.246v-.554c-6.458 0-11.692-5.235-11.692-11.692h-.554Zm12.246 12.246H869.48v-.554H15.969v.554Zm853.556-17.015c-223.276-2.564-424.057-14.792-575.103-33.29-75.524-9.25-138.607-20.067-185.849-32.025-23.62-5.98-43.275-12.243-58.541-18.736-15.273-6.496-26.125-13.21-32.171-20.076l-.416.366c6.13 6.961 17.076 13.715 32.37 20.22 15.302 6.508 34.986 12.779 58.623 18.762 47.273 11.967 110.382 22.787 185.917 32.038 151.071 18.502 351.873 30.73 575.164 33.295l.006-.554Zm175.955.554c223.64-2.569 424.73-14.832 575.88-33.383 75.58-9.275 138.67-20.124 185.87-32.12 23.6-5.998 43.23-12.285 58.46-18.809 15.22-6.52 26.08-13.29 32.09-20.268l-.42-.361c-5.93 6.88-16.69 13.609-31.89 20.12-15.19 6.509-34.79 12.787-58.37 18.781-47.17 11.989-110.24 22.834-185.81 32.108-151.12 18.548-352.19 30.81-575.82 33.378l.01.554Zm852.55 15.907h-852.51v.554h852.51v-.554Zm11.69-11.692c0 6.457-5.23 11.692-11.69 11.692v.554c6.76 0 12.25-5.483 12.25-12.246h-.56Zm0-104.964v104.964h.56V149.718h-.56Zm0-137.4v106.995h.56V12.318h-.56ZM1898.03.626c6.46 0 11.69 5.235 11.69 11.692h.56c0-6.763-5.49-12.245-12.25-12.245v.553Zm-853.01 0h853.01V.073h-853.01v.553Zm854.33 121.46c-5.17-7.107-15.35-13.999-30.02-20.636-14.68-6.642-33.91-13.045-57.23-19.156-46.65-12.222-109.7-23.282-185.62-32.742-151.83-18.92-355.12-31.437-581.5-34.022l-.01.554c226.37 2.585 429.64 15.101 581.44 34.017 75.91 9.458 138.93 20.515 185.55 32.728 23.3 6.107 42.5 12.501 57.14 19.125 14.66 6.628 24.72 13.471 29.8 20.457l.45-.325ZM1037.01 8.076c0 4.39 3.58 7.958 7.96 8.008l.01-.554c-4.09-.046-7.41-3.371-7.41-7.454h-.56Zm8.01-8.003c-4.42 0-8.01 3.583-8.01 8.003h.56c0-4.114 3.33-7.45 7.45-7.45V.073Zm864.7 119.24c0 3-2.43 5.432-5.43 5.432v.554c3.31 0 5.99-2.68 5.99-5.986h-.56Zm.56 30.405c0-3.877-3.15-7.02-7.02-7.02v.554c3.57 0 6.46 2.895 6.46 6.466h.56Zm-864.81 100.195c-4.66.054-8.46 3.845-8.46 8.51h.56c0-4.358 3.55-7.906 7.91-7.956l-.01-.554Zm-167.485 8.51c0-4.665-3.799-8.456-8.46-8.51l-.006.554c4.361.05 7.912 3.598 7.912 7.956h.554Zm-8.505 8.505a8.505 8.505 0 0 0 8.505-8.505h-.554a7.951 7.951 0 0 1-7.951 7.951v.554ZM4.277 150.369a7.117 7.117 0 0 1 7.117-7.117v-.554a7.671 7.671 0 0 0-7.67 7.671h.553Zm6.056-25.624a6.056 6.056 0 0 1-6.056-6.056h-.554a6.61 6.61 0 0 0 6.61 6.61v-.554ZM1037.01 258.423c0 4.697 3.81 8.505 8.51 8.505v-.554c-4.39 0-7.95-3.56-7.95-7.951h-.56ZM15.874 121.781c-1.354 1.809-3.313 2.964-5.54 2.964v.554c2.432 0 4.544-1.264 5.983-3.187l-.443-.331Zm1881.906 24.106c1.42-1.646 3.33-2.635 5.48-2.635v-.554c-2.34 0-4.39 1.077-5.9 2.828l.42.361ZM877.431 8.077c0 4.082-3.328 7.407-7.414 7.453l.006.554c4.385-.05 7.962-3.618 7.962-8.008h-.554ZM17.861 145.785c-1.669-1.895-3.916-3.088-6.467-3.088v.554c2.367 0 4.47 1.104 6.051 2.9l.416-.366ZM1898.9 122.411c1.28 1.76 3.19 2.888 5.39 2.888v-.554c-2 0-3.75-1.021-4.94-2.659l-.45.325ZM869.981.626a7.45 7.45 0 0 1 7.45 7.45h.554a8.004 8.004 0 0 0-8.004-8.003v.553Z" fill="#2BFFE8"/><path opacity=".4" d="m1903.56 681.994-.27-.02.27.02Zm-.16-26.011.28-.024-.28.024ZM13 267.277h857.217v-.554H13v.554ZM1.277 279c0-6.474 5.249-11.723 11.723-11.723v-.554C6.22 266.723.723 272.219.723 279h.555Zm0 377.237V279H.724v377.237h.555Zm869.125-375.942c-236.39 8.724-447.81 53.234-602.182 120.309-77.185 33.537-140.12 72.721-184.784 115.904-44.663 43.183-71.068 90.379-75.155 139.935l.553.046c4.072-49.382 30.388-96.46 74.988-139.582 44.601-43.122 107.473-82.274 184.62-115.794 154.293-67.041 365.641-111.541 601.981-120.264l-.021-.554ZM8.126 681.527c3.696 52.748 32.676 102.856 82.063 148.336 49.387 45.48 119.199 86.35 204.606 120.631C465.61 1019.06 698.856 1061.28 956 1061.28v-.56c-257.09 0-490.263-42.21-660.998-110.741-85.368-34.265-155.115-75.104-204.437-120.524C41.243 784.034 12.363 734.05 8.68 681.488l-.554.039ZM956 1061.28c256.95 0 490.03-42.16 660.81-110.627 85.39-34.234 155.21-75.051 204.66-120.475 49.44-45.424 78.52-95.472 82.37-148.164l-.55-.04c-3.84 52.505-32.82 102.431-82.2 147.796-49.38 45.364-119.14 86.149-204.49 120.367-170.7 68.433-403.71 110.583-660.6 110.583v.56Zm955.72-379.083V1059h.56V682.197h-.56Zm0 376.803c0 6.47-5.25 11.72-11.72 11.72v.56c6.78 0 12.28-5.5 12.28-12.28h-.56Zm-11.72 11.72H13v.56h1887v-.56Zm-1887 0c-6.474 0-11.723-5.25-11.723-11.72H.723c0 6.78 5.496 12.28 12.277 12.28v-.56ZM1.277 1059V681.685H.723V1059h.555ZM1903.68 655.959c-4.22-49.429-30.65-96.504-75.25-139.582-44.6-43.078-107.39-82.173-184.36-115.649-153.96-66.952-364.73-111.448-600.44-120.357l-.02.554c235.66 8.908 446.36 53.394 600.23 120.312 76.94 33.459 139.67 72.522 184.2 115.539 44.54 43.017 70.88 89.975 75.09 139.231l.55-.048Zm-859.86-388.682H1900v-.554h-856.18v.554Zm856.18 0c6.47 0 11.72 5.249 11.72 11.723h.56c0-6.781-5.5-12.277-12.28-12.277v.554ZM1911.72 279v376.722h.56V279h-.56Zm-874.44-5.179a6.543 6.543 0 0 1 6.54-6.544v-.554a7.1 7.1 0 0 0-7.1 7.098h.56ZM1.277 681.685a3.408 3.408 0 0 1 3.408-3.408v-.554a3.962 3.962 0 0 0-3.962 3.962h.555Zm1906.523-3.408c2.17 0 3.92 1.755 3.92 3.92h.56a4.48 4.48 0 0 0-4.48-4.474v.554Zm-3.96 3.737c.15-2.092 1.87-3.737 3.96-3.737v-.554c-2.39 0-4.34 1.878-4.51 4.251l.55.04Zm3.88-22.291c-2.11 0-3.86-1.649-4.04-3.764l-.55.048c.2 2.392 2.18 4.27 4.59 4.27v-.554ZM.723 656.237a4.04 4.04 0 0 0 4.04 4.04v-.554a3.486 3.486 0 0 1-3.486-3.486H.723ZM1043.63 280.371c-3.53-.134-6.35-3.028-6.35-6.55h-.56c0 3.825 3.07 6.96 6.89 7.104l.02-.554ZM8.68 681.488c-.148-2.102-1.88-3.765-3.995-3.765v.554c1.815 0 3.313 1.43 3.44 3.25l.555-.039Zm868.043-407.705c0 3.504-2.814 6.382-6.321 6.512l.021.554c3.8-.14 6.854-3.259 6.854-7.066h-.554ZM1907.72 660.277c2.52 0 4.56-2.039 4.56-4.555h-.56a4 4 0 0 1-4 4.001v.554Zm-1902.957 0c2.138 0 3.896-1.665 4.07-3.788l-.552-.046c-.152 1.843-1.677 3.28-3.518 3.28v.554Zm872.514-386.494c0-3.9-3.16-7.06-7.06-7.06v.554a6.506 6.506 0 0 1 6.506 6.506h.554Z" fill="#2BFFE8"/></svg>