<svg width="1908" height="29" fill="none" xmlns="http://www.w3.org/2000/svg"><path d="M1 6.93V0m76 6.93V0" stroke="#2BFFE8"/><path d="M40.39 23.92h-1.455v-9.072h-2.688v-.992c1.664-.048 2.512-.288 3.152-1.536h.992v11.6Z" fill="#2BFFE8"/><path d="M154 6.93V0m76 6.93V0" stroke="#2BFFE8"/><path d="M193.391 23.92h-1.456v-9.072h-2.688v-.992c1.664-.048 2.512-.288 3.152-1.536h.992v11.6Z" fill="#2BFFE8"/><path d="M306 6.93V0m76 6.93V0" stroke="#2BFFE8"/><path d="M345.391 23.92h-1.456v-9.072h-2.688v-.992c1.664-.048 2.512-.288 3.152-1.536h.992v11.6Z" fill="#2BFFE8"/><path d="M459 6.93V0m76 6.93V0" stroke="#2BFFE8"/><path d="M498.391 23.92h-1.456v-9.072h-2.688v-.992c1.664-.048 2.512-.288 3.152-1.536h.992v11.6Z" fill="#2BFFE8"/><path d="M611 6.93V0m76 6.93V0" stroke="#2BFFE8"/><path d="M650.391 23.92h-1.456v-9.072h-2.688v-.992c1.664-.048 2.512-.288 3.152-1.536h.992v11.6Z" fill="#2BFFE8"/><path d="M763 6.93V0m77 6.93V0" stroke="#2BFFE8"/><path d="M802.891 23.92h-1.456v-9.072h-2.688v-.992c1.664-.048 2.512-.288 3.152-1.536h.992v11.6Z" fill="#2BFFE8"/><path d="M916 6.93V0m76 6.93V0" stroke="#2BFFE8"/><path d="M955.391 23.92h-1.456v-9.072h-2.688v-.992c1.664-.048 2.512-.288 3.152-1.536h.992v11.6Z" fill="#2BFFE8"/><path d="M1068 6.93V0m77 6.93V0" stroke="#2BFFE8"/><path d="M1107.89 23.92h-1.46v-9.072h-2.68v-.992c1.66-.048 2.51-.288 3.15-1.536h.99v11.6Z" fill="#2BFFE8"/><path d="M1221 6.93V0m76 6.93V0" stroke="#2BFFE8"/><path d="M1260.39 23.92h-1.46v-9.072h-2.68v-.992c1.66-.048 2.51-.288 3.15-1.536h.99v11.6Z" fill="#2BFFE8"/><path d="M1374 6.93V0m76 6.93V0" stroke="#2BFFE8"/><path d="M1413.39 23.92h-1.46v-9.072h-2.68v-.992c1.66-.048 2.51-.288 3.15-1.536h.99v11.6Z" fill="#2BFFE8"/><path d="M1526 6.93V0m76 6.93V0" stroke="#2BFFE8"/><path d="M1565.39 23.92h-1.46v-9.072h-2.68v-.992c1.66-.048 2.51-.288 3.15-1.536h.99v11.6Z" fill="#2BFFE8"/><path d="M1831 6.93V0m76 6.93V0" stroke="#2BFFE8"/><path d="M1870.39 23.92h-1.46v-9.072h-2.68v-.992c1.66-.048 2.51-.288 3.15-1.536h.99v11.6Z" fill="#2BFFE8"/><path d="M1679 6.93V0m76 6.93V0" stroke="#2BFFE8"/><path d="M1718.39 23.92h-1.46v-9.072h-2.68v-.992c1.66-.048 2.51-.288 3.15-1.536h.99v11.6Z" fill="#2BFFE8"/></svg>