<svg width="423" height="925" fill="none" xmlns="http://www.w3.org/2000/svg"><path opacity=".4" d="m236.163 216.522-.015-.276.015.276Zm-49.106 0-.016.276.016-.276Zm232.474-91.314-.272-.053.272.053Zm.318-17.458-.273.043.273-.043ZM187.212.723H5v.554h182.212V.723ZM3.66 107.693c3.822-24.14 25.08-45.965 57.78-62.456 32.688-16.485 76.749-27.607 126.052-30.368l-.031-.553c-49.361 2.765-93.5 13.9-126.27 30.427-32.758 16.52-54.214 38.46-58.077 62.863l.546.087ZM.723 5v102.484h.554V5H.723ZM5 .723A4.277 4.277 0 0 0 .723 5h.554A3.723 3.723 0 0 1 5 1.277V.723ZM.723 125.541V227h.554V125.541H.723ZM.723 227A4.277 4.277 0 0 0 5 231.277v-.554A3.723 3.723 0 0 1 1.277 227H.723ZM5 231.277h181.772v-.554H5v.554Zm182.072-15.031c-48.586-2.77-92.06-13.66-124.54-29.798C30.039 170.304 8.605 148.94 3.98 125.253l-.543.106c4.674 23.94 26.3 45.413 58.848 61.585 32.562 16.178 76.112 27.082 124.756 29.854l.031-.552Zm49.107.552c48.678-2.774 92.255-13.691 124.823-29.888 32.557-16.19 54.17-37.687 58.801-61.65l-.544-.105c-4.582 23.71-26.003 45.097-58.503 61.259-32.488 16.157-75.988 27.061-124.608 29.832l.031.552ZM418 230.723H236.448v.554H418v-.554Zm3.723-3.723a3.723 3.723 0 0 1-3.723 3.723v.554a4.277 4.277 0 0 0 4.277-4.277h-.554Zm0-101.578V227h.554V125.422h-.554Zm0-120.422v102.602h.554V5h-.554ZM418 1.277A3.723 3.723 0 0 1 421.723 5h.554A4.277 4.277 0 0 0 418 .723v.554Zm-181.992 0H418V.723H236.008v.554Zm184.115 106.431c-3.818-24.427-25.261-46.392-58.025-62.93-32.777-16.546-76.944-27.695-126.339-30.462l-.031.553c49.337 2.763 93.426 13.898 126.12 30.402 32.707 16.51 53.951 38.36 57.728 62.522l.547-.085ZM228.958 7.774c0 3.784 2.999 6.884 6.77 7.095l.031-.553c-3.485-.195-6.248-3.058-6.248-6.542h-.553Zm7.05-7.05a7.05 7.05 0 0 0-7.05 7.05h.553a6.497 6.497 0 0 1 6.497-6.497V.723Zm185.715 106.878a.8.8 0 0 1-.799.799v.554c.747 0 1.353-.606 1.353-1.353h-.554Zm.554 17.82c0-.837-.679-1.515-1.515-1.515v.553c.531 0 .961.431.961.962h.554Zm-186.129 90.824c-4.007.228-7.19 3.52-7.19 7.54h.553c0-3.719 2.948-6.776 6.668-6.988l-.031-.552Zm-41.885 7.54c0-4.02-3.184-7.312-7.191-7.54l-.031.552c3.72.212 6.668 3.269 6.668 6.988h.554Zm-7.491 7.491a7.491 7.491 0 0 0 7.491-7.491h-.554a6.937 6.937 0 0 1-6.937 6.937v.554ZM1.277 125.541a1.08 1.08 0 0 1 1.08-1.081v-.553c-.902 0-1.634.732-1.634 1.634h.554Zm.917-17.14a.917.917 0 0 1-.917-.917H.723c0 .812.659 1.471 1.47 1.471v-.554Zm226.764 115.385a7.49 7.49 0 0 0 7.49 7.491v-.554a6.937 6.937 0 0 1-6.937-6.937h-.553ZM3.114 107.606a.936.936 0 0 1-.92.795v.554a1.49 1.49 0 0 0 1.466-1.262l-.546-.087Zm416.689 17.654a.98.98 0 0 1 .959-.8v-.553c-.739 0-1.364.529-1.503 1.248l.544.105ZM193.709 7.774c0 3.484-2.763 6.347-6.248 6.542l.031.553c3.772-.211 6.771-3.31 6.771-7.095h-.554ZM3.979 125.253a1.658 1.658 0 0 0-1.621-1.346v.553c.525 0 .977.378 1.079.899l.543-.106Zm415.597-17.46a1.368 1.368 0 0 0 1.348 1.162v-.554a.814.814 0 0 1-.801-.693l-.547.085ZM187.212 1.277a6.497 6.497 0 0 1 6.497 6.497h.554a7.051 7.051 0 0 0-7.051-7.05v.553Z" fill="#2BFFE8"/><path opacity=".4" d="m420.183 586.16.277.004-.277-.004Zm-.027-17.33.277-.004-.277.004Zm-185.6-325.437-.048.273.048-.273ZM2.596 586.05l-.278.003.277-.003Zm.026-17.11-.277-.005.277.005ZM5 231.277h182.857v-.554H5v.554ZM1.277 235A3.723 3.723 0 0 1 5 231.277v-.554A4.277 4.277 0 0 0 .723 235h.555Zm0 333.932V235H.724v333.932h.555ZM188.632 243.04c-51.491 8.985-97.344 48.098-130.676 106.121C24.62 407.189 3.787 484.159 2.345 568.935l.555.01c1.44-84.696 22.254-161.572 55.536-219.507 33.285-57.94 79.019-96.904 130.291-105.852l-.096-.546ZM2.318 586.053c1.267 91.333 25.038 173.718 62.733 233.278 37.693 59.556 89.334 96.327 146.339 96.327v-.555c-56.746 0-108.236-36.605-145.87-96.069-37.63-59.46-61.382-141.741-62.647-232.988l-.555.007ZM211.39 915.658c56.993 0 108.625-36.756 146.316-96.291 37.693-59.539 61.47-141.897 62.754-233.203l-.555-.008c-1.283 91.221-25.039 173.475-62.668 232.914-37.632 59.443-89.112 96.033-145.847 96.033v.555Zm210.333-329.492V920h.554V586.166h-.554Zm0 333.834a3.723 3.723 0 0 1-3.723 3.723v.555a4.278 4.278 0 0 0 4.277-4.278h-.554ZM418 923.723H5v.555h413v-.555Zm-413 0A3.723 3.723 0 0 1 1.277 920H.723A4.278 4.278 0 0 0 5 924.278v-.555ZM1.277 920V586.055H.723V920h.555Zm419.156-351.174c-1.456-84.626-22.235-161.468-55.482-219.445-33.245-57.972-78.976-97.113-130.346-106.261l-.097.546c51.152 9.11 96.765 48.102 129.961 105.991 33.195 57.885 53.954 134.633 55.409 219.178l.555-.009ZM235.405 231.277H418v-.554H235.405v.554Zm182.595 0a3.723 3.723 0 0 1 3.723 3.723h.554a4.277 4.277 0 0 0-4.277-4.277v.554Zm3.723 3.723v333.821h.554V235h-.554Zm-192.211 2.171a5.894 5.894 0 0 1 5.893-5.894v-.554a6.448 6.448 0 0 0-6.448 6.448h.555ZM1.278 586.055a.52.52 0 0 1 .52-.52v-.555c-.594 0-1.075.481-1.075 1.075h.555Zm419.814-.52c.348 0 .631.283.631.631h.554c0-.655-.53-1.186-1.185-1.186v.555Zm-.632.629a.637.637 0 0 1 .632-.629v-.555c-.652 0-1.178.529-1.187 1.176l.555.008Zm.618-16.699a.65.65 0 0 1-.645-.639l-.555.009a1.204 1.204 0 0 0 1.2 1.185v-.555ZM.723 568.932c0 .601.487 1.088 1.088 1.088v-.555a.533.533 0 0 1-.533-.533H.723ZM234.605 243.12c-2.912-.519-5.093-3.005-5.093-5.949h-.555c0 3.227 2.388 5.932 5.551 6.495l.097-.546ZM2.873 586.046a1.08 1.08 0 0 0-1.076-1.066v.555c.283 0 .517.231.52.518l.556-.007Zm190.835-348.917c0 2.931-2.176 5.404-5.077 5.911l.096.546c3.152-.55 5.536-3.242 5.536-6.457h-.555Zm227.37 332.891c.663 0 1.199-.537 1.199-1.199h-.554a.644.644 0 0 1-.645.644v.555Zm-419.267 0c.596 0 1.079-.483 1.089-1.075l-.555-.01a.538.538 0 0 1-.534.53v.555Zm192.452-332.891a6.406 6.406 0 0 0-6.406-6.406v.554a5.851 5.851 0 0 1 5.851 5.852h.555Z" fill="#2BFFE8"/></svg>