<svg width="1908" height="32" fill="none" xmlns="http://www.w3.org/2000/svg"><path d="M1 32v-6.93M77 32v-6.93" stroke="#2BFFE8"/><path d="M40.39 16.32h-1.455V7.246h-2.688v-.992c1.664-.048 2.512-.288 3.152-1.536h.992v11.6Z" fill="#2BFFE8"/><path d="M152 32v-6.93M230 32v-6.93" stroke="#2BFFE8"/><path d="M192.391 16.32h-1.456V7.246h-2.688v-.992c1.664-.048 2.512-.288 3.152-1.536h.992v11.6Z" fill="#2BFFE8"/><path d="M306 32v-6.93M382 32v-6.93" stroke="#2BFFE8"/><path d="M345.391 16.32h-1.456V7.246h-2.688v-.992c1.664-.048 2.512-.288 3.152-1.536h.992v11.6Z" fill="#2BFFE8"/><path d="M459 32v-6.93M535 32v-6.93" stroke="#2BFFE8"/><path d="M498.391 16.32h-1.456V7.246h-2.688v-.992c1.664-.048 2.512-.288 3.152-1.536h.992v11.6Z" fill="#2BFFE8"/><path d="M613 32v-6.93M687 32v-6.93" stroke="#2BFFE8"/><path d="M651.391 16.32h-1.456V7.246h-2.688v-.992c1.664-.048 2.512-.288 3.152-1.536h.992v11.6Z" fill="#2BFFE8"/><path d="M764 32v-6.93M840 32v-6.93" stroke="#2BFFE8"/><path d="M803.391 16.32h-1.456V7.246h-2.688v-.992c1.664-.048 2.512-.288 3.152-1.536h.992v11.6Z" fill="#2BFFE8"/><path d="M916 32v-6.93M992 32v-6.93" stroke="#2BFFE8"/><path d="M955.391 16.32h-1.456V7.246h-2.688v-.992c1.664-.048 2.512-.288 3.152-1.536h.992v11.6Z" fill="#2BFFE8"/><path d="M1067 32v-6.93m78 6.93v-6.93" stroke="#2BFFE8"/><path d="M1107.39 16.32h-1.46V7.246h-2.68v-.992c1.66-.048 2.51-.288 3.15-1.536h.99v11.6Z" fill="#2BFFE8"/><path d="M1221 32v-6.93m76 6.93v-6.93" stroke="#2BFFE8"/><path d="M1260.39 16.32h-1.46V7.246h-2.68v-.992c1.66-.048 2.51-.288 3.15-1.536h.99v11.6Z" fill="#2BFFE8"/><path d="M1374 32v-6.93m76 6.93v-6.93" stroke="#2BFFE8"/><path d="M1413.39 16.32h-1.46V7.246h-2.68v-.992c1.66-.048 2.51-.288 3.15-1.536h.99v11.6Z" fill="#2BFFE8"/><path d="M1526 32v-6.93m76 6.93v-6.93" stroke="#2BFFE8"/><path d="M1565.39 16.32h-1.46V7.246h-2.68v-.992c1.66-.048 2.51-.288 3.15-1.536h.99v11.6Z" fill="#2BFFE8"/><path d="M1679 32v-6.93m76 6.93v-6.93" stroke="#2BFFE8"/><path d="M1718.39 16.32h-1.46V7.246h-2.68v-.992c1.66-.048 2.51-.288 3.15-1.536h.99v11.6Z" fill="#2BFFE8"/><path d="M1831 32v-6.93m76 6.93v-6.93" stroke="#2BFFE8"/><path d="M1870.39 16.32h-1.46V7.246h-2.68v-.992c1.66-.048 2.51-.288 3.15-1.536h.99v11.6Z" fill="#2BFFE8"/></svg>