<svg width="473" height="969" fill="none" xmlns="http://www.w3.org/2000/svg"><path d="M21.5 22.885h8.88M25.861 18.5v8.88M21.5 80.58h8.88m-4.519-4.385v8.88m-4.361 53.2h8.88m-4.519-4.385v8.88m-4.361 53.2h8.88m-4.519-4.385v8.88m-4.361 53.2h8.88m-4.519-4.385v8.88m-4.361 53.2h8.88m-4.519-4.385v8.88m-4.361 53.2h8.88m-4.519-4.385v8.88m-4.361 53.2h8.88m-4.519-4.385v8.88m-4.361 53.2h8.88m-4.519-4.385v8.88m-4.361 53.2 8.88.001m-4.519-4.386v8.88M21.5 599.836h8.88m-4.519-4.386v8.88M21.5 657.531h8.88m-4.519-4.386v8.88m-4.361 53.2h8.88m-4.519-4.385v8.88M21.5 772.921h8.88m-4.519-4.386v8.88M21.5 830.616h8.88m-4.519-4.386v8.88M21.5 888.311h8.88m-4.519-4.386v8.88M21.5 946.006h8.88m-4.519-4.386v8.88M68.278 22.885h8.88m-4.52-4.385v8.88m-4.36 53.2h8.88m-4.52-4.385v8.88m-4.36 53.2h8.88m-4.52-4.385v8.88m-4.36 53.2h8.88m-4.52-4.385v8.88m-4.36 53.2h8.88m-4.52-4.385v8.88m-4.36 53.2h8.88m-4.52-4.385v8.88m-4.36 53.2h8.88m-4.52-4.385v8.88m-4.36 53.2h8.88m-4.52-4.385v8.88m-4.36 53.2h8.88m-4.52-4.385v8.88m-4.36 53.2 8.88.001m-4.52-4.386v8.88m-4.36 53.201h8.88m-4.52-4.386v8.88m-4.36 53.201h8.88m-4.52-4.386v8.88m-4.36 53.2h8.88m-4.52-4.385v8.88m-4.36 53.201h8.88m-4.52-4.386v8.88m-4.36 53.201h8.88m-4.52-4.386v8.88m-4.36 53.201h8.88m-4.52-4.386v8.88m-4.36 53.201h8.88m-4.52-4.386v8.88m42.418-927.615h8.879m-4.519-4.385v8.88m-4.36 53.2h8.879m-4.519-4.385v8.88m-4.36 53.2h8.879m-4.519-4.385v8.88m-4.36 53.2h8.879m-4.519-4.385v8.88m-4.36 53.2h8.879m-4.519-4.385v8.88m-4.36 53.2h8.879m-4.519-4.385v8.88m-4.36 53.2h8.879m-4.519-4.385v8.88m-4.36 53.2h8.879m-4.519-4.385v8.88m-4.36 53.2h8.879m-4.519-4.385v8.88m-4.36 53.2 8.879.001m-4.519-4.386v8.88m-4.36 53.201h8.879m-4.519-4.386v8.88m-4.36 53.201h8.879m-4.519-4.386v8.88m-4.36 53.2h8.879m-4.519-4.385v8.88m-4.36 53.201h8.879m-4.519-4.386v8.88m-4.36 53.201h8.879m-4.519-4.386v8.88m-4.36 53.201h8.879m-4.519-4.386v8.88m-4.36 53.201h8.879m-4.519-4.386v8.88m42.417-927.615h8.88m-4.519-4.385v8.88m-4.361 53.2h8.88m-4.519-4.385v8.88m-4.361 53.2h8.88m-4.519-4.385v8.88m-4.361 53.2h8.88m-4.519-4.385v8.88m-4.361 53.2h8.88m-4.519-4.385v8.88m-4.361 53.2h8.88m-4.519-4.385v8.88m-4.361 53.2h8.88m-4.519-4.385v8.88m-4.361 53.2h8.88m-4.519-4.385v8.88m-4.361 53.2h8.88m-4.519-4.385v8.88m-4.361 53.2 8.88.001m-4.519-4.386v8.88m-4.361 53.201h8.88m-4.519-4.386v8.88m-4.361 53.201h8.88m-4.519-4.386v8.88m-4.361 53.2h8.88m-4.519-4.385v8.88m-4.361 53.201h8.88m-4.519-4.386v8.88m-4.361 53.201h8.88m-4.519-4.386v8.88m-4.361 53.201h8.88m-4.519-4.386v8.88m-4.361 53.201h8.88m-4.519-4.386v8.88m42.417-927.615h8.88m-4.519-4.385v8.88m-4.361 53.2h8.88m-4.519-4.385v8.88m-4.361 53.2h8.88m-4.519-4.385v8.88m-4.361 53.2h8.88m-4.519-4.385v8.88m-4.361 53.2h8.88m-4.519-4.385v8.88m-4.361 53.2h8.88m-4.519-4.385v8.88m-4.361 53.2h8.88m-4.519-4.385v8.88m-4.361 53.2h8.88m-4.519-4.385v8.88m-4.361 53.2h8.88m-4.519-4.385v8.88m-4.361 53.2 8.88.001m-4.519-4.386v8.88m-4.361 53.201h8.88m-4.519-4.386v8.88m-4.361 53.201h8.88m-4.519-4.386v8.88m-4.361 53.2h8.88m-4.519-4.385v8.88m-4.361 53.201h8.88m-4.519-4.386v8.88m-4.361 53.201h8.88m-4.519-4.386v8.88m-4.361 53.201h8.88m-4.519-4.386v8.88m-4.361 53.201h8.88m-4.519-4.386v8.88m42.417-927.615h8.88M259.75 18.5v8.88m-4.361 53.2h8.88m-4.519-4.385v8.88m-4.361 53.2h8.88m-4.519-4.385v8.88m-4.361 53.2h8.88m-4.519-4.385v8.88m-4.361 53.2h8.88m-4.519-4.385v8.88m-4.361 53.2h8.88m-4.519-4.385v8.88m-4.361 53.2h8.88m-4.519-4.385v8.88m-4.361 53.2h8.88m-4.519-4.385v8.88m-4.361 53.2h8.88m-4.519-4.385v8.88m-4.361 53.2 8.88.001m-4.519-4.386v8.88m-4.361 53.201h8.88m-4.519-4.386v8.88m-4.361 53.201h8.88m-4.519-4.386v8.88m-4.361 53.2h8.88m-4.519-4.385v8.88m-4.361 53.201h8.88m-4.519-4.386v8.88m-4.361 53.201h8.88m-4.519-4.386v8.88m-4.361 53.201h8.88m-4.519-4.386v8.88m-4.361 53.201h8.88m-4.519-4.386v8.88m42.417-927.615h8.88m-4.52-4.385v8.88m-4.36 53.2h8.88m-4.52-4.385v8.88m-4.36 53.2h8.88m-4.52-4.385v8.88m-4.36 53.2h8.88m-4.52-4.385v8.88m-4.36 53.2h8.88m-4.52-4.385v8.88m-4.36 53.2h8.88m-4.52-4.385v8.88m-4.36 53.2h8.88m-4.52-4.385v8.88m-4.36 53.2h8.88m-4.52-4.385v8.88m-4.36 53.2h8.88m-4.52-4.385v8.88m-4.36 53.2 8.88.001m-4.52-4.386v8.88m-4.36 53.201h8.88m-4.52-4.386v8.88m-4.36 53.201h8.88m-4.52-4.386v8.88m-4.36 53.2h8.88m-4.52-4.385v8.88m-4.36 53.201h8.88m-4.52-4.386v8.88m-4.36 53.201h8.88m-4.52-4.386v8.88m-4.36 53.201h8.88m-4.52-4.386v8.88m-4.36 53.201h8.88m-4.52-4.386v8.88m42.417-927.615h8.88m-4.519-4.385v8.88m-4.361 53.2h8.88m-4.519-4.385v8.88m-4.361 53.2h8.88m-4.519-4.385v8.88m-4.361 53.2h8.88m-4.519-4.385v8.88m-4.361 53.2h8.88m-4.519-4.385v8.88m-4.361 53.2h8.88m-4.519-4.385v8.88m-4.361 53.2h8.88m-4.519-4.385v8.88m-4.361 53.2h8.88m-4.519-4.385v8.88m-4.361 53.2h8.88m-4.519-4.385v8.88m-4.361 53.2 8.88.001m-4.519-4.386v8.88m-4.361 53.201h8.88m-4.519-4.386v8.88m-4.361 53.201h8.88m-4.519-4.386v8.88m-4.361 53.2h8.88m-4.519-4.385v8.88m-4.361 53.201h8.88m-4.519-4.386v8.88m-4.361 53.201h8.88m-4.519-4.386v8.88m-4.361 53.201h8.88m-4.519-4.386v8.88m-4.361 53.201h8.88m-4.519-4.386v8.88m42.417-927.615h8.88m-4.519-4.385v8.88m-4.361 53.2h8.88m-4.519-4.385v8.88m-4.361 53.2h8.88m-4.519-4.385v8.88m-4.361 53.2h8.88m-4.519-4.385v8.88m-4.361 53.2h8.88m-4.519-4.385v8.88m-4.361 53.2h8.88m-4.519-4.385v8.88m-4.361 53.2h8.88m-4.519-4.385v8.88m-4.361 53.2h8.88m-4.519-4.385v8.88m-4.361 53.2h8.88m-4.519-4.385v8.88m-4.361 53.2 8.88.001m-4.519-4.386v8.88m-4.361 53.201h8.88m-4.519-4.386v8.88m-4.361 53.201h8.88m-4.519-4.386v8.88m-4.361 53.2h8.88m-4.519-4.385v8.88m-4.361 53.201h8.88m-4.519-4.386v8.88m-4.361 53.201h8.88m-4.519-4.386v8.88m-4.361 53.201h8.88m-4.519-4.386v8.88m-4.361 53.201h8.88m-4.519-4.386v8.88M442.5 22.885h8.88m-4.519-4.385v8.88m-4.361 53.2h8.88m-4.519-4.385v8.88m-4.361 53.2h8.88m-4.519-4.385v8.88m-4.361 53.2h8.88m-4.519-4.385v8.88m-4.361 53.2h8.88m-4.519-4.385v8.88m-4.361 53.2h8.88m-4.519-4.385v8.88m-4.361 53.2h8.88m-4.519-4.385v8.88m-4.361 53.2h8.88m-4.519-4.385v8.88m-4.361 53.2h8.88m-4.519-4.385v8.88m-4.361 53.2 8.88.001m-4.519-4.386v8.88m-4.361 53.201h8.88m-4.519-4.386v8.88m-4.361 53.201h8.88m-4.519-4.386v8.88m-4.361 53.2h8.88m-4.519-4.385v8.88m-4.361 53.201h8.88m-4.519-4.386v8.88m-4.361 53.201h8.88m-4.519-4.386v8.88m-4.361 53.201h8.88m-4.519-4.386v8.88m-4.361 53.201h8.88m-4.519-4.386v8.88" opacity=".4" stroke="#2BFFE8" stroke-width=".555"/></svg>