<svg width="2066" height="1154" fill="none" xmlns="http://www.w3.org/2000/svg"><g opacity=".4" stroke="#2BFFE8" stroke-width=".555" clip-path="url(#a)"><path d="M72 78.885h8.88M76.361 74.5v8.88M72 168.145h8.88m-4.519-4.385v8.88M72 257.405h8.88m-4.519-4.385v8.88M72 346.665h8.88m-4.519-4.385v8.88M72 435.925h8.88m-4.519-4.385v8.88M72 525.185h8.88m-4.519-4.385v8.88M72 614.445h8.88m-4.519-4.385v8.88M72 703.705h8.88m-4.519-4.385v8.88M72 792.965h8.88m-4.519-4.385v8.88M72 882.225h8.88m-4.519-4.385v8.88M72 971.486l8.88-.001m-4.519-4.385v8.88M72 1060.75h8.88m-4.519-4.39v8.88M72 1150.01h8.88m-4.519-4.39v8.88M148.24 78.885h8.88m-4.519-4.385v8.88m-4.361 84.765h8.88m-4.519-4.385v8.88m-4.361 84.765h8.88m-4.519-4.385v8.88m-4.361 84.765h8.88m-4.519-4.385v8.88m-4.361 84.765h8.88m-4.519-4.385v8.88m-4.361 84.765h8.88m-4.519-4.385v8.88m-4.361 84.765h8.88m-4.519-4.385v8.88m-4.361 84.765h8.88m-4.519-4.385v8.88m-4.361 84.765h8.88m-4.519-4.385v8.88m-4.361 84.765h8.88m-4.519-4.385v8.88m-4.361 84.766 8.88-.001m-4.519-4.385v8.88m-4.361 84.77h8.88m-4.519-4.39v8.88m-4.361 84.77h8.88m-4.519-4.39v8.88M224.48 78.885h8.88m-4.519-4.385v8.88m-4.361 84.765h8.88m-4.519-4.385v8.88m-4.361 84.765h8.88m-4.519-4.385v8.88m-4.361 84.765h8.88m-4.519-4.385v8.88m-4.361 84.765h8.88m-4.519-4.385v8.88m-4.361 84.765h8.88m-4.519-4.385v8.88m-4.361 84.765h8.88m-4.519-4.385v8.88m-4.361 84.765h8.88m-4.519-4.385v8.88m-4.361 84.765h8.88m-4.519-4.385v8.88m-4.361 84.765h8.88m-4.519-4.385v8.88m-4.361 84.766 8.88-.001m-4.519-4.385v8.88m-4.361 84.77h8.88m-4.519-4.39v8.88m-4.361 84.77h8.88m-4.519-4.39v8.88M300.72 78.885h8.88m-4.519-4.385v8.88m-4.361 84.765h8.88m-4.519-4.385v8.88m-4.361 84.765h8.88m-4.519-4.385v8.88m-4.361 84.765h8.88m-4.519-4.385v8.88m-4.361 84.765h8.88m-4.519-4.385v8.88m-4.361 84.765h8.88m-4.519-4.385v8.88m-4.361 84.765h8.88m-4.519-4.385v8.88m-4.361 84.765h8.88m-4.519-4.385v8.88m-4.361 84.765h8.88m-4.519-4.385v8.88m-4.361 84.765h8.88m-4.519-4.385v8.88m-4.361 84.766 8.88-.001m-4.519-4.385v8.88m-4.361 84.77h8.88m-4.519-4.39v8.88m-4.361 84.77h8.88m-4.519-4.39v8.88M376.96 78.885h8.88m-4.519-4.385v8.88m-4.361 84.765h8.88m-4.519-4.385v8.88m-4.361 84.765h8.88m-4.519-4.385v8.88m-4.361 84.765h8.88m-4.519-4.385v8.88m-4.361 84.765h8.88m-4.519-4.385v8.88m-4.361 84.765h8.88m-4.519-4.385v8.88m-4.361 84.765h8.88m-4.519-4.385v8.88m-4.361 84.765h8.88m-4.519-4.385v8.88m-4.361 84.765h8.88m-4.519-4.385v8.88m-4.361 84.765h8.88m-4.519-4.385v8.88m-4.361 84.766 8.88-.001m-4.519-4.385v8.88m-4.361 84.77h8.88m-4.519-4.39v8.88m-4.361 84.77h8.88m-4.519-4.39v8.88M453.2 78.885h8.88m-4.519-4.385v8.88m-4.361 84.765h8.88m-4.519-4.385v8.88m-4.361 84.765h8.88m-4.519-4.385v8.88m-4.361 84.765h8.88m-4.519-4.385v8.88m-4.361 84.765h8.88m-4.519-4.385v8.88m-4.361 84.765h8.88m-4.519-4.385v8.88m-4.361 84.765h8.88m-4.519-4.385v8.88m-4.361 84.765h8.88m-4.519-4.385v8.88m-4.361 84.765h8.88m-4.519-4.385v8.88m-4.361 84.765h8.88m-4.519-4.385v8.88m-4.361 84.766 8.88-.001m-4.519-4.385v8.88m-4.361 84.77h8.88m-4.519-4.39v8.88m-4.361 84.77h8.88m-4.519-4.39v8.88M529.44 78.885h8.88m-4.519-4.385v8.88m-4.361 84.765h8.88m-4.519-4.385v8.88m-4.361 84.765h8.88m-4.519-4.385v8.88m-4.361 84.765h8.88m-4.519-4.385v8.88m-4.361 84.765h8.88m-4.519-4.385v8.88m-4.361 84.765h8.88m-4.519-4.385v8.88m-4.361 84.765h8.88m-4.519-4.385v8.88m-4.361 84.765h8.88m-4.519-4.385v8.88m-4.361 84.765h8.88m-4.519-4.385v8.88m-4.361 84.765h8.88m-4.519-4.385v8.88m-4.361 84.766 8.88-.001m-4.519-4.385v8.88m-4.361 84.77h8.88m-4.519-4.39v8.88m-4.361 84.77h8.88m-4.519-4.39v8.88M605.68 78.885h8.88m-4.519-4.385v8.88m-4.361 84.765h8.88m-4.519-4.385v8.88m-4.361 84.765h8.88m-4.519-4.385v8.88m-4.361 84.765h8.88m-4.519-4.385v8.88m-4.361 84.765h8.88m-4.519-4.385v8.88m-4.361 84.765h8.88m-4.519-4.385v8.88m-4.361 84.765h8.88m-4.519-4.385v8.88m-4.361 84.765h8.88m-4.519-4.385v8.88m-4.361 84.765h8.88m-4.519-4.385v8.88m-4.361 84.765h8.88m-4.519-4.385v8.88m-4.361 84.766 8.88-.001m-4.519-4.385v8.88m-4.361 84.77h8.88m-4.519-4.39v8.88m-4.361 84.77h8.88m-4.519-4.39v8.88M681.92 78.885h8.88m-4.519-4.385v8.88m-4.361 84.765h8.88m-4.519-4.385v8.88m-4.361 84.765h8.88m-4.519-4.385v8.88m-4.361 84.765h8.88m-4.519-4.385v8.88m-4.361 84.765h8.88m-4.519-4.385v8.88m-4.361 84.765h8.88m-4.519-4.385v8.88m-4.361 84.765h8.88m-4.519-4.385v8.88m-4.361 84.765h8.88m-4.519-4.385v8.88m-4.361 84.765h8.88m-4.519-4.385v8.88m-4.361 84.765h8.88m-4.519-4.385v8.88m-4.361 84.766 8.88-.001m-4.519-4.385v8.88m-4.361 84.77h8.88m-4.519-4.39v8.88m-4.361 84.77h8.88m-4.519-4.39v8.88M758.16 78.885h8.88m-4.519-4.385v8.88m-4.361 84.765h8.88m-4.519-4.385v8.88m-4.361 84.765h8.88m-4.519-4.385v8.88m-4.361 84.765h8.88m-4.519-4.385v8.88m-4.361 84.765h8.88m-4.519-4.385v8.88m-4.361 84.765h8.88m-4.519-4.385v8.88m-4.361 84.765h8.88m-4.519-4.385v8.88m-4.361 84.765h8.88m-4.519-4.385v8.88m-4.361 84.765h8.88m-4.519-4.385v8.88m-4.361 84.765h8.88m-4.519-4.385v8.88m-4.361 84.766 8.88-.001m-4.519-4.385v8.88m-4.361 84.77h8.88m-4.519-4.39v8.88m-4.361 84.77h8.88m-4.519-4.39v8.88M834.4 78.885h8.88m-4.519-4.385v8.88m-4.361 84.765h8.88m-4.519-4.385v8.88m-4.361 84.765h8.88m-4.519-4.385v8.88m-4.361 84.765h8.88m-4.519-4.385v8.88m-4.361 84.765h8.88m-4.519-4.385v8.88m-4.361 84.765h8.88m-4.519-4.385v8.88m-4.361 84.765h8.88m-4.519-4.385v8.88m-4.361 84.765h8.88m-4.519-4.385v8.88m-4.361 84.765h8.88m-4.519-4.385v8.88m-4.361 84.765h8.88m-4.519-4.385v8.88m-4.361 84.766 8.88-.001m-4.519-4.385v8.88m-4.361 84.77h8.88m-4.519-4.39v8.88m-4.361 84.77h8.88m-4.519-4.39v8.88M910.64 78.885h8.88m-4.519-4.385v8.88m-4.361 84.765h8.88m-4.519-4.385v8.88m-4.361 84.765h8.88m-4.519-4.385v8.88m-4.361 84.765h8.88m-4.519-4.385v8.88m-4.361 84.765h8.88m-4.519-4.385v8.88m-4.361 84.765h8.88m-4.519-4.385v8.88m-4.361 84.765h8.88m-4.519-4.385v8.88m-4.361 84.765h8.88m-4.519-4.385v8.88m-4.361 84.765h8.88m-4.519-4.385v8.88m-4.361 84.765h8.88m-4.519-4.385v8.88m-4.361 84.766 8.88-.001m-4.519-4.385v8.88m-4.361 84.77h8.88m-4.519-4.39v8.88m-4.361 84.77h8.88m-4.519-4.39v8.88M986.88 78.885h8.88m-4.519-4.385v8.88m-4.361 84.765h8.88m-4.519-4.385v8.88m-4.361 84.765h8.88m-4.519-4.385v8.88m-4.361 84.765h8.88m-4.519-4.385v8.88m-4.361 84.765h8.88m-4.519-4.385v8.88m-4.361 84.765h8.88m-4.519-4.385v8.88m-4.361 84.765h8.88m-4.519-4.385v8.88m-4.361 84.765h8.88m-4.519-4.385v8.88m-4.361 84.765h8.88m-4.519-4.385v8.88m-4.361 84.765h8.88m-4.519-4.385v8.88m-4.361 84.766 8.88-.001m-4.519-4.385v8.88m-4.361 84.77h8.88m-4.519-4.39v8.88m-4.361 84.77h8.88m-4.519-4.39v8.88M1063.12 78.885h8.88m-4.52-4.385v8.88m-4.36 84.765h8.88m-4.52-4.385v8.88m-4.36 84.765h8.88m-4.52-4.385v8.88m-4.36 84.765h8.88m-4.52-4.385v8.88m-4.36 84.765h8.88m-4.52-4.385v8.88m-4.36 84.765h8.88m-4.52-4.385v8.88m-4.36 84.765h8.88m-4.52-4.385v8.88m-4.36 84.765h8.88m-4.52-4.385v8.88m-4.36 84.765h8.88m-4.52-4.385v8.88m-4.36 84.765h8.88m-4.52-4.385v8.88m-4.36 84.766 8.88-.001m-4.52-4.385v8.88m-4.36 84.77h8.88m-4.52-4.39v8.88m-4.36 84.77h8.88m-4.52-4.39v8.88m71.88-1075.615h8.88m-4.52-4.385v8.88m-4.36 84.765h8.88m-4.52-4.385v8.88m-4.36 84.765h8.88m-4.52-4.385v8.88m-4.36 84.765h8.88m-4.52-4.385v8.88m-4.36 84.765h8.88m-4.52-4.385v8.88m-4.36 84.765h8.88m-4.52-4.385v8.88m-4.36 84.765h8.88m-4.52-4.385v8.88m-4.36 84.765h8.88m-4.52-4.385v8.88m-4.36 84.765h8.88m-4.52-4.385v8.88m-4.36 84.765h8.88m-4.52-4.385v8.88m-4.36 84.766 8.88-.001m-4.52-4.385v8.88m-4.36 84.77h8.88m-4.52-4.39v8.88m-4.36 84.77h8.88m-4.52-4.39v8.88M1215.6 78.885h8.88m-4.52-4.385v8.88m-4.36 84.765h8.88m-4.52-4.385v8.88m-4.36 84.765h8.88m-4.52-4.385v8.88m-4.36 84.765h8.88m-4.52-4.385v8.88m-4.36 84.765h8.88m-4.52-4.385v8.88m-4.36 84.765h8.88m-4.52-4.385v8.88m-4.36 84.765h8.88m-4.52-4.385v8.88m-4.36 84.765h8.88m-4.52-4.385v8.88m-4.36 84.765h8.88m-4.52-4.385v8.88m-4.36 84.765h8.88m-4.52-4.385v8.88m-4.36 84.766 8.88-.001m-4.52-4.385v8.88m-4.36 84.77h8.88m-4.52-4.39v8.88m-4.36 84.77h8.88m-4.52-4.39v8.88m71.88-1075.615h8.88m-4.52-4.385v8.88m-4.36 84.765h8.88m-4.52-4.385v8.88m-4.36 84.765h8.88m-4.52-4.385v8.88m-4.36 84.765h8.88m-4.52-4.385v8.88m-4.36 84.765h8.88m-4.52-4.385v8.88m-4.36 84.765h8.88m-4.52-4.385v8.88m-4.36 84.765h8.88m-4.52-4.385v8.88m-4.36 84.765h8.88m-4.52-4.385v8.88m-4.36 84.765h8.88m-4.52-4.385v8.88m-4.36 84.765h8.88m-4.52-4.385v8.88m-4.36 84.766 8.88-.001m-4.52-4.385v8.88m-4.36 84.77h8.88m-4.52-4.39v8.88m-4.36 84.77h8.88m-4.52-4.39v8.88m71.88-1075.615h8.88m-4.52-4.385v8.88m-4.36 84.765h8.88m-4.52-4.385v8.88m-4.36 84.765h8.88m-4.52-4.385v8.88m-4.36 84.765h8.88m-4.52-4.385v8.88m-4.36 84.765h8.88m-4.52-4.385v8.88m-4.36 84.765h8.88m-4.52-4.385v8.88m-4.36 84.765h8.88m-4.52-4.385v8.88m-4.36 84.765h8.88m-4.52-4.385v8.88m-4.36 84.765h8.88m-4.52-4.385v8.88m-4.36 84.765h8.88m-4.52-4.385v8.88m-4.36 84.766 8.88-.001m-4.52-4.385v8.88m-4.36 84.77h8.88m-4.52-4.39v8.88m-4.36 84.77h8.88m-4.52-4.39v8.88m71.88-1075.615h8.88m-4.52-4.385v8.88m-4.36 84.765h8.88m-4.52-4.385v8.88m-4.36 84.765h8.88m-4.52-4.385v8.88m-4.36 84.765h8.88m-4.52-4.385v8.88m-4.36 84.765h8.88m-4.52-4.385v8.88m-4.36 84.765h8.88m-4.52-4.385v8.88m-4.36 84.765h8.88m-4.52-4.385v8.88m-4.36 84.765h8.88m-4.52-4.385v8.88m-4.36 84.765h8.88m-4.52-4.385v8.88m-4.36 84.765h8.88m-4.52-4.385v8.88m-4.36 84.766 8.88-.001m-4.52-4.385v8.88m-4.36 84.77h8.88m-4.52-4.39v8.88m-4.36 84.77h8.88m-4.52-4.39v8.88m71.88-1075.615h8.88m-4.52-4.385v8.88m-4.36 84.765h8.88m-4.52-4.385v8.88m-4.36 84.765h8.88m-4.52-4.385v8.88m-4.36 84.765h8.88m-4.52-4.385v8.88m-4.36 84.765h8.88m-4.52-4.385v8.88m-4.36 84.765h8.88m-4.52-4.385v8.88m-4.36 84.765h8.88m-4.52-4.385v8.88m-4.36 84.765h8.88m-4.52-4.385v8.88m-4.36 84.765h8.88m-4.52-4.385v8.88m-4.36 84.765h8.88m-4.52-4.385v8.88m-4.36 84.766 8.88-.001m-4.52-4.385v8.88m-4.36 84.77h8.88m-4.52-4.39v8.88m-4.36 84.77h8.88m-4.52-4.39v8.88M1596.8 78.885h8.88m-4.52-4.385v8.88m-4.36 84.765h8.88m-4.52-4.385v8.88m-4.36 84.765h8.88m-4.52-4.385v8.88m-4.36 84.765h8.88m-4.52-4.385v8.88m-4.36 84.765h8.88m-4.52-4.385v8.88m-4.36 84.765h8.88m-4.52-4.385v8.88m-4.36 84.765h8.88m-4.52-4.385v8.88m-4.36 84.765h8.88m-4.52-4.385v8.88m-4.36 84.765h8.88m-4.52-4.385v8.88m-4.36 84.765h8.88m-4.52-4.385v8.88m-4.36 84.766 8.88-.001m-4.52-4.385v8.88m-4.36 84.77h8.88m-4.52-4.39v8.88m-4.36 84.77h8.88m-4.52-4.39v8.88m71.88-1075.615h8.88m-4.52-4.385v8.88m-4.36 84.765h8.88m-4.52-4.385v8.88m-4.36 84.765h8.88m-4.52-4.385v8.88m-4.36 84.765h8.88m-4.52-4.385v8.88m-4.36 84.765h8.88m-4.52-4.385v8.88m-4.36 84.765h8.88m-4.52-4.385v8.88m-4.36 84.765h8.88m-4.52-4.385v8.88m-4.36 84.765h8.88m-4.52-4.385v8.88m-4.36 84.765h8.88m-4.52-4.385v8.88m-4.36 84.765h8.88m-4.52-4.385v8.88m-4.36 84.766 8.88-.001m-4.52-4.385v8.88m-4.36 84.77h8.88m-4.52-4.39v8.88m-4.36 84.77h8.88m-4.52-4.39v8.88m71.88-1075.615h8.88m-4.52-4.385v8.88m-4.36 84.765h8.88m-4.52-4.385v8.88m-4.36 84.765h8.88m-4.52-4.385v8.88m-4.36 84.765h8.88m-4.52-4.385v8.88m-4.36 84.765h8.88m-4.52-4.385v8.88m-4.36 84.765h8.88m-4.52-4.385v8.88m-4.36 84.765h8.88m-4.52-4.385v8.88m-4.36 84.765h8.88m-4.52-4.385v8.88m-4.36 84.765h8.88m-4.52-4.385v8.88m-4.36 84.765h8.88m-4.52-4.385v8.88m-4.36 84.766 8.88-.001m-4.52-4.385v8.88m-4.36 84.77h8.88m-4.52-4.39v8.88m-4.36 84.77h8.88m-4.52-4.39v8.88m71.88-1075.615h8.88m-4.52-4.385v8.88m-4.36 84.765h8.88m-4.52-4.385v8.88m-4.36 84.765h8.88m-4.52-4.385v8.88m-4.36 84.765h8.88m-4.52-4.385v8.88m-4.36 84.765h8.88m-4.52-4.385v8.88m-4.36 84.765h8.88m-4.52-4.385v8.88m-4.36 84.765h8.88m-4.52-4.385v8.88m-4.36 84.765h8.88m-4.52-4.385v8.88m-4.36 84.765h8.88m-4.52-4.385v8.88m-4.36 84.765h8.88m-4.52-4.385v8.88m-4.36 84.766 8.88-.001m-4.52-4.385v8.88m-4.36 84.77h8.88m-4.52-4.39v8.88m-4.36 84.77h8.88m-4.52-4.39v8.88m71.88-1075.615h8.88m-4.52-4.385v8.88m-4.36 84.765h8.88m-4.52-4.385v8.88m-4.36 84.765h8.88m-4.52-4.385v8.88m-4.36 84.765h8.88m-4.52-4.385v8.88m-4.36 84.765h8.88m-4.52-4.385v8.88m-4.36 84.765h8.88m-4.52-4.385v8.88m-4.36 84.765h8.88m-4.52-4.385v8.88m-4.36 84.765h8.88m-4.52-4.385v8.88m-4.36 84.765h8.88m-4.52-4.385v8.88m-4.36 84.765h8.88m-4.52-4.385v8.88m-4.36 84.766 8.88-.001m-4.52-4.385v8.88m-4.36 84.77h8.88m-4.52-4.39v8.88m-4.36 84.77h8.88m-4.52-4.39v8.88M1978 78.885h8.88m-4.52-4.385v8.88m-4.36 84.765h8.88m-4.52-4.385v8.88m-4.36 84.765h8.88m-4.52-4.385v8.88m-4.36 84.765h8.88m-4.52-4.385v8.88m-4.36 84.765h8.88m-4.52-4.385v8.88m-4.36 84.765h8.88m-4.52-4.385v8.88m-4.36 84.765h8.88m-4.52-4.385v8.88m-4.36 84.765h8.88m-4.52-4.385v8.88m-4.36 84.765h8.88m-4.52-4.385v8.88m-4.36 84.765h8.88m-4.52-4.385v8.88m-4.36 84.766 8.88-.001m-4.52-4.385v8.88m-4.36 84.77h8.88m-4.52-4.39v8.88m-4.36 84.77h8.88m-4.52-4.39v8.88"/></g><defs><clipPath id="a"><path fill="#fff" d="M0 0h2066v1154H0z"/></clipPath></defs></svg>