<svg width="1971" height="1147" fill="none" xmlns="http://www.w3.org/2000/svg"><g opacity=".4" stroke="#2BFFE8" stroke-width=".555" clip-path="url(#a)"><path d="M23 37.885h8.88M27.361 33.5v8.88M23 127.145h8.88m-4.519-4.385v8.88M23 216.405h8.88m-4.519-4.385v8.88M23 305.665h8.88m-4.519-4.385v8.88M23 394.925h8.88m-4.519-4.385v8.88M23 484.185h8.88m-4.519-4.385v8.88M23 573.445h8.88m-4.519-4.385v8.88M23 662.705h8.88m-4.519-4.385v8.88M23 751.965h8.88m-4.519-4.385v8.88M23 841.225h8.88m-4.519-4.385v8.88M23 930.486l8.88-.001m-4.519-4.385v8.88M23 1019.75h8.88m-4.519-4.39v8.88M23 1109.01h8.88m-4.519-4.39v8.88M99.24 37.885h8.88m-4.519-4.385v8.88m-4.361 84.765h8.88m-4.519-4.385v8.88m-4.361 84.765h8.88m-4.519-4.385v8.88m-4.361 84.765h8.88m-4.519-4.385v8.88m-4.361 84.765h8.88m-4.519-4.385v8.88m-4.361 84.765h8.88m-4.519-4.385v8.88m-4.361 84.765h8.88m-4.519-4.385v8.88m-4.361 84.765h8.88m-4.519-4.385v8.88m-4.361 84.765h8.88m-4.519-4.385v8.88m-4.361 84.765h8.88m-4.519-4.385v8.88m-4.361 84.766 8.88-.001m-4.519-4.385v8.88m-4.361 84.77h8.88m-4.519-4.39v8.88m-4.361 84.77h8.88m-4.519-4.39v8.88M175.48 37.885h8.88m-4.519-4.385v8.88m-4.361 84.765h8.88m-4.519-4.385v8.88m-4.361 84.765h8.88m-4.519-4.385v8.88m-4.361 84.765h8.88m-4.519-4.385v8.88m-4.361 84.765h8.88m-4.519-4.385v8.88m-4.361 84.765h8.88m-4.519-4.385v8.88m-4.361 84.765h8.88m-4.519-4.385v8.88m-4.361 84.765h8.88m-4.519-4.385v8.88m-4.361 84.765h8.88m-4.519-4.385v8.88m-4.361 84.765h8.88m-4.519-4.385v8.88m-4.361 84.766 8.88-.001m-4.519-4.385v8.88m-4.361 84.77h8.88m-4.519-4.39v8.88m-4.361 84.77h8.88m-4.519-4.39v8.88M251.72 37.885h8.88m-4.519-4.385v8.88m-4.361 84.765h8.88m-4.519-4.385v8.88m-4.361 84.765h8.88m-4.519-4.385v8.88m-4.361 84.765h8.88m-4.519-4.385v8.88m-4.361 84.765h8.88m-4.519-4.385v8.88m-4.361 84.765h8.88m-4.519-4.385v8.88m-4.361 84.765h8.88m-4.519-4.385v8.88m-4.361 84.765h8.88m-4.519-4.385v8.88m-4.361 84.765h8.88m-4.519-4.385v8.88m-4.361 84.765h8.88m-4.519-4.385v8.88m-4.361 84.766 8.88-.001m-4.519-4.385v8.88m-4.361 84.77h8.88m-4.519-4.39v8.88m-4.361 84.77h8.88m-4.519-4.39v8.88M327.96 37.885h8.88m-4.519-4.385v8.88m-4.361 84.765h8.88m-4.519-4.385v8.88m-4.361 84.765h8.88m-4.519-4.385v8.88m-4.361 84.765h8.88m-4.519-4.385v8.88m-4.361 84.765h8.88m-4.519-4.385v8.88m-4.361 84.765h8.88m-4.519-4.385v8.88m-4.361 84.765h8.88m-4.519-4.385v8.88m-4.361 84.765h8.88m-4.519-4.385v8.88m-4.361 84.765h8.88m-4.519-4.385v8.88m-4.361 84.765h8.88m-4.519-4.385v8.88m-4.361 84.766 8.88-.001m-4.519-4.385v8.88m-4.361 84.77h8.88m-4.519-4.39v8.88m-4.361 84.77h8.88m-4.519-4.39v8.88M404.2 37.885h8.88m-4.519-4.385v8.88m-4.361 84.765h8.88m-4.519-4.385v8.88m-4.361 84.765h8.88m-4.519-4.385v8.88m-4.361 84.765h8.88m-4.519-4.385v8.88m-4.361 84.765h8.88m-4.519-4.385v8.88m-4.361 84.765h8.88m-4.519-4.385v8.88m-4.361 84.765h8.88m-4.519-4.385v8.88m-4.361 84.765h8.88m-4.519-4.385v8.88m-4.361 84.765h8.88m-4.519-4.385v8.88m-4.361 84.765h8.88m-4.519-4.385v8.88m-4.361 84.766 8.88-.001m-4.519-4.385v8.88m-4.361 84.77h8.88m-4.519-4.39v8.88m-4.361 84.77h8.88m-4.519-4.39v8.88M480.44 37.885h8.88m-4.519-4.385v8.88m-4.361 84.765h8.88m-4.519-4.385v8.88m-4.361 84.765h8.88m-4.519-4.385v8.88m-4.361 84.765h8.88m-4.519-4.385v8.88m-4.361 84.765h8.88m-4.519-4.385v8.88m-4.361 84.765h8.88m-4.519-4.385v8.88m-4.361 84.765h8.88m-4.519-4.385v8.88m-4.361 84.765h8.88m-4.519-4.385v8.88m-4.361 84.765h8.88m-4.519-4.385v8.88m-4.361 84.765h8.88m-4.519-4.385v8.88m-4.361 84.766 8.88-.001m-4.519-4.385v8.88m-4.361 84.77h8.88m-4.519-4.39v8.88m-4.361 84.77h8.88m-4.519-4.39v8.88M556.68 37.885h8.88m-4.519-4.385v8.88m-4.361 84.765h8.88m-4.519-4.385v8.88m-4.361 84.765h8.88m-4.519-4.385v8.88m-4.361 84.765h8.88m-4.519-4.385v8.88m-4.361 84.765h8.88m-4.519-4.385v8.88m-4.361 84.765h8.88m-4.519-4.385v8.88m-4.361 84.765h8.88m-4.519-4.385v8.88m-4.361 84.765h8.88m-4.519-4.385v8.88m-4.361 84.765h8.88m-4.519-4.385v8.88m-4.361 84.765h8.88m-4.519-4.385v8.88m-4.361 84.766 8.88-.001m-4.519-4.385v8.88m-4.361 84.77h8.88m-4.519-4.39v8.88m-4.361 84.77h8.88m-4.519-4.39v8.88M632.92 37.885h8.88m-4.519-4.385v8.88m-4.361 84.765h8.88m-4.519-4.385v8.88m-4.361 84.765h8.88m-4.519-4.385v8.88m-4.361 84.765h8.88m-4.519-4.385v8.88m-4.361 84.765h8.88m-4.519-4.385v8.88m-4.361 84.765h8.88m-4.519-4.385v8.88m-4.361 84.765h8.88m-4.519-4.385v8.88m-4.361 84.765h8.88m-4.519-4.385v8.88m-4.361 84.765h8.88m-4.519-4.385v8.88m-4.361 84.765h8.88m-4.519-4.385v8.88m-4.361 84.766 8.88-.001m-4.519-4.385v8.88m-4.361 84.77h8.88m-4.519-4.39v8.88m-4.361 84.77h8.88m-4.519-4.39v8.88M709.16 37.885h8.88m-4.519-4.385v8.88m-4.361 84.765h8.88m-4.519-4.385v8.88m-4.361 84.765h8.88m-4.519-4.385v8.88m-4.361 84.765h8.88m-4.519-4.385v8.88m-4.361 84.765h8.88m-4.519-4.385v8.88m-4.361 84.765h8.88m-4.519-4.385v8.88m-4.361 84.765h8.88m-4.519-4.385v8.88m-4.361 84.765h8.88m-4.519-4.385v8.88m-4.361 84.765h8.88m-4.519-4.385v8.88m-4.361 84.765h8.88m-4.519-4.385v8.88m-4.361 84.766 8.88-.001m-4.519-4.385v8.88m-4.361 84.77h8.88m-4.519-4.39v8.88m-4.361 84.77h8.88m-4.519-4.39v8.88M785.4 37.885h8.88m-4.519-4.385v8.88m-4.361 84.765h8.88m-4.519-4.385v8.88m-4.361 84.765h8.88m-4.519-4.385v8.88m-4.361 84.765h8.88m-4.519-4.385v8.88m-4.361 84.765h8.88m-4.519-4.385v8.88m-4.361 84.765h8.88m-4.519-4.385v8.88m-4.361 84.765h8.88m-4.519-4.385v8.88m-4.361 84.765h8.88m-4.519-4.385v8.88m-4.361 84.765h8.88m-4.519-4.385v8.88m-4.361 84.765h8.88m-4.519-4.385v8.88m-4.361 84.766 8.88-.001m-4.519-4.385v8.88m-4.361 84.77h8.88m-4.519-4.39v8.88m-4.361 84.77h8.88m-4.519-4.39v8.88M861.64 37.885h8.88m-4.519-4.385v8.88m-4.361 84.765h8.88m-4.519-4.385v8.88m-4.361 84.765h8.88m-4.519-4.385v8.88m-4.361 84.765h8.88m-4.519-4.385v8.88m-4.361 84.765h8.88m-4.519-4.385v8.88m-4.361 84.765h8.88m-4.519-4.385v8.88m-4.361 84.765h8.88m-4.519-4.385v8.88m-4.361 84.765h8.88m-4.519-4.385v8.88m-4.361 84.765h8.88m-4.519-4.385v8.88m-4.361 84.765h8.88m-4.519-4.385v8.88m-4.361 84.766 8.88-.001m-4.519-4.385v8.88m-4.361 84.77h8.88m-4.519-4.39v8.88m-4.361 84.77h8.88m-4.519-4.39v8.88M937.88 37.885h8.88m-4.519-4.385v8.88m-4.361 84.765h8.88m-4.519-4.385v8.88m-4.361 84.765h8.88m-4.519-4.385v8.88m-4.361 84.765h8.88m-4.519-4.385v8.88m-4.361 84.765h8.88m-4.519-4.385v8.88m-4.361 84.765h8.88m-4.519-4.385v8.88m-4.361 84.765h8.88m-4.519-4.385v8.88m-4.361 84.765h8.88m-4.519-4.385v8.88m-4.361 84.765h8.88m-4.519-4.385v8.88m-4.361 84.765h8.88m-4.519-4.385v8.88m-4.361 84.766 8.88-.001m-4.519-4.385v8.88m-4.361 84.77h8.88m-4.519-4.39v8.88m-4.361 84.77h8.88m-4.519-4.39v8.88M1014.12 37.885h8.88m-4.52-4.385v8.88m-4.36 84.765h8.88m-4.52-4.385v8.88m-4.36 84.765h8.88m-4.52-4.385v8.88m-4.36 84.765h8.88m-4.52-4.385v8.88m-4.36 84.765h8.88m-4.52-4.385v8.88m-4.36 84.765h8.88m-4.52-4.385v8.88m-4.36 84.765h8.88m-4.52-4.385v8.88m-4.36 84.765h8.88m-4.52-4.385v8.88m-4.36 84.765h8.88m-4.52-4.385v8.88m-4.36 84.765h8.88m-4.52-4.385v8.88m-4.36 84.766 8.88-.001m-4.52-4.385v8.88m-4.36 84.77h8.88m-4.52-4.39v8.88m-4.36 84.77h8.88m-4.52-4.39v8.88m71.88-1075.615h8.88m-4.52-4.385v8.88m-4.36 84.765h8.88m-4.52-4.385v8.88m-4.36 84.765h8.88m-4.52-4.385v8.88m-4.36 84.765h8.88m-4.52-4.385v8.88m-4.36 84.765h8.88m-4.52-4.385v8.88m-4.36 84.765h8.88m-4.52-4.385v8.88m-4.36 84.765h8.88m-4.52-4.385v8.88m-4.36 84.765h8.88m-4.52-4.385v8.88m-4.36 84.765h8.88m-4.52-4.385v8.88m-4.36 84.765h8.88m-4.52-4.385v8.88m-4.36 84.766 8.88-.001m-4.52-4.385v8.88m-4.36 84.77h8.88m-4.52-4.39v8.88m-4.36 84.77h8.88m-4.52-4.39v8.88M1166.6 37.885h8.88m-4.52-4.385v8.88m-4.36 84.765h8.88m-4.52-4.385v8.88m-4.36 84.765h8.88m-4.52-4.385v8.88m-4.36 84.765h8.88m-4.52-4.385v8.88m-4.36 84.765h8.88m-4.52-4.385v8.88m-4.36 84.765h8.88m-4.52-4.385v8.88m-4.36 84.765h8.88m-4.52-4.385v8.88m-4.36 84.765h8.88m-4.52-4.385v8.88m-4.36 84.765h8.88m-4.52-4.385v8.88m-4.36 84.765h8.88m-4.52-4.385v8.88m-4.36 84.766 8.88-.001m-4.52-4.385v8.88m-4.36 84.77h8.88m-4.52-4.39v8.88m-4.36 84.77h8.88m-4.52-4.39v8.88m71.88-1075.615h8.88m-4.52-4.385v8.88m-4.36 84.765h8.88m-4.52-4.385v8.88m-4.36 84.765h8.88m-4.52-4.385v8.88m-4.36 84.765h8.88m-4.52-4.385v8.88m-4.36 84.765h8.88m-4.52-4.385v8.88m-4.36 84.765h8.88m-4.52-4.385v8.88m-4.36 84.765h8.88m-4.52-4.385v8.88m-4.36 84.765h8.88m-4.52-4.385v8.88m-4.36 84.765h8.88m-4.52-4.385v8.88m-4.36 84.765h8.88m-4.52-4.385v8.88m-4.36 84.766 8.88-.001m-4.52-4.385v8.88m-4.36 84.77h8.88m-4.52-4.39v8.88m-4.36 84.77h8.88m-4.52-4.39v8.88m71.88-1075.615h8.88m-4.52-4.385v8.88m-4.36 84.765h8.88m-4.52-4.385v8.88m-4.36 84.765h8.88m-4.52-4.385v8.88m-4.36 84.765h8.88m-4.52-4.385v8.88m-4.36 84.765h8.88m-4.52-4.385v8.88m-4.36 84.765h8.88m-4.52-4.385v8.88m-4.36 84.765h8.88m-4.52-4.385v8.88m-4.36 84.765h8.88m-4.52-4.385v8.88m-4.36 84.765h8.88m-4.52-4.385v8.88m-4.36 84.765h8.88m-4.52-4.385v8.88m-4.36 84.766 8.88-.001m-4.52-4.385v8.88m-4.36 84.77h8.88m-4.52-4.39v8.88m-4.36 84.77h8.88m-4.52-4.39v8.88m71.88-1075.615h8.88m-4.52-4.385v8.88m-4.36 84.765h8.88m-4.52-4.385v8.88m-4.36 84.765h8.88m-4.52-4.385v8.88m-4.36 84.765h8.88m-4.52-4.385v8.88m-4.36 84.765h8.88m-4.52-4.385v8.88m-4.36 84.765h8.88m-4.52-4.385v8.88m-4.36 84.765h8.88m-4.52-4.385v8.88m-4.36 84.765h8.88m-4.52-4.385v8.88m-4.36 84.765h8.88m-4.52-4.385v8.88m-4.36 84.765h8.88m-4.52-4.385v8.88m-4.36 84.766 8.88-.001m-4.52-4.385v8.88m-4.36 84.77h8.88m-4.52-4.39v8.88m-4.36 84.77h8.88m-4.52-4.39v8.88m71.88-1075.615h8.88m-4.52-4.385v8.88m-4.36 84.765h8.88m-4.52-4.385v8.88m-4.36 84.765h8.88m-4.52-4.385v8.88m-4.36 84.765h8.88m-4.52-4.385v8.88m-4.36 84.765h8.88m-4.52-4.385v8.88m-4.36 84.765h8.88m-4.52-4.385v8.88m-4.36 84.765h8.88m-4.52-4.385v8.88m-4.36 84.765h8.88m-4.52-4.385v8.88m-4.36 84.765h8.88m-4.52-4.385v8.88m-4.36 84.765h8.88m-4.52-4.385v8.88m-4.36 84.766 8.88-.001m-4.52-4.385v8.88m-4.36 84.77h8.88m-4.52-4.39v8.88m-4.36 84.77h8.88m-4.52-4.39v8.88M1547.8 37.885h8.88m-4.52-4.385v8.88m-4.36 84.765h8.88m-4.52-4.385v8.88m-4.36 84.765h8.88m-4.52-4.385v8.88m-4.36 84.765h8.88m-4.52-4.385v8.88m-4.36 84.765h8.88m-4.52-4.385v8.88m-4.36 84.765h8.88m-4.52-4.385v8.88m-4.36 84.765h8.88m-4.52-4.385v8.88m-4.36 84.765h8.88m-4.52-4.385v8.88m-4.36 84.765h8.88m-4.52-4.385v8.88m-4.36 84.765h8.88m-4.52-4.385v8.88m-4.36 84.766 8.88-.001m-4.52-4.385v8.88m-4.36 84.77h8.88m-4.52-4.39v8.88m-4.36 84.77h8.88m-4.52-4.39v8.88m71.88-1075.615h8.88m-4.52-4.385v8.88m-4.36 84.765h8.88m-4.52-4.385v8.88m-4.36 84.765h8.88m-4.52-4.385v8.88m-4.36 84.765h8.88m-4.52-4.385v8.88m-4.36 84.765h8.88m-4.52-4.385v8.88m-4.36 84.765h8.88m-4.52-4.385v8.88m-4.36 84.765h8.88m-4.52-4.385v8.88m-4.36 84.765h8.88m-4.52-4.385v8.88m-4.36 84.765h8.88m-4.52-4.385v8.88m-4.36 84.765h8.88m-4.52-4.385v8.88m-4.36 84.766 8.88-.001m-4.52-4.385v8.88m-4.36 84.77h8.88m-4.52-4.39v8.88m-4.36 84.77h8.88m-4.52-4.39v8.88m71.88-1075.615h8.88m-4.52-4.385v8.88m-4.36 84.765h8.88m-4.52-4.385v8.88m-4.36 84.765h8.88m-4.52-4.385v8.88m-4.36 84.765h8.88m-4.52-4.385v8.88m-4.36 84.765h8.88m-4.52-4.385v8.88m-4.36 84.765h8.88m-4.52-4.385v8.88m-4.36 84.765h8.88m-4.52-4.385v8.88m-4.36 84.765h8.88m-4.52-4.385v8.88m-4.36 84.765h8.88m-4.52-4.385v8.88m-4.36 84.765h8.88m-4.52-4.385v8.88m-4.36 84.766 8.88-.001m-4.52-4.385v8.88m-4.36 84.77h8.88m-4.52-4.39v8.88m-4.36 84.77h8.88m-4.52-4.39v8.88m71.88-1075.615h8.88m-4.52-4.385v8.88m-4.36 84.765h8.88m-4.52-4.385v8.88m-4.36 84.765h8.88m-4.52-4.385v8.88m-4.36 84.765h8.88m-4.52-4.385v8.88m-4.36 84.765h8.88m-4.52-4.385v8.88m-4.36 84.765h8.88m-4.52-4.385v8.88m-4.36 84.765h8.88m-4.52-4.385v8.88m-4.36 84.765h8.88m-4.52-4.385v8.88m-4.36 84.765h8.88m-4.52-4.385v8.88m-4.36 84.765h8.88m-4.52-4.385v8.88m-4.36 84.766 8.88-.001m-4.52-4.385v8.88m-4.36 84.77h8.88m-4.52-4.39v8.88m-4.36 84.77h8.88m-4.52-4.39v8.88m71.88-1075.615h8.88m-4.52-4.385v8.88m-4.36 84.765h8.88m-4.52-4.385v8.88m-4.36 84.765h8.88m-4.52-4.385v8.88m-4.36 84.765h8.88m-4.52-4.385v8.88m-4.36 84.765h8.88m-4.52-4.385v8.88m-4.36 84.765h8.88m-4.52-4.385v8.88m-4.36 84.765h8.88m-4.52-4.385v8.88m-4.36 84.765h8.88m-4.52-4.385v8.88m-4.36 84.765h8.88m-4.52-4.385v8.88m-4.36 84.765h8.88m-4.52-4.385v8.88m-4.36 84.766 8.88-.001m-4.52-4.385v8.88m-4.36 84.77h8.88m-4.52-4.39v8.88m-4.36 84.77h8.88m-4.52-4.39v8.88M1929 37.885h8.88m-4.52-4.385v8.88m-4.36 84.765h8.88m-4.52-4.385v8.88m-4.36 84.765h8.88m-4.52-4.385v8.88m-4.36 84.765h8.88m-4.52-4.385v8.88m-4.36 84.765h8.88m-4.52-4.385v8.88m-4.36 84.765h8.88m-4.52-4.385v8.88m-4.36 84.765h8.88m-4.52-4.385v8.88m-4.36 84.765h8.88m-4.52-4.385v8.88m-4.36 84.765h8.88m-4.52-4.385v8.88m-4.36 84.765h8.88m-4.52-4.385v8.88m-4.36 84.766 8.88-.001m-4.52-4.385v8.88m-4.36 84.77h8.88m-4.52-4.39v8.88m-4.36 84.77h8.88m-4.52-4.39v8.88"/></g><defs><clipPath id="a"><path fill="#fff" d="M0 0h1971v1147H0z"/></clipPath></defs></svg>