<svg width="1915" height="1359" fill="none" xmlns="http://www.w3.org/2000/svg"><path d="M0 143.885h8.88M4.361 139.5v8.88M0 233.145h8.88m-4.519-4.385v8.88M0 322.405h8.88m-4.519-4.385v8.88M0 411.665h8.88m-4.519-4.385v8.88M0 500.925h8.88m-4.519-4.385v8.88M0 590.185h8.88M4.361 585.8v8.88M0 679.445h8.88m-4.519-4.385v8.88M0 768.705h8.88m-4.519-4.385v8.88M0 857.965h8.88m-4.519-4.385v8.88M0 947.225h8.88m-4.519-4.385v8.88M0 1036.49h8.88m-4.519-4.39v8.88M0 1125.75h8.88m-4.519-4.39v8.88M0 1215.01h8.88m-4.519-4.39v8.88M76.24 143.885h8.88m-4.519-4.385v8.88m-4.361 84.765h8.88m-4.519-4.385v8.88m-4.361 84.765h8.88m-4.519-4.385v8.88m-4.361 84.765h8.88m-4.519-4.385v8.88m-4.361 84.765h8.88m-4.519-4.385v8.88m-4.361 84.765h8.88m-4.519-4.385v8.88m-4.361 84.765h8.88m-4.519-4.385v8.88m-4.361 84.765h8.88m-4.519-4.385v8.88m-4.361 84.765h8.88m-4.519-4.385v8.88m-4.361 84.765h8.88m-4.519-4.385v8.88m-4.361 84.77h8.88m-4.519-4.39v8.88m-4.361 84.77h8.88m-4.519-4.39v8.88m-4.361 84.77h8.88m-4.519-4.39v8.88M152.48 143.885h8.88m-4.52-4.385v8.88m-4.36 84.765h8.88m-4.52-4.385v8.88m-4.36 84.765h8.88m-4.52-4.385v8.88m-4.36 84.765h8.88m-4.52-4.385v8.88m-4.36 84.765h8.88m-4.52-4.385v8.88m-4.36 84.765h8.88m-4.52-4.385v8.88m-4.36 84.765h8.88m-4.52-4.385v8.88m-4.36 84.765h8.88m-4.52-4.385v8.88m-4.36 84.765h8.88m-4.52-4.385v8.88m-4.36 84.765h8.88m-4.52-4.385v8.88m-4.36 84.77h8.88m-4.52-4.39v8.88m-4.36 84.77h8.88m-4.52-4.39v8.88m-4.36 84.77h8.88m-4.52-4.39v8.88m71.88-1075.615h8.88m-4.519-4.385v8.88m-4.361 84.765h8.88m-4.519-4.385v8.88m-4.361 84.765h8.88m-4.519-4.385v8.88m-4.361 84.765h8.88m-4.519-4.385v8.88m-4.361 84.765h8.88m-4.519-4.385v8.88m-4.361 84.765h8.88m-4.519-4.385v8.88m-4.361 84.765h8.88m-4.519-4.385v8.88m-4.361 84.765h8.88m-4.519-4.385v8.88m-4.361 84.765h8.88m-4.519-4.385v8.88m-4.361 84.765h8.88m-4.519-4.385v8.88m-4.361 84.77h8.88m-4.519-4.39v8.88m-4.361 84.77h8.88m-4.519-4.39v8.88m-4.361 84.77h8.88m-4.519-4.39v8.88M304.96 143.885h8.88m-4.52-4.385v8.88m-4.36 84.765h8.88m-4.52-4.385v8.88m-4.36 84.765h8.88m-4.52-4.385v8.88m-4.36 84.765h8.88m-4.52-4.385v8.88m-4.36 84.765h8.88m-4.52-4.385v8.88m-4.36 84.765h8.88m-4.52-4.385v8.88m-4.36 84.765h8.88m-4.52-4.385v8.88m-4.36 84.765h8.88m-4.52-4.385v8.88m-4.36 84.765h8.88m-4.52-4.385v8.88m-4.36 84.765h8.88m-4.52-4.385v8.88m-4.36 84.77h8.88m-4.52-4.39v8.88m-4.36 84.77h8.88m-4.52-4.39v8.88m-4.36 84.77h8.88m-4.52-4.39v8.88M381.2 143.885h8.88m-4.519-4.385v8.88m-4.361 84.765h8.88m-4.519-4.385v8.88m-4.361 84.765h8.88m-4.519-4.385v8.88m-4.361 84.765h8.88m-4.519-4.385v8.88m-4.361 84.765h8.88m-4.519-4.385v8.88m-4.361 84.765h8.88m-4.519-4.385v8.88m-4.361 84.765h8.88m-4.519-4.385v8.88m-4.361 84.765h8.88m-4.519-4.385v8.88m-4.361 84.765h8.88m-4.519-4.385v8.88m-4.361 84.765h8.88m-4.519-4.385v8.88m-4.361 84.77h8.88m-4.519-4.39v8.88m-4.361 84.77h8.88m-4.519-4.39v8.88m-4.361 84.77h8.88m-4.519-4.39v8.88M457.44 143.885h8.88m-4.52-4.385v8.88m-4.36 84.765h8.88m-4.52-4.385v8.88m-4.36 84.765h8.88m-4.52-4.385v8.88m-4.36 84.765h8.88m-4.52-4.385v8.88m-4.36 84.765h8.88m-4.52-4.385v8.88m-4.36 84.765h8.88m-4.52-4.385v8.88m-4.36 84.765h8.88m-4.52-4.385v8.88m-4.36 84.765h8.88m-4.52-4.385v8.88m-4.36 84.765h8.88m-4.52-4.385v8.88m-4.36 84.765h8.88m-4.52-4.385v8.88m-4.36 84.77h8.88m-4.52-4.39v8.88m-4.36 84.77h8.88m-4.52-4.39v8.88m-4.36 84.77h8.88m-4.52-4.39v8.88m71.88-1075.615h8.88m-4.519-4.385v8.88m-4.361 84.765h8.88m-4.519-4.385v8.88m-4.361 84.765h8.88m-4.519-4.385v8.88m-4.361 84.765h8.88m-4.519-4.385v8.88m-4.361 84.765h8.88m-4.519-4.385v8.88m-4.361 84.765h8.88m-4.519-4.385v8.88m-4.361 84.765h8.88m-4.519-4.385v8.88m-4.361 84.765h8.88m-4.519-4.385v8.88m-4.361 84.765h8.88m-4.519-4.385v8.88m-4.361 84.765h8.88m-4.519-4.385v8.88m-4.361 84.77h8.88m-4.519-4.39v8.88m-4.361 84.77h8.88m-4.519-4.39v8.88m-4.361 84.77h8.88m-4.519-4.39v8.88M609.92 143.885h8.88m-4.52-4.385v8.88m-4.36 84.765h8.88m-4.52-4.385v8.88m-4.36 84.765h8.88m-4.52-4.385v8.88m-4.36 84.765h8.88m-4.52-4.385v8.88m-4.36 84.765h8.88m-4.52-4.385v8.88m-4.36 84.765h8.88m-4.52-4.385v8.88m-4.36 84.765h8.88m-4.52-4.385v8.88m-4.36 84.765h8.88m-4.52-4.385v8.88m-4.36 84.765h8.88m-4.52-4.385v8.88m-4.36 84.765h8.88m-4.52-4.385v8.88m-4.36 84.77h8.88m-4.52-4.39v8.88m-4.36 84.77h8.88m-4.52-4.39v8.88m-4.36 84.77h8.88m-4.52-4.39v8.88m71.88-1075.615h8.88m-4.519-4.385v8.88m-4.361 84.765h8.88m-4.519-4.385v8.88m-4.361 84.765h8.88m-4.519-4.385v8.88m-4.361 84.765h8.88m-4.519-4.385v8.88m-4.361 84.765h8.88m-4.519-4.385v8.88m-4.361 84.765h8.88m-4.519-4.385v8.88m-4.361 84.765h8.88m-4.519-4.385v8.88m-4.361 84.765h8.88m-4.519-4.385v8.88m-4.361 84.765h8.88m-4.519-4.385v8.88m-4.361 84.765h8.88m-4.519-4.385v8.88m-4.361 84.77h8.88m-4.519-4.39v8.88m-4.361 84.77h8.88m-4.519-4.39v8.88m-4.361 84.77h8.88m-4.519-4.39v8.88M762.4 143.885h8.88m-4.52-4.385v8.88m-4.36 84.765h8.88m-4.52-4.385v8.88m-4.36 84.765h8.88m-4.52-4.385v8.88m-4.36 84.765h8.88m-4.52-4.385v8.88m-4.36 84.765h8.88m-4.52-4.385v8.88m-4.36 84.765h8.88m-4.52-4.385v8.88m-4.36 84.765h8.88m-4.52-4.385v8.88m-4.36 84.765h8.88m-4.52-4.385v8.88m-4.36 84.765h8.88m-4.52-4.385v8.88m-4.36 84.765h8.88m-4.52-4.385v8.88m-4.36 84.77h8.88m-4.52-4.39v8.88m-4.36 84.77h8.88m-4.52-4.39v8.88m-4.36 84.77h8.88m-4.52-4.39v8.88m71.88-1075.615h8.88m-4.519-4.385v8.88m-4.361 84.765h8.88m-4.519-4.385v8.88m-4.361 84.765h8.88m-4.519-4.385v8.88m-4.361 84.765h8.88m-4.519-4.385v8.88m-4.361 84.765h8.88m-4.519-4.385v8.88m-4.361 84.765h8.88m-4.519-4.385v8.88m-4.361 84.765h8.88m-4.519-4.385v8.88m-4.361 84.765h8.88m-4.519-4.385v8.88m-4.361 84.765h8.88m-4.519-4.385v8.88m-4.361 84.765h8.88m-4.519-4.385v8.88m-4.361 84.77h8.88m-4.519-4.39v8.88m-4.361 84.77h8.88m-4.519-4.39v8.88m-4.361 84.77h8.88m-4.519-4.39v8.88M914.88 143.885h8.88m-4.52-4.385v8.88m-4.36 84.765h8.88m-4.52-4.385v8.88m-4.36 84.765h8.88m-4.52-4.385v8.88m-4.36 84.765h8.88m-4.52-4.385v8.88m-4.36 84.765h8.88m-4.52-4.385v8.88m-4.36 84.765h8.88m-4.52-4.385v8.88m-4.36 84.765h8.88m-4.52-4.385v8.88m-4.36 84.765h8.88m-4.52-4.385v8.88m-4.36 84.765h8.88m-4.52-4.385v8.88m-4.36 84.765h8.88m-4.52-4.385v8.88m-4.36 84.77h8.88m-4.52-4.39v8.88m-4.36 84.77h8.88m-4.52-4.39v8.88m-4.36 84.77h8.88m-4.52-4.39v8.88m71.88-1075.615h8.88m-4.519-4.385v8.88m-4.361 84.765h8.88m-4.519-4.385v8.88m-4.361 84.765h8.88m-4.519-4.385v8.88m-4.361 84.765h8.88m-4.519-4.385v8.88m-4.361 84.765h8.88m-4.519-4.385v8.88m-4.361 84.765h8.88m-4.519-4.385v8.88m-4.361 84.765h8.88m-4.519-4.385v8.88m-4.361 84.765h8.88m-4.519-4.385v8.88m-4.361 84.765h8.88m-4.519-4.385v8.88m-4.361 84.765h8.88m-4.519-4.385v8.88m-4.361 84.77h8.88m-4.519-4.39v8.88m-4.361 84.77h8.88m-4.519-4.39v8.88m-4.361 84.77h8.88m-4.519-4.39v8.88m71.879-1075.615h8.88m-4.52-4.385v8.88m-4.36 84.765h8.88m-4.52-4.385v8.88m-4.36 84.765h8.88m-4.52-4.385v8.88m-4.36 84.765h8.88m-4.52-4.385v8.88m-4.36 84.765h8.88m-4.52-4.385v8.88m-4.36 84.765h8.88m-4.52-4.385v8.88m-4.36 84.765h8.88m-4.52-4.385v8.88m-4.36 84.765h8.88m-4.52-4.385v8.88m-4.36 84.765h8.88m-4.52-4.385v8.88m-4.36 84.765h8.88m-4.52-4.385v8.88m-4.36 84.77h8.88m-4.52-4.39v8.88m-4.36 84.77h8.88m-4.52-4.39v8.88m-4.36 84.77h8.88m-4.52-4.39v8.88m71.88-1075.615h8.88m-4.52-4.385v8.88m-4.36 84.765h8.88m-4.52-4.385v8.88m-4.36 84.765h8.88m-4.52-4.385v8.88m-4.36 84.765h8.88m-4.52-4.385v8.88m-4.36 84.765h8.88m-4.52-4.385v8.88m-4.36 84.765h8.88m-4.52-4.385v8.88m-4.36 84.765h8.88m-4.52-4.385v8.88m-4.36 84.765h8.88m-4.52-4.385v8.88m-4.36 84.765h8.88m-4.52-4.385v8.88m-4.36 84.765h8.88m-4.52-4.385v8.88m-4.36 84.77h8.88m-4.52-4.39v8.88m-4.36 84.77h8.88m-4.52-4.39v8.88m-4.36 84.77h8.88m-4.52-4.39v8.88m71.88-1075.615h8.88m-4.52-4.385v8.88m-4.36 84.765h8.88m-4.52-4.385v8.88m-4.36 84.765h8.88m-4.52-4.385v8.88m-4.36 84.765h8.88m-4.52-4.385v8.88m-4.36 84.765h8.88m-4.52-4.385v8.88m-4.36 84.765h8.88m-4.52-4.385v8.88m-4.36 84.765h8.88m-4.52-4.385v8.88m-4.36 84.765h8.88m-4.52-4.385v8.88m-4.36 84.765h8.88m-4.52-4.385v8.88m-4.36 84.765h8.88m-4.52-4.385v8.88m-4.36 84.77h8.88m-4.52-4.39v8.88m-4.36 84.77h8.88m-4.52-4.39v8.88m-4.36 84.77h8.88m-4.52-4.39v8.88m71.88-1075.615h8.88m-4.52-4.385v8.88m-4.36 84.765h8.88m-4.52-4.385v8.88m-4.36 84.765h8.88m-4.52-4.385v8.88m-4.36 84.765h8.88m-4.52-4.385v8.88m-4.36 84.765h8.88m-4.52-4.385v8.88m-4.36 84.765h8.88m-4.52-4.385v8.88m-4.36 84.765h8.88m-4.52-4.385v8.88m-4.36 84.765h8.88m-4.52-4.385v8.88m-4.36 84.765h8.88m-4.52-4.385v8.88m-4.36 84.765h8.88m-4.52-4.385v8.88m-4.36 84.77h8.88m-4.52-4.39v8.88m-4.36 84.77h8.88m-4.52-4.39v8.88m-4.36 84.77h8.88m-4.52-4.39v8.88m71.88-1075.615h8.88m-4.52-4.385v8.88m-4.36 84.765h8.88m-4.52-4.385v8.88m-4.36 84.765h8.88m-4.52-4.385v8.88m-4.36 84.765h8.88m-4.52-4.385v8.88m-4.36 84.765h8.88m-4.52-4.385v8.88m-4.36 84.765h8.88m-4.52-4.385v8.88m-4.36 84.765h8.88m-4.52-4.385v8.88m-4.36 84.765h8.88m-4.52-4.385v8.88m-4.36 84.765h8.88m-4.52-4.385v8.88m-4.36 84.765h8.88m-4.52-4.385v8.88m-4.36 84.77h8.88m-4.52-4.39v8.88m-4.36 84.77h8.88m-4.52-4.39v8.88m-4.36 84.77h8.88m-4.52-4.39v8.88m71.88-1075.615h8.88m-4.52-4.385v8.88m-4.36 84.765h8.88m-4.52-4.385v8.88m-4.36 84.765h8.88m-4.52-4.385v8.88m-4.36 84.765h8.88m-4.52-4.385v8.88m-4.36 84.765h8.88m-4.52-4.385v8.88m-4.36 84.765h8.88m-4.52-4.385v8.88m-4.36 84.765h8.88m-4.52-4.385v8.88m-4.36 84.765h8.88m-4.52-4.385v8.88m-4.36 84.765h8.88m-4.52-4.385v8.88m-4.36 84.765h8.88m-4.52-4.385v8.88m-4.36 84.77h8.88m-4.52-4.39v8.88m-4.36 84.77h8.88m-4.52-4.39v8.88m-4.36 84.77h8.88m-4.52-4.39v8.88m71.88-1075.615h8.88m-4.52-4.385v8.88m-4.36 84.765h8.88m-4.52-4.385v8.88m-4.36 84.765h8.88m-4.52-4.385v8.88m-4.36 84.765h8.88m-4.52-4.385v8.88m-4.36 84.765h8.88m-4.52-4.385v8.88m-4.36 84.765h8.88m-4.52-4.385v8.88m-4.36 84.765h8.88m-4.52-4.385v8.88m-4.36 84.765h8.88m-4.52-4.385v8.88m-4.36 84.765h8.88m-4.52-4.385v8.88m-4.36 84.765h8.88m-4.52-4.385v8.88m-4.36 84.77h8.88m-4.52-4.39v8.88m-4.36 84.77h8.88m-4.52-4.39v8.88m-4.36 84.77h8.88m-4.52-4.39v8.88m71.88-1075.615h8.88m-4.52-4.385v8.88m-4.36 84.765h8.88m-4.52-4.385v8.88m-4.36 84.765h8.88m-4.52-4.385v8.88m-4.36 84.765h8.88m-4.52-4.385v8.88m-4.36 84.765h8.88m-4.52-4.385v8.88m-4.36 84.765h8.88m-4.52-4.385v8.88m-4.36 84.765h8.88m-4.52-4.385v8.88m-4.36 84.765h8.88m-4.52-4.385v8.88m-4.36 84.765h8.88m-4.52-4.385v8.88m-4.36 84.765h8.88m-4.52-4.385v8.88m-4.36 84.77h8.88m-4.52-4.39v8.88m-4.36 84.77h8.88m-4.52-4.39v8.88m-4.36 84.77h8.88m-4.52-4.39v8.88m71.88-1075.615h8.88m-4.52-4.385v8.88m-4.36 84.765h8.88m-4.52-4.385v8.88m-4.36 84.765h8.88m-4.52-4.385v8.88m-4.36 84.765h8.88m-4.52-4.385v8.88m-4.36 84.765h8.88m-4.52-4.385v8.88m-4.36 84.765h8.88m-4.52-4.385v8.88m-4.36 84.765h8.88m-4.52-4.385v8.88m-4.36 84.765h8.88m-4.52-4.385v8.88m-4.36 84.765h8.88m-4.52-4.385v8.88m-4.36 84.765h8.88m-4.52-4.385v8.88m-4.36 84.77h8.88m-4.52-4.39v8.88m-4.36 84.77h8.88m-4.52-4.39v8.88m-4.36 84.77h8.88m-4.52-4.39v8.88m71.88-1075.615h8.88m-4.52-4.385v8.88m-4.36 84.765h8.88m-4.52-4.385v8.88m-4.36 84.765h8.88m-4.52-4.385v8.88m-4.36 84.765h8.88m-4.52-4.385v8.88m-4.36 84.765h8.88m-4.52-4.385v8.88m-4.36 84.765h8.88m-4.52-4.385v8.88m-4.36 84.765h8.88m-4.52-4.385v8.88m-4.36 84.765h8.88m-4.52-4.385v8.88m-4.36 84.765h8.88m-4.52-4.385v8.88m-4.36 84.765h8.88m-4.52-4.385v8.88m-4.36 84.77h8.88m-4.52-4.39v8.88m-4.36 84.77h8.88m-4.52-4.39v8.88m-4.36 84.77h8.88m-4.52-4.39v8.88m71.88-1075.615h8.88m-4.52-4.385v8.88m-4.36 84.765h8.88m-4.52-4.385v8.88m-4.36 84.765h8.88m-4.52-4.385v8.88m-4.36 84.765h8.88m-4.52-4.385v8.88m-4.36 84.765h8.88m-4.52-4.385v8.88m-4.36 84.765h8.88m-4.52-4.385v8.88m-4.36 84.765h8.88m-4.52-4.385v8.88m-4.36 84.765h8.88m-4.52-4.385v8.88m-4.36 84.765h8.88m-4.52-4.385v8.88m-4.36 84.765h8.88m-4.52-4.385v8.88m-4.36 84.77h8.88m-4.52-4.39v8.88m-4.36 84.77h8.88m-4.52-4.39v8.88m-4.36 84.77h8.88m-4.52-4.39v8.88M1906 143.885h8.88m-4.52-4.385v8.88m-4.36 84.765h8.88m-4.52-4.385v8.88m-4.36 84.765h8.88m-4.52-4.385v8.88m-4.36 84.765h8.88m-4.52-4.385v8.88m-4.36 84.765h8.88m-4.52-4.385v8.88m-4.36 84.765h8.88m-4.52-4.385v8.88m-4.36 84.765h8.88m-4.52-4.385v8.88m-4.36 84.765h8.88m-4.52-4.385v8.88m-4.36 84.765h8.88m-4.52-4.385v8.88m-4.36 84.765h8.88m-4.52-4.385v8.88m-4.36 84.77h8.88m-4.52-4.39v8.88m-4.36 84.77h8.88m-4.52-4.39v8.88m-4.36 84.77h8.88m-4.52-4.39v8.88" opacity=".4" stroke="#2BFFE8" stroke-width=".555"/></svg>