<svg width="1915" height="1221" fill="none" xmlns="http://www.w3.org/2000/svg"><g opacity=".4" stroke="#2BFFE8" stroke-width=".555" clip-path="url(#a)"><path d="M0 76.885h8.88M4.361 72.5v8.88M0 166.145h8.88m-4.519-4.385v8.88M0 255.405h8.88m-4.519-4.385v8.88M0 344.665h8.88m-4.519-4.385v8.88M0 433.925h8.88m-4.519-4.385v8.88M0 523.185h8.88M4.361 518.8v8.88M0 612.445h8.88m-4.519-4.385v8.88M0 701.705h8.88m-4.519-4.385v8.88M0 790.965h8.88m-4.519-4.385v8.88M0 880.225h8.88m-4.519-4.385v8.88M0 969.486l8.88-.001M4.361 965.1v8.88M0 1058.75h8.88m-4.519-4.39v8.88M0 1148.01h8.88m-4.519-4.39v8.88M76.24 76.885h8.88M80.601 72.5v8.88m-4.361 84.765h8.88m-4.519-4.385v8.88m-4.361 84.765h8.88m-4.519-4.385v8.88m-4.361 84.765h8.88m-4.519-4.385v8.88m-4.361 84.765h8.88m-4.519-4.385v8.88m-4.361 84.765h8.88m-4.519-4.385v8.88m-4.361 84.765h8.88m-4.519-4.385v8.88m-4.361 84.765h8.88m-4.519-4.385v8.88m-4.361 84.765h8.88m-4.519-4.385v8.88m-4.361 84.765h8.88m-4.519-4.385v8.88m-4.361 84.766 8.88-.001m-4.519-4.385v8.88m-4.361 84.77h8.88m-4.519-4.39v8.88m-4.361 84.77h8.88m-4.519-4.39v8.88M152.48 76.885h8.88m-4.519-4.385v8.88m-4.361 84.765h8.88m-4.519-4.385v8.88m-4.361 84.765h8.88m-4.519-4.385v8.88m-4.361 84.765h8.88m-4.519-4.385v8.88m-4.361 84.765h8.88m-4.519-4.385v8.88m-4.361 84.765h8.88m-4.519-4.385v8.88m-4.361 84.765h8.88m-4.519-4.385v8.88m-4.361 84.765h8.88m-4.519-4.385v8.88m-4.361 84.765h8.88m-4.519-4.385v8.88m-4.361 84.765h8.88m-4.519-4.385v8.88m-4.361 84.766 8.88-.001m-4.519-4.385v8.88m-4.361 84.77h8.88m-4.519-4.39v8.88m-4.361 84.77h8.88m-4.519-4.39v8.88M228.72 76.885h8.88m-4.519-4.385v8.88m-4.361 84.765h8.88m-4.519-4.385v8.88m-4.361 84.765h8.88m-4.519-4.385v8.88m-4.361 84.765h8.88m-4.519-4.385v8.88m-4.361 84.765h8.88m-4.519-4.385v8.88m-4.361 84.765h8.88m-4.519-4.385v8.88m-4.361 84.765h8.88m-4.519-4.385v8.88m-4.361 84.765h8.88m-4.519-4.385v8.88m-4.361 84.765h8.88m-4.519-4.385v8.88m-4.361 84.765h8.88m-4.519-4.385v8.88m-4.361 84.766 8.88-.001m-4.519-4.385v8.88m-4.361 84.77h8.88m-4.519-4.39v8.88m-4.361 84.77h8.88m-4.519-4.39v8.88M304.96 76.885h8.88m-4.519-4.385v8.88m-4.361 84.765h8.88m-4.519-4.385v8.88m-4.361 84.765h8.88m-4.519-4.385v8.88m-4.361 84.765h8.88m-4.519-4.385v8.88m-4.361 84.765h8.88m-4.519-4.385v8.88m-4.361 84.765h8.88m-4.519-4.385v8.88m-4.361 84.765h8.88m-4.519-4.385v8.88m-4.361 84.765h8.88m-4.519-4.385v8.88m-4.361 84.765h8.88m-4.519-4.385v8.88m-4.361 84.765h8.88m-4.519-4.385v8.88m-4.361 84.766 8.88-.001m-4.519-4.385v8.88m-4.361 84.77h8.88m-4.519-4.39v8.88m-4.361 84.77h8.88m-4.519-4.39v8.88M381.2 76.885h8.88m-4.519-4.385v8.88m-4.361 84.765h8.88m-4.519-4.385v8.88m-4.361 84.765h8.88m-4.519-4.385v8.88m-4.361 84.765h8.88m-4.519-4.385v8.88m-4.361 84.765h8.88m-4.519-4.385v8.88m-4.361 84.765h8.88m-4.519-4.385v8.88m-4.361 84.765h8.88m-4.519-4.385v8.88m-4.361 84.765h8.88m-4.519-4.385v8.88m-4.361 84.765h8.88m-4.519-4.385v8.88m-4.361 84.765h8.88m-4.519-4.385v8.88m-4.361 84.766 8.88-.001m-4.519-4.385v8.88m-4.361 84.77h8.88m-4.519-4.39v8.88m-4.361 84.77h8.88m-4.519-4.39v8.88M457.44 76.885h8.88m-4.519-4.385v8.88m-4.361 84.765h8.88m-4.519-4.385v8.88m-4.361 84.765h8.88m-4.519-4.385v8.88m-4.361 84.765h8.88m-4.519-4.385v8.88m-4.361 84.765h8.88m-4.519-4.385v8.88m-4.361 84.765h8.88m-4.519-4.385v8.88m-4.361 84.765h8.88m-4.519-4.385v8.88m-4.361 84.765h8.88m-4.519-4.385v8.88m-4.361 84.765h8.88m-4.519-4.385v8.88m-4.361 84.765h8.88m-4.519-4.385v8.88m-4.361 84.766 8.88-.001m-4.519-4.385v8.88m-4.361 84.77h8.88m-4.519-4.39v8.88m-4.361 84.77h8.88m-4.519-4.39v8.88M533.68 76.885h8.88m-4.519-4.385v8.88m-4.361 84.765h8.88m-4.519-4.385v8.88m-4.361 84.765h8.88m-4.519-4.385v8.88m-4.361 84.765h8.88m-4.519-4.385v8.88m-4.361 84.765h8.88m-4.519-4.385v8.88m-4.361 84.765h8.88m-4.519-4.385v8.88m-4.361 84.765h8.88m-4.519-4.385v8.88m-4.361 84.765h8.88m-4.519-4.385v8.88m-4.361 84.765h8.88m-4.519-4.385v8.88m-4.361 84.765h8.88m-4.519-4.385v8.88m-4.361 84.766 8.88-.001m-4.519-4.385v8.88m-4.361 84.77h8.88m-4.519-4.39v8.88m-4.361 84.77h8.88m-4.519-4.39v8.88M609.92 76.885h8.88m-4.519-4.385v8.88m-4.361 84.765h8.88m-4.519-4.385v8.88m-4.361 84.765h8.88m-4.519-4.385v8.88m-4.361 84.765h8.88m-4.519-4.385v8.88m-4.361 84.765h8.88m-4.519-4.385v8.88m-4.361 84.765h8.88m-4.519-4.385v8.88m-4.361 84.765h8.88m-4.519-4.385v8.88m-4.361 84.765h8.88m-4.519-4.385v8.88m-4.361 84.765h8.88m-4.519-4.385v8.88m-4.361 84.765h8.88m-4.519-4.385v8.88m-4.361 84.766 8.88-.001m-4.519-4.385v8.88m-4.361 84.77h8.88m-4.519-4.39v8.88m-4.361 84.77h8.88m-4.519-4.39v8.88M686.16 76.885h8.88m-4.519-4.385v8.88m-4.361 84.765h8.88m-4.519-4.385v8.88m-4.361 84.765h8.88m-4.519-4.385v8.88m-4.361 84.765h8.88m-4.519-4.385v8.88m-4.361 84.765h8.88m-4.519-4.385v8.88m-4.361 84.765h8.88m-4.519-4.385v8.88m-4.361 84.765h8.88m-4.519-4.385v8.88m-4.361 84.765h8.88m-4.519-4.385v8.88m-4.361 84.765h8.88m-4.519-4.385v8.88m-4.361 84.765h8.88m-4.519-4.385v8.88m-4.361 84.766 8.88-.001m-4.519-4.385v8.88m-4.361 84.77h8.88m-4.519-4.39v8.88m-4.361 84.77h8.88m-4.519-4.39v8.88M762.4 76.885h8.88m-4.519-4.385v8.88m-4.361 84.765h8.88m-4.519-4.385v8.88m-4.361 84.765h8.88m-4.519-4.385v8.88m-4.361 84.765h8.88m-4.519-4.385v8.88m-4.361 84.765h8.88m-4.519-4.385v8.88m-4.361 84.765h8.88m-4.519-4.385v8.88m-4.361 84.765h8.88m-4.519-4.385v8.88m-4.361 84.765h8.88m-4.519-4.385v8.88m-4.361 84.765h8.88m-4.519-4.385v8.88m-4.361 84.765h8.88m-4.519-4.385v8.88m-4.361 84.766 8.88-.001m-4.519-4.385v8.88m-4.361 84.77h8.88m-4.519-4.39v8.88m-4.361 84.77h8.88m-4.519-4.39v8.88M838.64 76.885h8.88m-4.519-4.385v8.88m-4.361 84.765h8.88m-4.519-4.385v8.88m-4.361 84.765h8.88m-4.519-4.385v8.88m-4.361 84.765h8.88m-4.519-4.385v8.88m-4.361 84.765h8.88m-4.519-4.385v8.88m-4.361 84.765h8.88m-4.519-4.385v8.88m-4.361 84.765h8.88m-4.519-4.385v8.88m-4.361 84.765h8.88m-4.519-4.385v8.88m-4.361 84.765h8.88m-4.519-4.385v8.88m-4.361 84.765h8.88m-4.519-4.385v8.88m-4.361 84.766 8.88-.001m-4.519-4.385v8.88m-4.361 84.77h8.88m-4.519-4.39v8.88m-4.361 84.77h8.88m-4.519-4.39v8.88M914.88 76.885h8.88m-4.519-4.385v8.88m-4.361 84.765h8.88m-4.519-4.385v8.88m-4.361 84.765h8.88m-4.519-4.385v8.88m-4.361 84.765h8.88m-4.519-4.385v8.88m-4.361 84.765h8.88m-4.519-4.385v8.88m-4.361 84.765h8.88m-4.519-4.385v8.88m-4.361 84.765h8.88m-4.519-4.385v8.88m-4.361 84.765h8.88m-4.519-4.385v8.88m-4.361 84.765h8.88m-4.519-4.385v8.88m-4.361 84.765h8.88m-4.519-4.385v8.88m-4.361 84.766 8.88-.001m-4.519-4.385v8.88m-4.361 84.77h8.88m-4.519-4.39v8.88m-4.361 84.77h8.88m-4.519-4.39v8.88M991.12 76.885h8.88m-4.519-4.385v8.88m-4.361 84.765h8.88m-4.519-4.385v8.88m-4.361 84.765h8.88m-4.519-4.385v8.88m-4.361 84.765h8.88m-4.519-4.385v8.88m-4.361 84.765h8.88m-4.519-4.385v8.88m-4.361 84.765h8.88m-4.519-4.385v8.88m-4.361 84.765h8.88m-4.519-4.385v8.88m-4.361 84.765h8.88m-4.519-4.385v8.88m-4.361 84.765h8.88m-4.519-4.385v8.88m-4.361 84.765h8.88m-4.519-4.385v8.88m-4.361 84.766 8.88-.001m-4.519-4.385v8.88m-4.361 84.77h8.88m-4.519-4.39v8.88m-4.361 84.77h8.88m-4.519-4.39v8.88M1067.36 76.885h8.88m-4.52-4.385v8.88m-4.36 84.765h8.88m-4.52-4.385v8.88m-4.36 84.765h8.88m-4.52-4.385v8.88m-4.36 84.765h8.88m-4.52-4.385v8.88m-4.36 84.765h8.88m-4.52-4.385v8.88m-4.36 84.765h8.88m-4.52-4.385v8.88m-4.36 84.765h8.88m-4.52-4.385v8.88m-4.36 84.765h8.88m-4.52-4.385v8.88m-4.36 84.765h8.88m-4.52-4.385v8.88m-4.36 84.765h8.88m-4.52-4.385v8.88m-4.36 84.766 8.88-.001m-4.52-4.385v8.88m-4.36 84.77h8.88m-4.52-4.39v8.88m-4.36 84.77h8.88m-4.52-4.39v8.88M1143.6 76.885h8.88m-4.52-4.385v8.88m-4.36 84.765h8.88m-4.52-4.385v8.88m-4.36 84.765h8.88m-4.52-4.385v8.88m-4.36 84.765h8.88m-4.52-4.385v8.88m-4.36 84.765h8.88m-4.52-4.385v8.88m-4.36 84.765h8.88m-4.52-4.385v8.88m-4.36 84.765h8.88m-4.52-4.385v8.88m-4.36 84.765h8.88m-4.52-4.385v8.88m-4.36 84.765h8.88m-4.52-4.385v8.88m-4.36 84.765h8.88m-4.52-4.385v8.88m-4.36 84.766 8.88-.001m-4.52-4.385v8.88m-4.36 84.77h8.88m-4.52-4.39v8.88m-4.36 84.77h8.88m-4.52-4.39v8.88m71.88-1075.615h8.88m-4.52-4.385v8.88m-4.36 84.765h8.88m-4.52-4.385v8.88m-4.36 84.765h8.88m-4.52-4.385v8.88m-4.36 84.765h8.88m-4.52-4.385v8.88m-4.36 84.765h8.88m-4.52-4.385v8.88m-4.36 84.765h8.88m-4.52-4.385v8.88m-4.36 84.765h8.88m-4.52-4.385v8.88m-4.36 84.765h8.88m-4.52-4.385v8.88m-4.36 84.765h8.88m-4.52-4.385v8.88m-4.36 84.765h8.88m-4.52-4.385v8.88m-4.36 84.766 8.88-.001m-4.52-4.385v8.88m-4.36 84.77h8.88m-4.52-4.39v8.88m-4.36 84.77h8.88m-4.52-4.39v8.88m71.88-1075.615h8.88m-4.52-4.385v8.88m-4.36 84.765h8.88m-4.52-4.385v8.88m-4.36 84.765h8.88m-4.52-4.385v8.88m-4.36 84.765h8.88m-4.52-4.385v8.88m-4.36 84.765h8.88m-4.52-4.385v8.88m-4.36 84.765h8.88m-4.52-4.385v8.88m-4.36 84.765h8.88m-4.52-4.385v8.88m-4.36 84.765h8.88m-4.52-4.385v8.88m-4.36 84.765h8.88m-4.52-4.385v8.88m-4.36 84.765h8.88m-4.52-4.385v8.88m-4.36 84.766 8.88-.001m-4.52-4.385v8.88m-4.36 84.77h8.88m-4.52-4.39v8.88m-4.36 84.77h8.88m-4.52-4.39v8.88m71.88-1075.615h8.88m-4.52-4.385v8.88m-4.36 84.765h8.88m-4.52-4.385v8.88m-4.36 84.765h8.88m-4.52-4.385v8.88m-4.36 84.765h8.88m-4.52-4.385v8.88m-4.36 84.765h8.88m-4.52-4.385v8.88m-4.36 84.765h8.88m-4.52-4.385v8.88m-4.36 84.765h8.88m-4.52-4.385v8.88m-4.36 84.765h8.88m-4.52-4.385v8.88m-4.36 84.765h8.88m-4.52-4.385v8.88m-4.36 84.765h8.88m-4.52-4.385v8.88m-4.36 84.766 8.88-.001m-4.52-4.385v8.88m-4.36 84.77h8.88m-4.52-4.39v8.88m-4.36 84.77h8.88m-4.52-4.39v8.88m71.88-1075.615h8.88m-4.52-4.385v8.88m-4.36 84.765h8.88m-4.52-4.385v8.88m-4.36 84.765h8.88m-4.52-4.385v8.88m-4.36 84.765h8.88m-4.52-4.385v8.88m-4.36 84.765h8.88m-4.52-4.385v8.88m-4.36 84.765h8.88m-4.52-4.385v8.88m-4.36 84.765h8.88m-4.52-4.385v8.88m-4.36 84.765h8.88m-4.52-4.385v8.88m-4.36 84.765h8.88m-4.52-4.385v8.88m-4.36 84.765h8.88m-4.52-4.385v8.88m-4.36 84.766 8.88-.001m-4.52-4.385v8.88m-4.36 84.77h8.88m-4.52-4.39v8.88m-4.36 84.77h8.88m-4.52-4.39v8.88M1524.8 76.885h8.88m-4.52-4.385v8.88m-4.36 84.765h8.88m-4.52-4.385v8.88m-4.36 84.765h8.88m-4.52-4.385v8.88m-4.36 84.765h8.88m-4.52-4.385v8.88m-4.36 84.765h8.88m-4.52-4.385v8.88m-4.36 84.765h8.88m-4.52-4.385v8.88m-4.36 84.765h8.88m-4.52-4.385v8.88m-4.36 84.765h8.88m-4.52-4.385v8.88m-4.36 84.765h8.88m-4.52-4.385v8.88m-4.36 84.765h8.88m-4.52-4.385v8.88m-4.36 84.766 8.88-.001m-4.52-4.385v8.88m-4.36 84.77h8.88m-4.52-4.39v8.88m-4.36 84.77h8.88m-4.52-4.39v8.88m71.88-1075.615h8.88m-4.52-4.385v8.88m-4.36 84.765h8.88m-4.52-4.385v8.88m-4.36 84.765h8.88m-4.52-4.385v8.88m-4.36 84.765h8.88m-4.52-4.385v8.88m-4.36 84.765h8.88m-4.52-4.385v8.88m-4.36 84.765h8.88m-4.52-4.385v8.88m-4.36 84.765h8.88m-4.52-4.385v8.88m-4.36 84.765h8.88m-4.52-4.385v8.88m-4.36 84.765h8.88m-4.52-4.385v8.88m-4.36 84.765h8.88m-4.52-4.385v8.88m-4.36 84.766 8.88-.001m-4.52-4.385v8.88m-4.36 84.77h8.88m-4.52-4.39v8.88m-4.36 84.77h8.88m-4.52-4.39v8.88m71.88-1075.615h8.88m-4.52-4.385v8.88m-4.36 84.765h8.88m-4.52-4.385v8.88m-4.36 84.765h8.88m-4.52-4.385v8.88m-4.36 84.765h8.88m-4.52-4.385v8.88m-4.36 84.765h8.88m-4.52-4.385v8.88m-4.36 84.765h8.88m-4.52-4.385v8.88m-4.36 84.765h8.88m-4.52-4.385v8.88m-4.36 84.765h8.88m-4.52-4.385v8.88m-4.36 84.765h8.88m-4.52-4.385v8.88m-4.36 84.765h8.88m-4.52-4.385v8.88m-4.36 84.766 8.88-.001m-4.52-4.385v8.88m-4.36 84.77h8.88m-4.52-4.39v8.88m-4.36 84.77h8.88m-4.52-4.39v8.88m71.88-1075.615h8.88m-4.52-4.385v8.88m-4.36 84.765h8.88m-4.52-4.385v8.88m-4.36 84.765h8.88m-4.52-4.385v8.88m-4.36 84.765h8.88m-4.52-4.385v8.88m-4.36 84.765h8.88m-4.52-4.385v8.88m-4.36 84.765h8.88m-4.52-4.385v8.88m-4.36 84.765h8.88m-4.52-4.385v8.88m-4.36 84.765h8.88m-4.52-4.385v8.88m-4.36 84.765h8.88m-4.52-4.385v8.88m-4.36 84.765h8.88m-4.52-4.385v8.88m-4.36 84.766 8.88-.001m-4.52-4.385v8.88m-4.36 84.77h8.88m-4.52-4.39v8.88m-4.36 84.77h8.88m-4.52-4.39v8.88m71.88-1075.615h8.88m-4.52-4.385v8.88m-4.36 84.765h8.88m-4.52-4.385v8.88m-4.36 84.765h8.88m-4.52-4.385v8.88m-4.36 84.765h8.88m-4.52-4.385v8.88m-4.36 84.765h8.88m-4.52-4.385v8.88m-4.36 84.765h8.88m-4.52-4.385v8.88m-4.36 84.765h8.88m-4.52-4.385v8.88m-4.36 84.765h8.88m-4.52-4.385v8.88m-4.36 84.765h8.88m-4.52-4.385v8.88m-4.36 84.765h8.88m-4.52-4.385v8.88m-4.36 84.766 8.88-.001m-4.52-4.385v8.88m-4.36 84.77h8.88m-4.52-4.39v8.88m-4.36 84.77h8.88m-4.52-4.39v8.88M1906 76.885h8.88m-4.52-4.385v8.88m-4.36 84.765h8.88m-4.52-4.385v8.88m-4.36 84.765h8.88m-4.52-4.385v8.88m-4.36 84.765h8.88m-4.52-4.385v8.88m-4.36 84.765h8.88m-4.52-4.385v8.88m-4.36 84.765h8.88m-4.52-4.385v8.88m-4.36 84.765h8.88m-4.52-4.385v8.88m-4.36 84.765h8.88m-4.52-4.385v8.88m-4.36 84.765h8.88m-4.52-4.385v8.88m-4.36 84.765h8.88m-4.52-4.385v8.88m-4.36 84.766 8.88-.001m-4.52-4.385v8.88m-4.36 84.77h8.88m-4.52-4.39v8.88m-4.36 84.77h8.88m-4.52-4.39v8.88"/></g><defs><clipPath id="a"><path fill="#fff" d="M0 0h1915v1221H0z"/></clipPath></defs></svg>