<svg width="77" height="68" fill="none" xmlns="http://www.w3.org/2000/svg"><path fill-rule="evenodd" clip-rule="evenodd" d="m73.528 35.733 3.103-9.536-.001.002-20.223-.01a5.99 5.99 0 0 1-1.433-.172 4.746 4.746 0 0 1-3.604-5.255 5.97 5.97 0 0 1 .345-1.36L56.163 5.68 47.151 0l-8.963 27.534 5.878 8.18 29.462.019ZM29.478 68l8.962-27.533.002-.002-5.878-8.18-29.46-.016L0 41.804l20.223.006c.496.003.975.062 1.43.173a4.745 4.745 0 0 1 3.604 5.258 5.923 5.923 0 0 1-.345 1.36l-4.445 13.72L29.477 68Z" fill="#2BFFE8"/></svg>