<svg width="77" height="68" viewBox="0 0 77 68" fill="none" xmlns="http://www.w3.org/2000/svg">
<path fill-rule="evenodd" clip-rule="evenodd" d="M73.5277 35.7325L76.6313 26.197L76.6299 26.1985L56.4067 26.1898C55.9084 26.1898 55.4303 26.1294 54.9737 26.017C52.5902 25.4337 51.0507 23.1943 51.3704 20.7618C51.4294 20.3081 51.5418 19.853 51.7146 19.4022L56.1633 5.67867L47.1506 0L38.1883 27.5335L44.0658 35.7138L73.5277 35.7325ZM29.4778 68L38.4401 40.4665L38.4415 40.465L32.5641 32.2847L3.10361 32.2689L0 41.8044L20.2231 41.8102C20.7186 41.813 21.1982 41.8721 21.6533 41.983C24.0396 42.5677 25.5778 44.8057 25.2566 47.2411C25.1976 47.6948 25.0852 48.1499 24.9124 48.6006L20.4665 62.3213L29.4778 68Z" fill="#2BFFE8"/>
</svg>
